<svg width="566" height="566" viewBox="0 0 566 566" fill="none" xmlns="http://www.w3.org/2000/svg">
<g clip-path="url(#clip0_686_29024)">
<rect width="566" height="566" fill="#F2F5FA"/>
<path fill-rule="evenodd" clip-rule="evenodd" d="M181.952 119.151C183.175 117.928 185.62 116.317 189.506 114.584C193.471 112.816 199.137 110.833 206.989 108.973C222.212 105.368 245.766 102.199 281.305 102.009V102C281.873 102 282.438 102.001 283 102.002C283.562 102.001 284.127 102 284.695 102V102.009C320.234 102.199 343.788 105.368 359.011 108.973C366.863 110.833 372.529 112.816 376.494 114.584C380.38 116.317 382.825 117.928 384.048 119.151C384.522 119.625 384.819 120.17 384.98 120.489C385.172 120.868 385.347 121.289 385.506 121.714C385.826 122.566 386.16 123.641 386.503 124.866C387.193 127.328 387.98 130.626 388.821 134.471C390.504 142.175 392.437 152.247 394.264 162.599C396.091 172.954 397.818 183.622 399.09 192.525C400.348 201.328 401.199 208.657 401.199 212.172C401.199 218.962 399.527 230.575 397.918 240.632C397.376 244.017 396.832 247.279 396.351 250.165C396.112 251.602 395.888 252.945 395.688 254.164C395.384 256.01 395.135 257.567 394.963 258.755C394.876 259.351 394.812 259.834 394.77 260.205C394.749 260.39 394.735 260.535 394.727 260.642L394.719 260.753C394.725 260.787 394.749 260.918 394.835 261.179C394.96 261.561 395.16 262.053 395.456 262.725C395.594 263.039 395.752 263.389 395.924 263.769C396.448 264.929 397.102 266.377 397.737 268.004C399.469 272.442 401.199 278.516 401.199 286.7C401.199 292.679 397.924 298.269 394.465 302.834C392.694 305.172 390.764 307.38 388.978 309.37C388.501 309.902 388.038 310.413 387.592 310.906C386.436 312.185 385.39 313.342 384.484 314.414L384.48 314.421L384.46 314.461L384.441 314.501L384.421 314.541L384.38 314.621L384.36 314.662L384.34 314.702L384.319 314.743L384.299 314.784L384.258 314.866L384.237 314.908L384.216 314.949L384.174 315.033L384.132 315.118L384.111 315.16L384.09 315.203L384.047 315.288L384.025 315.331L384.004 315.374L383.982 315.418L383.96 315.461L383.938 315.505L383.916 315.549L383.895 315.593L383.872 315.637L383.85 315.681L383.828 315.726L383.783 315.815L383.738 315.905L383.693 315.995L383.671 316.041L383.648 316.086L383.625 316.132L383.602 316.178L383.556 316.27L383.533 316.316L383.51 316.363L383.486 316.409L383.463 316.456L383.416 316.55L383.393 316.597L383.369 316.644L383.321 316.739L383.298 316.786L383.274 316.834L383.25 316.882L383.226 316.93L383.202 316.978L383.178 317.027L383.153 317.075L383.129 317.123L383.08 317.221L383.056 317.27L383.031 317.319L383.007 317.368L382.982 317.417L382.933 317.516L382.908 317.566L382.883 317.615L382.858 317.665L382.833 317.715L382.783 317.816L382.733 317.916L382.707 317.967L382.682 318.018L382.631 318.119L382.606 318.17L382.58 318.221L382.555 318.273L382.529 318.324L382.503 318.375L382.477 318.427L382.452 318.479L382.426 318.53L382.374 318.634L382.348 318.686L382.322 318.738L382.269 318.843L382.217 318.948L382.164 319.053L382.111 319.159L382.085 319.212L382.058 319.265L382.032 319.319L382.005 319.372L381.978 319.425L381.952 319.479L381.925 319.532L381.898 319.586L381.844 319.694L381.79 319.802L381.763 319.856L381.736 319.91L381.682 320.019L381.654 320.073L381.627 320.128L381.6 320.182L381.572 320.237L381.545 320.292L381.518 320.347L381.49 320.402L381.463 320.457L381.407 320.567L381.38 320.622L381.352 320.678L381.324 320.733L381.297 320.788C381.173 321.036 381.365 320.652 381.241 320.9L381.213 320.955L381.185 321.011L381.157 321.067L381.129 321.123L381.073 321.235L381.017 321.347L380.989 321.403L380.961 321.46L380.905 321.572L380.876 321.629L380.848 321.685L380.792 321.799L380.763 321.855L380.735 321.912L380.706 321.969L380.678 322.026L380.649 322.083L380.621 322.14L380.592 322.197L380.564 322.254L380.535 322.311L380.507 322.368L380.449 322.483L380.392 322.598L380.363 322.655L380.335 322.713L380.306 322.77L380.277 322.828L380.248 322.886L380.219 322.943L380.161 323.059L380.133 323.117L380.104 323.175L380.075 323.232L380.046 323.29L379.988 323.406L379.93 323.523L379.901 323.581L379.871 323.639L379.842 323.697L379.813 323.755L379.784 323.814L379.755 323.872L379.726 323.93L379.697 323.989L379.667 324.047L379.638 324.106L379.58 324.223L379.55 324.281L379.521 324.34L379.492 324.398L379.462 324.457L379.404 324.574L379.375 324.633L379.345 324.691L379.316 324.75L379.286 324.809L379.228 324.926L379.169 325.044L379.139 325.103L379.11 325.162L379.051 325.279L379.022 325.338L378.992 325.397L378.963 325.456L378.933 325.515L378.904 325.574L378.874 325.633L378.845 325.692L378.815 325.751L378.757 325.869L378.727 325.928L378.698 325.987L378.639 326.105L378.58 326.223L378.55 326.282L378.521 326.341L378.462 326.459L378.432 326.518L378.403 326.577L378.373 326.636L378.344 326.695L378.285 326.813L378.255 326.872L378.226 326.931L378.196 326.99L378.167 327.049L378.108 327.166L378.078 327.225L378.049 327.284L377.99 327.402L377.96 327.461L377.931 327.52L377.902 327.579L377.872 327.637L377.813 327.755L377.784 327.814L377.755 327.873L377.696 327.99L377.637 328.108L377.608 328.166L377.578 328.225L377.52 328.342L377.491 328.401L377.461 328.459L377.432 328.518L377.403 328.576L377.374 328.635L377.344 328.693L377.286 328.81L377.228 328.926L377.169 329.043L377.111 329.159L377.082 329.217L377.053 329.275L377.024 329.334L376.995 329.392L376.966 329.45L376.937 329.507L376.918 329.546L376.879 329.623L376.85 329.681L376.822 329.739L376.793 329.797L376.764 329.854L376.706 329.969L376.649 330.085L376.591 330.199L376.563 330.257L376.534 330.314L376.505 330.371L376.477 330.428L376.448 330.486L376.42 330.543L376.391 330.6L376.363 330.657L376.334 330.714L376.306 330.771L376.249 330.884L376.22 330.941L376.192 330.997L376.136 331.111L376.107 331.167L376.079 331.223L376.051 331.28L376.023 331.336L375.995 331.392L375.967 331.448L375.939 331.504L375.911 331.56L375.883 331.616L375.855 331.672L375.827 331.728L375.799 331.784L375.771 331.839L375.743 331.895L375.688 332.006L375.66 332.061L375.633 332.117L375.605 332.172L375.577 332.227L375.522 332.337L375.467 332.447L375.413 332.556L375.358 332.665L375.331 332.72L375.304 332.774L375.277 332.828L375.25 332.883L375.223 332.937L375.195 332.991L375.169 333.045L375.142 333.099L375.115 333.152L375.088 333.206L375.061 333.259L375.034 333.313L374.981 333.42L374.928 333.526L374.875 333.632L374.822 333.737L374.796 333.79L374.77 333.842L374.743 333.895L374.717 333.947L374.691 333.999L374.665 334.052L374.639 334.104L374.613 334.156L374.587 334.207L374.561 334.259L374.51 334.362L374.484 334.414L374.458 334.465L374.407 334.567L374.382 334.618L374.356 334.669L374.331 334.72L374.306 334.77L374.281 334.821L374.255 334.871L374.23 334.921L374.205 334.972L374.18 335.022L374.155 335.072L374.105 335.171L374.081 335.221L374.056 335.27L374.007 335.369L373.982 335.418L373.958 335.467L373.933 335.516L373.909 335.564L373.86 335.661L373.836 335.71L373.812 335.758L373.764 335.854L373.716 335.95L373.692 335.997L373.669 336.045L373.645 336.092L373.621 336.139L373.598 336.186L373.574 336.233L373.551 336.28L373.528 336.326L373.481 336.419L373.458 336.466L373.435 336.512L373.412 336.558L373.389 336.603L373.344 336.695L373.298 336.785L373.253 336.875L373.231 336.92L373.209 336.965L373.186 337.009L373.164 337.054L373.142 337.098L373.12 337.142L373.098 337.186L373.076 337.229L373.054 337.273L373.033 337.317L372.989 337.403L372.968 337.446L372.947 337.489C372.877 337.627 372.937 337.507 372.937 337.507L372.904 337.574L372.883 337.616L372.862 337.659L372.841 337.701L372.82 337.743L372.799 337.784L372.778 337.826L372.757 337.867L372.737 337.908L372.696 337.99L372.655 338.072L372.635 338.112L372.615 338.152L372.575 338.232L372.555 338.272L372.535 338.312L372.515 338.351L372.496 338.39L372.457 338.468L372.418 338.545L372.399 338.584L372.38 338.622L372.342 338.698L372.323 338.735L372.304 338.773L372.267 338.847L372.249 338.884L372.23 338.921L372.212 338.957L372.194 338.994L372.176 339.03L372.158 339.066L372.14 339.102L372.122 339.137L372.087 339.208L372.052 339.278L372.035 339.313L372.017 339.347L371.983 339.415L371.966 339.449L371.949 339.483L371.933 339.517L371.916 339.55L371.899 339.583L371.883 339.616L371.867 339.649L371.85 339.681L371.834 339.713L371.818 339.746L371.786 339.809L371.771 339.841L371.755 339.872L371.736 339.91C371.749 339.883 371.769 339.845 371.724 339.934L371.709 339.965L371.693 339.995C370.894 341.593 369.245 343.949 367.303 346.53C365.305 349.185 362.824 352.301 360.205 355.503C355.321 361.475 349.901 367.817 346.113 372.165V415.811C346.767 417.636 348.476 419.871 351.601 422.468C354.883 425.194 359.379 428.038 364.859 430.977C375.813 436.853 390.236 442.869 405.629 448.945C410.845 451.003 416.176 453.071 421.508 455.138C431.829 459.141 442.154 463.144 451.655 467.092C466.03 473.065 478.885 479.053 487.306 484.948C501.134 494.628 508.991 510.299 513.275 525.528C517.57 540.796 518.404 556.067 517.846 565.561L517.666 568.611H514.76H514.611H51.3889H51.2402H48.3336L48.1542 565.561C47.5957 556.067 48.4302 540.796 52.7252 525.528C57.0093 510.299 64.8655 494.628 78.6939 484.948C87.1149 479.053 99.9699 473.065 114.345 467.092C123.846 463.144 134.171 459.141 144.492 455.138C149.824 453.071 155.155 451.003 160.371 448.945C175.764 442.869 190.187 436.853 201.141 430.977C206.621 428.038 211.117 425.194 214.399 422.468C217.524 419.871 219.233 417.636 219.887 415.811V372.165C216.099 367.817 210.679 361.475 205.795 355.503C203.176 352.301 200.695 349.185 198.697 346.53C196.755 343.949 195.106 341.593 194.307 339.995L194.291 339.965L194.276 339.934C194.231 339.845 194.251 339.883 194.264 339.91L194.245 339.872L194.229 339.841L194.214 339.809L194.182 339.746L194.166 339.713L194.15 339.681L194.133 339.649L194.117 339.616L194.101 339.583L194.084 339.55L194.067 339.517L194.051 339.483L194.034 339.449L194.017 339.415L193.983 339.347L193.965 339.313L193.948 339.278L193.913 339.208L193.878 339.137L193.86 339.102L193.842 339.066L193.824 339.03L193.806 338.994L193.788 338.957L193.77 338.921L193.751 338.884L193.733 338.847L193.695 338.773L193.677 338.735L193.658 338.698L193.62 338.622L193.601 338.584L193.582 338.545L193.543 338.468L193.504 338.39L193.485 338.351L193.465 338.312L193.445 338.272L193.425 338.232L193.385 338.152L193.365 338.112L193.345 338.072L193.304 337.99L193.263 337.908L193.243 337.867L193.222 337.826L193.201 337.784L193.18 337.743L193.159 337.701L193.138 337.659L193.117 337.616L193.096 337.574L193.063 337.507C193.063 337.507 193.123 337.627 193.053 337.489L193.032 337.446L193.011 337.403L192.967 337.317L192.946 337.273L192.924 337.229L192.902 337.186L192.88 337.142L192.858 337.098L192.836 337.054L192.814 337.009L192.791 336.965L192.769 336.92L192.747 336.875L192.702 336.785L192.656 336.695L192.611 336.603L192.588 336.558L192.565 336.512L192.542 336.466L192.519 336.419L192.472 336.326L192.449 336.28L192.426 336.233L192.402 336.186L192.379 336.139L192.355 336.092L192.331 336.045L192.308 335.997L192.284 335.95L192.236 335.854L192.188 335.758L192.164 335.71L192.14 335.661L192.091 335.564L192.067 335.516L192.042 335.467L192.018 335.418L191.993 335.369L191.944 335.27L191.919 335.221L191.895 335.171L191.845 335.072L191.82 335.022L191.795 334.972L191.77 334.921L191.745 334.871L191.719 334.821L191.694 334.77L191.669 334.72L191.644 334.669L191.618 334.618L191.593 334.567L191.541 334.465L191.516 334.414L191.49 334.362L191.439 334.259L191.413 334.207L191.387 334.156L191.361 334.104L191.335 334.052L191.309 333.999L191.283 333.947L191.257 333.895L191.23 333.842L191.204 333.79L191.178 333.737L191.125 333.632L191.072 333.526L191.019 333.42L190.966 333.313L190.939 333.259L190.912 333.206L190.885 333.152L190.858 333.099L190.831 333.045L190.804 332.991L190.777 332.937L190.75 332.883L190.723 332.828L190.696 332.774L190.669 332.72L190.642 332.665L190.587 332.556L190.533 332.447L190.478 332.337L190.423 332.227L190.395 332.172L190.367 332.117L190.34 332.061L190.312 332.006L190.257 331.895L190.229 331.839L190.201 331.784L190.173 331.728L190.145 331.672L190.117 331.616L190.089 331.56L190.061 331.504L190.033 331.448L190.005 331.392L189.977 331.336L189.949 331.28L189.921 331.223L189.893 331.167L189.864 331.111L189.808 330.997L189.779 330.941L189.751 330.884L189.694 330.771L189.666 330.714L189.637 330.657L189.609 330.6L189.58 330.543L189.552 330.486L189.523 330.428L189.495 330.371L189.466 330.314L189.437 330.257L189.409 330.199L189.351 330.085L189.294 329.969L189.236 329.854L189.207 329.797L189.178 329.739L189.15 329.681L189.121 329.623L189.082 329.546L189.063 329.507L189.034 329.45L189.005 329.392L188.976 329.334L188.947 329.275L188.918 329.217L188.889 329.159L188.831 329.043L188.772 328.926L188.714 328.81L188.656 328.693L188.626 328.635L188.597 328.576L188.568 328.518L188.539 328.459L188.509 328.401L188.48 328.342L188.421 328.225L188.392 328.166L188.363 328.108L188.304 327.99L188.245 327.873L188.216 327.814L188.187 327.755L188.128 327.637L188.098 327.579L188.069 327.52L188.04 327.461L188.01 327.402L187.951 327.284L187.922 327.225L187.892 327.166L187.833 327.049L187.804 326.99L187.774 326.931L187.745 326.872L187.715 326.813L187.656 326.695L187.627 326.636L187.597 326.577L187.568 326.518L187.538 326.459L187.479 326.341L187.45 326.282L187.42 326.223L187.361 326.105L187.302 325.987L187.273 325.928L187.243 325.869L187.184 325.751L187.155 325.692L187.126 325.633L187.096 325.574L187.067 325.515L187.037 325.456L187.008 325.397L186.978 325.338L186.949 325.279L186.89 325.162L186.86 325.103L186.831 325.044L186.772 324.926L186.714 324.809L186.684 324.75L186.655 324.691L186.625 324.633L186.596 324.574L186.537 324.457L186.508 324.398L186.479 324.34L186.45 324.281L186.42 324.223L186.362 324.106L186.333 324.047L186.303 323.989L186.274 323.93L186.245 323.872L186.216 323.814L186.187 323.755L186.158 323.697L186.129 323.639L186.099 323.581L186.07 323.523L186.012 323.406L185.954 323.29L185.925 323.232L185.896 323.175L185.867 323.117L185.839 323.059L185.781 322.943L185.752 322.886L185.723 322.828L185.694 322.77L185.665 322.713L185.637 322.655L185.608 322.598L185.551 322.483L185.493 322.368L185.465 322.311L185.436 322.254L185.408 322.197L185.379 322.14L185.351 322.083L185.322 322.026L185.294 321.969L185.265 321.912L185.237 321.855L185.208 321.799L185.152 321.685L185.123 321.629L185.095 321.572L185.039 321.46L185.011 321.403L184.983 321.347L184.926 321.235L184.87 321.123L184.843 321.067L184.815 321.011L184.787 320.955L184.759 320.9C184.635 320.652 184.827 321.036 184.703 320.788L184.676 320.733L184.648 320.678L184.62 320.622L184.593 320.567L184.537 320.457L184.51 320.402L184.482 320.347L184.455 320.292L184.428 320.237L184.4 320.182L184.373 320.128L184.346 320.073L184.318 320.019L184.264 319.91L184.237 319.856L184.21 319.802L184.156 319.694L184.102 319.586L184.075 319.532L184.048 319.479L184.022 319.425L183.995 319.372L183.968 319.319L183.942 319.265L183.915 319.212L183.889 319.159L183.836 319.053L183.783 318.948L183.731 318.843L183.678 318.738L183.652 318.686L183.626 318.634L183.574 318.53L183.548 318.479L183.523 318.427L183.497 318.375L183.471 318.324L183.445 318.273L183.42 318.221L183.394 318.17L183.369 318.119L183.318 318.018L183.293 317.967L183.267 317.916L183.217 317.816L183.167 317.715L183.142 317.665L183.117 317.615L183.092 317.566L183.067 317.516L183.018 317.417L182.993 317.368L182.969 317.319L182.944 317.27L182.92 317.221L182.871 317.123L182.847 317.075L182.822 317.027L182.798 316.978L182.774 316.93L182.75 316.882L182.726 316.834L182.702 316.786L182.679 316.739L182.631 316.644L182.607 316.597L182.584 316.55L182.537 316.456L182.514 316.409L182.49 316.363L182.467 316.316L182.444 316.27L182.398 316.178L182.375 316.132L182.352 316.086L182.329 316.041L182.307 315.995L182.261 315.905L182.217 315.815L182.172 315.726L182.15 315.681L182.128 315.637L182.105 315.593L182.084 315.549L182.062 315.505L182.04 315.461L182.018 315.418L181.996 315.374L181.975 315.331L181.953 315.288L181.91 315.203L181.889 315.16L181.868 315.118L181.826 315.033L181.784 314.949L181.763 314.908L181.742 314.866L181.701 314.784L181.681 314.743L181.66 314.702L181.64 314.662L181.62 314.621L181.579 314.541L181.559 314.501L181.539 314.461L181.52 314.421C180.398 313.116 179.018 311.775 177.419 310.222L177.176 309.986C175.409 308.27 173.438 306.339 171.628 304.166C167.964 299.769 164.801 294.198 164.801 286.7C164.801 279.685 166.555 273.611 168.237 268.986C168.793 267.457 169.374 266.005 169.864 264.778C170.096 264.197 170.309 263.666 170.488 263.203C170.784 262.438 170.998 261.843 171.136 261.374C171.246 261.001 171.273 260.82 171.28 260.775L171.281 260.766C171.28 260.746 171.278 260.706 171.273 260.642C171.269 260.593 171.264 260.535 171.258 260.47C171.251 260.393 171.241 260.305 171.23 260.205C171.188 259.834 171.124 259.351 171.037 258.755C170.865 257.567 170.616 256.01 170.312 254.164C170.112 252.945 169.888 251.602 169.649 250.165C169.168 247.279 168.624 244.017 168.082 240.632C166.473 230.575 164.801 218.962 164.801 212.172C164.801 208.657 165.652 201.328 166.91 192.525C168.182 183.622 169.909 172.954 171.736 162.599C173.563 152.247 175.496 142.175 177.179 134.471C178.02 130.626 178.807 127.328 179.497 124.866C179.84 123.641 180.174 122.566 180.494 121.714C180.653 121.289 180.828 120.868 181.02 120.489C181.181 120.17 181.478 119.625 181.952 119.151ZM186.816 123.388C186.828 123.369 186.833 123.36 186.833 123.36C186.833 123.36 186.823 123.376 186.816 123.388ZM379.184 123.388C379.173 123.369 379.167 123.36 379.167 123.36L379.17 123.366L379.184 123.388Z" fill="white"/>
<path fill-rule="evenodd" clip-rule="evenodd" d="M283 126.729C290.736 126.729 297.007 133 297.007 140.736V157.718H313.989C321.725 157.718 327.996 163.989 327.996 171.725C327.996 179.461 321.725 185.732 313.989 185.732H297.007V202.714C297.007 210.45 290.736 216.721 283 216.721C275.264 216.721 268.993 210.45 268.993 202.714V185.732H252.011C244.275 185.732 238.004 179.461 238.004 171.725C238.004 163.989 244.275 157.718 252.011 157.718H268.993V140.736C268.993 133 275.264 126.729 283 126.729Z" fill="#F2F5FA"/>
</g>
<defs>
<clipPath id="clip0_686_29024">
<rect width="566" height="566" fill="white"/>
</clipPath>
</defs>
</svg>
