<svg width="114" height="68" viewBox="0 0 114 68" fill="none" xmlns="http://www.w3.org/2000/svg">
<path d="M20.6333 28.6992H22.6999V34.6503H24.7105V28.6992H26.7771V34.6503H28.7876V28.6992H30.8542V36.4854H20.6339V28.6992H20.6333Z" fill="#0F384A"/>
<path d="M32.3271 28.6992H34.3938V31.6471H35.3766L37.1526 28.6992H39.4425L36.9849 32.4923L39.5541 36.4854H37.2643L35.3654 33.4822H34.3938V36.4854H32.3271V28.6992Z" fill="#0F384A"/>
<path d="M43.6194 28.5332C46.412 28.5332 47.8082 30.4242 47.8082 32.5933C47.8082 34.7625 46.412 36.6535 43.6194 36.6535C40.8269 36.6535 39.4307 34.7625 39.4307 32.5933C39.4307 30.4242 40.8269 28.5332 43.6194 28.5332ZM43.6194 30.4242C42.2681 30.4242 41.5528 31.3476 41.5528 32.5933C41.5528 33.8391 42.2675 34.7625 43.6194 34.7625C44.9708 34.7625 45.6861 33.8391 45.6861 32.5933C45.6861 31.347 44.9714 30.4242 43.6194 30.4242Z" fill="#0F384A"/>
<path d="M55.6825 36.486H53.6158V30.5349H51.929C51.6833 33.7275 51.2923 36.5748 49.0473 36.586C48.7567 36.586 48.433 36.5412 48.0869 36.4301V34.6391C48.2322 34.6838 48.4106 34.7056 48.6232 34.6838C49.8854 34.5503 49.8629 31.0578 50.0419 28.6992H55.6825V36.486Z" fill="#0F384A"/>
<path d="M59.5018 28.6992H61.7356L64.8075 36.4854H62.6853L62.2388 35.262H58.9998L58.5533 36.4854H56.4312L59.5018 28.6992ZM61.6239 33.5934L60.8201 31.3466C60.7528 31.1571 60.686 30.9683 60.6187 30.5566C60.552 30.9683 60.4846 31.1571 60.4179 31.3466L59.6134 33.5934H61.6239Z" fill="#0F384A"/>
<path d="M20.6334 39.1289H27.6702V46.9151H25.6036V40.964H22.6995V46.9151H20.6328V39.1289H20.6334Z" fill="#0F384A"/>
<path d="M35.6447 41.798C35.6447 43.8448 34.1705 44.4565 32.2379 44.4677H31.2102V46.9151H29.1436V39.1289H32.2379C34.1705 39.1289 35.6447 39.7518 35.6447 41.798ZM32.3389 40.9081H31.2108V42.6879H32.3389C32.9644 42.6879 33.5232 42.4985 33.5232 41.798C33.5225 41.0975 32.9644 40.9081 32.3389 40.9081Z" fill="#0F384A"/>
<path d="M38.2245 39.1289H40.4582L43.5301 46.9151H41.408L40.9615 45.6917H37.7224L37.2759 46.9151H35.1538L38.2245 39.1289ZM40.3472 44.023L39.5434 41.7762C39.476 41.5868 39.4093 41.3981 39.342 40.9863C39.2752 41.3981 39.2079 41.5868 39.1412 41.7762L38.3367 44.023H40.3472Z" fill="#0F384A"/>
<path d="M44.2783 39.1289H46.345V42.0768H47.3278L49.1038 39.1289H51.3937L48.936 42.922L51.5053 46.9151H49.2154L47.3165 43.9119H46.345V46.9151H44.2783V39.1289Z" fill="#0F384A"/>
<path d="M58.0504 40.964H55.8497V46.9151H53.7831V40.964H51.5718V39.1289H58.0504V40.964Z" fill="#0F384A"/>
<path d="M63.9029 43.7336C63.9029 43.3107 63.9141 42.8214 63.9472 42.4544L60.8865 46.9151H58.9321V39.1289H60.9988V42.3103C60.9988 42.7444 60.9875 43.2337 60.9539 43.6007L64.0145 39.1289H65.9689V46.9151H63.9023V43.7336H63.9029Z" fill="#0F384A"/>
<path d="M71.7539 44.2677C71.1172 44.4571 70.503 44.5571 69.9442 44.5571C68.2468 44.5571 67.0962 43.6896 67.0962 41.8651V39.1289H69.1628V41.7539C69.1628 42.3879 69.7322 42.6997 70.4699 42.6997C70.8721 42.6997 71.3187 42.6109 71.7546 42.4326V39.1289H73.8212V46.9151H71.7546V44.2677H71.7539Z" fill="#0F384A"/>
<path d="M80.9244 40.9081H77.3611V42.0985H80.5895V43.8672H77.3611V45.1352H80.9911V46.9151H75.2944V39.1289H80.9244V40.9081Z" fill="#0F384A"/>
<path d="M85.95 38.9629C86.7432 38.9629 87.5358 39.1299 88.2174 39.4522V41.3991C87.7372 40.9985 87.0226 40.765 86.3073 40.765C85.0676 40.765 83.8384 41.4438 83.8384 43.1342C83.8384 44.6469 85.067 45.2698 86.2849 45.2698C87.0893 45.2698 87.8264 45.0251 88.2729 44.591V46.5932C87.5913 46.9155 86.8205 47.0825 85.9943 47.0825C83.8497 47.0825 81.7163 45.9144 81.7163 43.1335C81.7169 40.1974 83.8391 38.9629 85.95 38.9629Z" fill="#0F384A"/>
<path d="M89.4121 39.1289H91.4787V42.0768H92.4615L94.2376 39.1289H96.5275L94.0698 42.922L96.6391 46.9151H94.3492L92.4503 43.9119H91.4787V46.9151H89.4121V39.1289Z" fill="#0F384A"/>
<path d="M100.704 38.9629C103.497 38.9629 104.893 40.8538 104.893 43.023C104.893 45.1922 103.497 47.0831 100.704 47.0831C97.9119 47.0831 96.5156 45.1922 96.5156 43.023C96.5156 40.8538 97.9119 38.9629 100.704 38.9629ZM100.704 40.8538C99.3531 40.8538 98.6378 41.7773 98.6378 43.023C98.6378 44.2687 99.3524 45.1922 100.704 45.1922C102.056 45.1922 102.771 44.2687 102.771 43.023C102.771 41.7773 102.056 40.8538 100.704 40.8538Z" fill="#0F384A"/>
<path d="M110.946 43.7336C110.946 43.3107 110.958 42.8214 110.991 42.4544L107.931 46.9151H105.976V39.1289H108.042V42.3103C108.042 42.7444 108.031 43.2337 107.997 43.6007L111.058 39.1289H113.013V46.9151H110.946V43.7336Z" fill="#0F384A"/>
<path d="M24.743 49.0059C27.5355 49.0059 28.9317 50.8968 28.9317 53.066C28.9317 55.2352 27.5355 57.1261 24.743 57.1261C21.9505 57.1261 20.5542 55.2352 20.5542 53.066C20.5542 50.8968 21.9505 49.0059 24.743 49.0059ZM24.743 50.8968C23.3916 50.8968 22.6763 51.8203 22.6763 53.066C22.6763 54.3117 23.391 55.2352 24.743 55.2352C26.0943 55.2352 26.8096 54.3117 26.8096 53.066C26.8096 51.8203 26.0943 50.8968 24.743 50.8968Z" fill="#0F384A"/>
<path d="M37.0516 56.9581H34.9849V53.9884H32.0808V56.9581H30.0142V49.1719H32.0808V52.1527H34.9849V49.1719H37.0516V56.9581Z" fill="#0F384A"/>
<path d="M38.5249 49.1719H40.5915V52.1198H41.5743L43.3504 49.1719H45.6403L43.1826 52.965L45.7519 56.9581H43.462L41.5631 53.9549H40.5915V56.9581H38.5249V49.1719Z" fill="#0F384A"/>
<path d="M49.8177 49.0059C52.6102 49.0059 54.0065 50.8968 54.0065 53.066C54.0065 55.2352 52.6102 57.1261 49.8177 57.1261C47.0252 57.1261 45.6289 55.2352 45.6289 53.066C45.6289 50.8968 47.0252 49.0059 49.8177 49.0059ZM49.8177 50.8968C48.4663 50.8968 47.751 51.8203 47.751 53.066C47.751 54.3117 48.4657 55.2352 49.8177 55.2352C51.169 55.2352 51.8843 54.3117 51.8843 53.066C51.8843 51.8203 51.169 50.8968 49.8177 50.8968Z" fill="#0F384A"/>
<path d="M61.8807 56.9587H59.8141V51.0076H58.1272C57.8815 54.2002 57.4905 57.0475 55.2455 57.0586C54.9549 57.0586 54.6313 57.0139 54.2852 56.9027V55.1118C54.4305 55.1565 54.6088 55.1782 54.8215 55.1565C56.0836 55.023 56.0612 51.5305 56.2402 49.1719H61.8807V56.9587Z" fill="#0F384A"/>
<path d="M67.1517 49.0059C69.9442 49.0059 71.3404 50.8968 71.3404 53.066C71.3404 55.2352 69.9442 57.1261 67.1517 57.1261C64.3591 57.1261 62.9629 55.2352 62.9629 53.066C62.9629 50.8968 64.3591 49.0059 67.1517 49.0059ZM67.1517 50.8968C65.8003 50.8968 65.085 51.8203 65.085 53.066C65.085 54.3117 65.7997 55.2352 67.1517 55.2352C68.503 55.2352 69.2183 54.3117 69.2183 53.066C69.2183 51.8203 68.503 50.8968 67.1517 50.8968Z" fill="#0F384A"/>
<path d="M72.4233 49.1719H78.0645V51.007H74.49V56.9581H72.4233V49.1719Z" fill="#0F384A"/>
<path d="M83.8946 53.7766C83.8946 53.3537 83.9058 52.8644 83.9389 52.4974L80.8782 56.9581H78.9238V49.1719H80.9905V52.3533C80.9905 52.7874 80.9792 53.2767 80.9456 53.6437L84.0062 49.1719H85.9606V56.9581H83.894V53.7766H83.8946Z" fill="#0F384A"/>
<path d="M92.4049 53.7766C92.4049 53.3537 92.4161 52.8644 92.4491 52.4974L89.3885 56.9581H87.4341V49.1719H89.5007V52.3533C89.5007 52.7874 89.4895 53.2767 89.4558 53.6437L92.5165 49.1719H94.4709V56.9581H92.4042V53.7766H92.4049Z" fill="#0F384A"/>
<path d="M23.556 65.3632C23.556 65.1397 23.5616 64.8807 23.5797 64.6863L21.9602 67.0462H20.9263V62.9264H22.0195V64.6093C22.0195 64.8391 22.0132 65.0981 21.9958 65.2918L23.6153 62.9258H24.6492V67.0455H23.556V65.3632Z" fill="#ED3834"/>
<path d="M30.0146 67.0469H28.9214V64.8578L28.0353 66.2116H27.4085L26.5224 64.8522V67.0475H25.4292V62.9277H26.4631L27.7222 64.8578L28.9806 62.9277H30.0146V67.0469Z" fill="#ED3834"/>
<path d="M31.395 67.134C31.0757 67.134 30.792 66.9577 30.792 66.5515C30.792 66.1516 31.0757 65.9746 31.395 65.9746C31.7199 65.9746 31.998 66.151 31.998 66.5515C31.998 66.9577 31.7199 67.134 31.395 67.134Z" fill="#ED3834"/>
<path d="M34.8776 62.9277H36.0593L37.6844 67.0475H36.5619L36.3256 66.4004H34.6119L34.3756 67.0475H33.2524L34.8776 62.9277ZM36.0001 65.5167L35.5748 64.3281C35.5392 64.2281 35.5037 64.1281 35.4681 63.9102C35.4326 64.1281 35.397 64.2281 35.3615 64.3281L34.9362 65.5167H36.0001Z" fill="#ED3834"/>
<path d="M41.8035 67.0455H40.7103V65.4744H39.1738V67.0455H38.0806V62.9258H39.1738V64.5032H40.7103V62.9258H41.8035V67.0455Z" fill="#ED3834"/>
<path d="M42.3169 66.1054H42.7896C43.3215 65.164 43.4394 64.0164 43.4394 62.9277H46.394V66.1054H46.926V67.9001H45.9806V67.0469H43.2623V67.9001H42.3169V66.1054ZM43.9426 66.1054H45.3021V63.8984H44.4453C44.3854 64.7044 44.2675 65.5049 43.9426 66.1054Z" fill="#ED3834"/>
<path d="M50.9211 64.3386C50.9211 65.4216 50.141 65.7452 49.1189 65.7507H48.5751V67.0455H47.4819V62.9258H49.1189C50.141 62.9264 50.9211 63.2555 50.9211 64.3386ZM49.1719 63.8679H48.5751V64.8093H49.1719C49.503 64.8093 49.7986 64.7093 49.7986 64.3386C49.798 63.9678 49.5024 63.8679 49.1719 63.8679Z" fill="#ED3834"/>
<path d="M54.4188 63.8679H52.5336V64.4975H54.2417V65.4334H52.5336V66.1041H54.4543V67.0455H51.4404V62.9258H54.4188V63.8679Z" fill="#ED3834"/>
<path d="M55.8669 65.5583C55.3705 65.3757 55.0101 64.9932 55.0101 64.3461C55.0101 63.3165 55.8076 62.9277 56.7063 62.9277H58.4499V67.0475H57.3567V65.7055H56.9725L55.9972 67.0475H54.75L55.8669 65.5583ZM56.7175 64.8224H57.3561V63.8692H56.7175C56.3452 63.8692 56.1325 64.0281 56.1325 64.3461C56.1325 64.6641 56.3452 64.8224 56.7175 64.8224Z" fill="#ED3834"/>
<path d="M60.458 62.9277H64.1809V67.0475H63.0878V63.899H61.5512V67.0475H60.458V62.9277Z" fill="#ED3834"/>
<path d="M66.2019 62.9277H67.3837L69.0088 67.0475H67.8857L67.6493 66.4004H65.9356L65.6993 67.0475H64.5762L66.2019 62.9277ZM67.3244 65.5167L66.8991 64.3281C66.8636 64.2281 66.828 64.1281 66.7925 63.9102C66.7569 64.1281 66.7214 64.2281 66.6858 64.3281L66.2605 65.5167H67.3244Z" fill="#ED3834"/>
<path d="M72.72 63.9685C72.72 64.4218 72.5011 64.7217 72.1051 64.8627C72.5485 64.9919 72.8853 65.3098 72.8853 65.8805C72.8853 66.8164 71.9867 67.0455 71.2009 67.0455H69.4043V62.9258H71.272C72.1762 62.927 72.72 63.2562 72.72 63.9685ZM71.2365 65.3334H70.4919V66.1929H71.2365C71.5676 66.1929 71.7859 66.0867 71.7859 65.7631C71.7859 65.4396 71.5676 65.3334 71.2365 65.3334ZM71.1716 63.7803H70.4981V64.5391L71.1716 64.5454C71.461 64.5454 71.6268 64.3982 71.6268 64.1628C71.6268 63.9275 71.461 63.7803 71.1716 63.7803Z" fill="#ED3834"/>
<path d="M77.122 67.0455H76.0289V63.897H75.1365C75.0068 65.5862 74.7997 67.0927 73.6118 67.0983C73.4583 67.0983 73.2869 67.0747 73.1035 67.0157V66.0681C73.1802 66.0917 73.275 66.1035 73.3873 66.0917C74.0551 66.0209 74.0433 64.1734 74.1381 62.9258H77.1227V67.0455H77.122Z" fill="#ED3834"/>
<path d="M80.8807 63.8679H78.9955V64.4975H80.7036V65.4334H78.9955V66.1041H80.9162V67.0455H77.9023V62.9258H80.8807V63.8679Z" fill="#ED3834"/>
<path d="M85.2708 67.0455H84.1776V65.4744H82.641V67.0455H81.5479V62.9258H82.641V64.5032H84.1776V62.9258H85.2708V67.0455Z" fill="#ED3834"/>
<path d="M86.0508 62.9277H87.144V64.4871H87.664L88.6038 62.9277H89.8155L88.5153 64.9348L89.8747 67.0475H88.6631L87.6584 65.4583H87.1446V67.0475H86.0514V62.9277H86.0508Z" fill="#ED3834"/>
<path d="M92.0249 62.8379C93.5022 62.8379 94.2412 63.8383 94.2412 64.986C94.2412 66.1336 93.5022 67.134 92.0249 67.134C90.5476 67.134 89.8086 66.1336 89.8086 64.986C89.8086 63.8383 90.5476 62.8379 92.0249 62.8379ZM92.0249 63.8384C91.3096 63.8384 90.9317 64.3265 90.9317 64.986C90.9317 65.6449 91.3102 66.1336 92.0249 66.1336C92.7402 66.1336 93.1181 65.6449 93.1181 64.986C93.1181 64.3271 92.7402 63.8384 92.0249 63.8384Z" fill="#ED3834"/>
<path d="M112.287 36.7832H106.702V38.2481H112.287V36.7832Z" fill="#0F384A"/>
<path d="M26.6142 9.35023C26.8824 9.35023 27.105 9.35023 27.327 9.35023C29.5477 9.35085 31.7683 9.34961 33.989 9.35272C35.2194 9.35458 35.9035 10.0321 35.906 11.2455C35.9085 12.3162 35.9103 13.3861 35.906 14.4568C35.901 15.61 35.2562 16.2869 34.1025 16.2987C31.7777 16.3223 29.4523 16.3235 27.1268 16.3303C26.9672 16.331 26.8082 16.2999 26.6142 16.2794C26.6142 16.439 26.6142 16.5663 26.6142 16.6936C26.6155 19.046 26.6192 21.399 26.6173 23.7514C26.6167 24.9238 25.9825 25.5939 24.7927 25.6082C22.4666 25.6355 20.1399 25.6299 17.8139 25.6355C17.6648 25.6361 17.5158 25.6168 17.3274 25.6038C17.3274 25.7597 17.3274 25.8851 17.3274 26.0106C17.3237 28.3157 17.32 30.6215 17.315 32.9267C17.3125 34.237 16.6184 34.9207 15.2932 34.9213C14.3129 34.922 13.3314 34.8971 12.3523 34.9276C11.0465 34.9679 10.2645 34.1445 10.2888 32.8944C10.3331 30.6135 10.3006 28.3306 10.3006 26.0484C10.3006 25.9199 10.3006 25.7913 10.3006 25.6367C10.068 25.6367 9.85163 25.6367 9.63462 25.6367C7.39025 25.6367 5.14589 25.6429 2.90152 25.6336C1.67177 25.6286 0.999519 24.9561 0.984552 23.7271C0.97208 22.6801 0.973327 21.6331 0.983928 20.5867C0.997024 19.3317 1.66304 18.6653 2.91586 18.661C5.17208 18.6535 7.42829 18.6579 9.68451 18.6591C9.87159 18.6591 10.0587 18.6746 10.2333 18.6827C10.2607 18.6473 10.2875 18.6293 10.2875 18.6113C10.2857 17.3059 10.2782 16.0012 10.2794 14.6958C10.2807 13.4383 10.2514 12.1783 10.3094 10.9232C10.353 9.98366 11.0415 9.36827 11.9944 9.36206C14.4152 9.34591 16.8367 9.36019 19.2581 9.36206C19.3517 9.36206 19.4446 9.36206 19.5899 9.36206C19.5899 9.21115 19.5899 9.07515 19.5899 8.93915C19.5899 6.65696 19.5893 4.37537 19.5905 2.09318C19.5911 0.723244 20.254 0.068089 21.6397 0.064363C22.62 0.061879 23.6003 0.061879 24.5813 0.064363C25.9258 0.068089 26.6098 0.743748 26.613 2.08884C26.6186 4.38283 26.6142 6.67621 26.6142 8.9702C26.6142 9.08633 26.6142 9.20243 26.6142 9.35023ZM18.748 19.7856C19.3261 19.2211 19.9429 18.6274 20.5496 18.0244C21.0429 17.5345 21.0666 16.8588 20.6238 16.3421C20.2179 15.8683 19.4901 15.7776 18.9644 16.1701C18.7717 16.3142 18.6645 16.2968 18.4849 16.1614C17.991 15.7901 17.2894 15.8608 16.876 16.2962C16.4482 16.7464 16.392 17.4761 16.8254 17.9307C17.4328 18.5678 18.0914 19.1565 18.748 19.7856Z" fill="#ED3834"/>
</svg>
