<svg width="112" height="68" viewBox="0 0 112 68" fill="none" xmlns="http://www.w3.org/2000/svg">
<path d="M19.6025 28.7988H21.6696V34.7502H23.6805V28.7988H25.7475V34.7502H27.7584V28.7988H29.8254V36.5854H19.6032V28.7988H19.6025Z" fill="white"/>
<path d="M31.2988 28.7988H33.3659V31.7469H34.3488L36.1252 28.7988H38.4155L35.9574 32.5921L38.5272 36.5854H36.2369L34.3376 33.5821H33.3659V36.5854H31.2988V28.7988Z" fill="white"/>
<path d="M42.5934 28.6328C45.3864 28.6328 46.7829 30.5239 46.7829 32.6932C46.7829 34.8625 45.3864 36.7535 42.5934 36.7535C39.8003 36.7535 38.4038 34.8625 38.4038 32.6932C38.4038 30.5239 39.8003 28.6328 42.5934 28.6328ZM42.5934 30.5239C41.2418 30.5239 40.5263 31.4474 40.5263 32.6932C40.5263 33.939 41.2411 34.8624 42.5934 34.8624C43.945 34.8624 44.6604 33.939 44.6604 32.6932C44.6604 31.4474 43.9456 30.5239 42.5934 30.5239Z" fill="white"/>
<path d="M54.6585 36.586H52.5915V30.6346H50.9043C50.6585 33.8274 50.2675 36.6748 48.0221 36.686C47.7314 36.686 47.4077 36.6413 47.0615 36.5301V34.7391C47.2069 34.7838 47.3852 34.8055 47.5979 34.7838C48.8603 34.6503 48.8379 31.1575 49.0169 28.7988H54.6585V36.586Z" fill="white"/>
<path d="M58.479 28.7988H60.7131L63.7856 36.5854H61.6631L61.2165 35.362H57.9769L57.5303 36.5854H55.4077L58.479 28.7988ZM60.6015 33.6932L59.7975 31.4463C59.7301 31.2569 59.6634 31.0681 59.596 30.6564C59.5293 31.0681 59.4619 31.2569 59.3952 31.4463L58.5906 33.6932H60.6015Z" fill="white"/>
<path d="M19.6027 39.2285H26.6408V47.0151H24.5738V41.0637H21.6691V47.0151H19.6021V39.2285H19.6027Z" fill="white"/>
<path d="M34.6171 41.8977C34.6171 43.9447 33.1426 44.5564 31.2097 44.5676H30.1818V47.0151H28.1147V39.2285H31.2097C33.1426 39.2279 34.6171 39.8508 34.6171 41.8977ZM31.3107 41.0078H30.1824V42.7877H31.3107C31.9363 42.7877 32.4952 42.5983 32.4952 41.8977C32.4945 41.1966 31.9363 41.0078 31.3107 41.0078Z" fill="white"/>
<path d="M37.1972 39.2285H39.4314L42.5039 47.0151H40.3813L39.9347 45.7916H36.6951L36.2485 47.0151H34.126L37.1972 39.2285ZM39.3204 44.1229L38.5164 41.876C38.449 41.6866 38.3823 41.4978 38.3149 41.086C38.2482 41.4978 38.1808 41.6866 38.1141 41.876L37.3095 44.1229H39.3204Z" fill="white"/>
<path d="M43.2524 39.2285H45.3195V42.1766H46.3025L48.0788 39.2285H50.3692L47.911 43.0218L50.4808 47.0151H48.1905L46.2912 44.0118H45.3195V47.0151H43.2524V39.2285Z" fill="white"/>
<path d="M57.0268 41.0637H54.8256V47.0151H52.7586V41.0637H50.5469V39.2285H57.0268V41.0637Z" fill="white"/>
<path d="M62.8804 43.8335C62.8804 43.4106 62.8916 42.9212 62.9247 42.5542L59.8635 47.0151H57.9087V39.2285H59.9757V42.4101C59.9757 42.8442 59.9645 43.3336 59.9308 43.7006L62.9921 39.2285H64.9468V47.0151H62.8798V43.8335H62.8804Z" fill="white"/>
<path d="M70.7328 44.3676C70.096 44.557 69.4816 44.657 68.9228 44.657C67.225 44.657 66.0742 43.7894 66.0742 41.9648V39.2285H68.1413V41.8536C68.1413 42.4877 68.7107 42.7995 69.4486 42.7995C69.8509 42.7995 70.2975 42.7107 70.7335 42.5324V39.2285H72.8005V47.0151H70.7335V44.3676H70.7328Z" fill="white"/>
<path d="M79.9049 41.0078H76.3409V42.1983H79.57V43.967H76.3409V45.2352H79.9716V47.0151H74.2739V39.2285H79.9049V41.0078Z" fill="white"/>
<path d="M84.9317 39.0605C85.7251 39.0605 86.5179 39.2276 87.1996 39.5499V41.4969C86.7193 41.0963 86.0045 40.8628 85.2891 40.8628C84.0492 40.8628 82.8198 41.5416 82.8198 43.2321C82.8198 44.7449 84.0485 45.3678 85.2667 45.3678C86.0713 45.3678 86.8085 45.1231 87.2551 44.689V46.6912C86.5734 47.0136 85.8024 47.1806 84.976 47.1806C82.831 47.1806 80.6973 46.0125 80.6973 43.2314C80.6979 40.2952 82.8204 39.0605 84.9317 39.0605Z" fill="white"/>
<path d="M88.3945 39.2285H90.4616V42.1766H91.4445L93.2209 39.2285H95.5112L93.0531 43.0218L95.6229 47.0151H93.3326L91.4333 44.0118H90.4616V47.0151H88.3945V39.2285Z" fill="white"/>
<path d="M99.6891 39.0605C102.482 39.0605 103.879 40.9516 103.879 43.1209C103.879 45.2902 102.482 47.1812 99.6891 47.1812C96.896 47.1812 95.4995 45.2902 95.4995 43.1209C95.4995 40.9516 96.896 39.0605 99.6891 39.0605ZM99.6891 40.9516C98.3375 40.9516 97.6221 41.8751 97.6221 43.1209C97.6221 44.3667 98.3368 45.2902 99.6891 45.2902C101.041 45.2902 101.756 44.3667 101.756 43.1209C101.756 41.8751 101.041 40.9516 99.6891 40.9516Z" fill="white"/>
<path d="M109.933 43.8335C109.933 43.4106 109.944 42.9212 109.978 42.5542L106.917 47.0151H104.961V39.2285H107.028V42.4101C107.028 42.8442 107.017 43.3336 106.984 43.7006L110.045 39.2285H112V47.0151H109.933V43.8335Z" fill="white"/>
<path d="M23.713 49.1055C26.506 49.1055 27.9026 50.9965 27.9026 53.1658C27.9026 55.3351 26.506 57.2262 23.713 57.2262C20.92 57.2262 19.5234 55.3351 19.5234 53.1658C19.5234 50.9965 20.92 49.1055 23.713 49.1055ZM23.713 50.9965C22.3614 50.9965 21.646 51.92 21.646 53.1658C21.646 54.4116 22.3608 55.3351 23.713 55.3351C25.0646 55.3351 25.78 54.4116 25.78 53.1658C25.78 51.92 25.0646 50.9965 23.713 50.9965Z" fill="white"/>
<path d="M36.0241 57.0581H33.9571V54.0883H31.0524V57.0581H28.9854V49.2715H31.0524V52.2525H33.9571V49.2715H36.0241V57.0581Z" fill="white"/>
<path d="M37.498 49.2715H39.5651V52.2196H40.5481L42.3244 49.2715H44.6148L42.1567 53.0648L44.7264 57.0581H42.4361L40.5368 54.0547H39.5651V57.0581H37.498V49.2715Z" fill="white"/>
<path d="M48.7921 49.1055C51.5852 49.1055 52.9817 50.9965 52.9817 53.1658C52.9817 55.3351 51.5852 57.2262 48.7921 57.2262C45.9991 57.2262 44.6025 55.3351 44.6025 53.1658C44.6025 50.9965 45.9991 49.1055 48.7921 49.1055ZM48.7921 50.9965C47.4405 50.9965 46.7251 51.92 46.7251 53.1658C46.7251 54.4116 47.4399 55.3351 48.7921 55.3351C50.1437 55.3351 50.8591 54.4116 50.8591 53.1658C50.8591 51.92 50.1437 50.9965 48.7921 50.9965Z" fill="white"/>
<path d="M60.8577 57.0587H58.7907V51.1073H57.1035C56.8578 54.3 56.4667 57.1475 54.2213 57.1587C53.9306 57.1587 53.6069 57.114 53.2607 57.0028V55.2117C53.4061 55.2564 53.5845 55.2782 53.7972 55.2564C55.0596 55.1229 55.0371 51.6302 55.2161 49.2715H60.8577V57.0587Z" fill="white"/>
<path d="M66.13 49.1055C68.923 49.1055 70.3195 50.9965 70.3195 53.1658C70.3195 55.3351 68.923 57.2262 66.13 57.2262C63.3369 57.2262 61.9404 55.3351 61.9404 53.1658C61.9404 50.9965 63.3369 49.1055 66.13 49.1055ZM66.13 50.9965C64.7784 50.9965 64.063 51.92 64.063 53.1658C64.063 54.4116 64.7778 55.3351 66.13 55.3351C67.4816 55.3351 68.197 54.4116 68.197 53.1658C68.197 51.92 67.4816 50.9965 66.13 50.9965Z" fill="white"/>
<path d="M71.4023 49.2715H77.0446V51.1067H73.4694V57.0581H71.4023V49.2715Z" fill="white"/>
<path d="M82.8755 53.8784C82.8755 53.4555 82.8867 52.9661 82.9198 52.5991L79.8586 57.06H77.9038V49.2734H79.9708V52.455C79.9708 52.8891 79.9596 53.3785 79.9259 53.7455L82.9872 49.2734H84.9419V57.06H82.8749V53.8784H82.8755Z" fill="white"/>
<path d="M91.3877 53.8784C91.3877 53.4555 91.399 52.9661 91.432 52.5991L88.3708 57.06H86.416V49.2734H88.483V52.455C88.483 52.8891 88.4718 53.3785 88.4381 53.7455L91.4994 49.2734H93.4541V57.06H91.3871V53.8784H91.3877Z" fill="white"/>
<path d="M22.5262 65.4643C22.5262 65.2407 22.5319 64.9818 22.5499 64.7874L20.9301 67.1473H19.896V63.028H20.9894V64.711C20.9894 64.9408 20.9832 65.1997 20.9657 65.3935L22.5855 63.0273H23.6196V67.1473H22.5262V65.4643Z" fill="white"/>
<path d="M28.9857 67.1467H27.8923V64.9575L27.006 66.3114H26.3791L25.4928 64.9519V67.1473H24.3994V63.0273H25.4335L26.6929 64.9575L27.9515 63.0273H28.9857V67.1467Z" fill="white"/>
<path d="M30.3663 67.2356C30.047 67.2356 29.7632 67.0593 29.7632 66.6531C29.7632 66.2532 30.047 66.0762 30.3663 66.0762C30.6913 66.0762 30.9695 66.2525 30.9695 66.6531C30.9695 67.0586 30.6913 67.2356 30.3663 67.2356Z" fill="white"/>
<path d="M33.85 63.0273H35.032L36.6574 67.1473H35.5347L35.2983 66.5002H33.5843L33.3479 67.1473H32.2246L33.85 63.0273ZM34.9727 65.6171L34.5474 64.4284C34.5118 64.3284 34.4763 64.2284 34.4407 64.0105C34.4052 64.2284 34.3696 64.3284 34.3341 64.4284L33.9087 65.6171H34.9727Z" fill="white"/>
<path d="M40.7769 67.1467H39.6835V65.5755H38.1466V67.1467H37.0532V63.0273H38.1466V64.6048H39.6835V63.0273H40.7769V67.1467Z" fill="white"/>
<path d="M41.29 66.2052H41.7628C42.2949 65.2637 42.4127 64.116 42.4127 63.0273H45.3679V66.2052H45.9V68H44.9544V67.1467H42.2356V68H41.29V66.2052ZM42.9161 66.2052H44.2758V63.998H43.4188C43.3589 64.8047 43.2411 65.6053 42.9161 66.2052Z" fill="white"/>
<path d="M49.8964 64.4396C49.8964 65.5227 49.1161 65.8462 48.0938 65.8518H47.5499V67.1467H46.4565V63.0273H48.0938C49.1161 63.0273 49.8964 63.3565 49.8964 64.4396ZM48.1468 63.9688H47.5499V64.9103H48.1468C48.478 64.9103 48.7737 64.8103 48.7737 64.4396C48.7731 64.0688 48.4774 63.9688 48.1468 63.9688Z" fill="white"/>
<path d="M53.3949 63.9688H51.5094V64.5986H53.2178V65.5345H51.5094V66.2052H53.4305V67.1467H50.416V63.0273H53.3949V63.9688Z" fill="white"/>
<path d="M54.8432 65.6581C54.3467 65.4755 53.9862 65.0929 53.9862 64.4458C53.9862 63.4161 54.7839 63.0273 55.6827 63.0273H57.4266V67.1473H56.3332V65.8052H55.949L54.9735 67.1473H53.7261L54.8432 65.6581ZM55.6939 64.9221H56.3326V63.9688H55.6939C55.3216 63.9688 55.1089 64.1278 55.1089 64.4458C55.1089 64.7632 55.3216 64.9221 55.6939 64.9221Z" fill="white"/>
<path d="M59.4351 63.0273H63.1587V67.1473H62.0653V63.9986H60.5285V67.1473H59.4351V63.0273Z" fill="white"/>
<path d="M65.1798 63.0273H66.3617L67.9872 67.1473H66.8638L66.6274 66.5002H64.9134L64.677 67.1473H63.5537L65.1798 63.0273ZM66.3025 65.6171L65.8771 64.4284C65.8415 64.3284 65.806 64.2284 65.7704 64.0105C65.7349 64.2284 65.6993 64.3284 65.6638 64.4284L65.2384 65.6171H66.3025Z" fill="white"/>
<path d="M71.6992 64.0688C71.6992 64.5222 71.4802 64.8221 71.0842 64.9631C71.5276 65.0923 71.8645 65.4103 71.8645 65.981C71.8645 66.9169 70.9657 67.1461 70.1798 67.1461H68.3828V63.0273H70.2509C71.1553 63.0273 71.6992 63.3565 71.6992 64.0688ZM70.2153 65.4345H69.4706V66.294H70.2153C70.5465 66.294 70.7648 66.1878 70.7648 65.8642C70.7648 65.5401 70.5465 65.4345 70.2153 65.4345ZM70.1505 63.8807H69.4768V64.6396L70.1505 64.6458C70.4399 64.6458 70.6058 64.4986 70.6058 64.2632C70.6058 64.0278 70.4399 63.8807 70.1505 63.8807Z" fill="white"/>
<path d="M76.1023 67.1473H75.0089V63.9986H74.1164C73.9866 65.6879 73.7795 67.1945 72.5913 67.2001C72.4379 67.2001 72.2664 67.1765 72.083 67.1175V66.1698C72.1597 66.1934 72.2545 66.2052 72.3668 66.1934C73.0348 66.1226 73.023 64.275 73.1178 63.0273H76.1029V67.1473H76.1023Z" fill="white"/>
<path d="M79.8612 63.9688H77.9757V64.5986H79.6841V65.5345H77.9757V66.2052H79.8968V67.1467H76.8823V63.0273H79.8612V63.9688Z" fill="white"/>
<path d="M84.2525 67.1467H83.1591V65.5755H81.6222V67.1467H80.5288V63.0273H81.6222V64.6048H83.1591V63.0273H84.2525V67.1467Z" fill="white"/>
<path d="M85.0327 63.0273H86.1261V64.5868H86.6463L87.5862 63.0273H88.7981L87.4977 65.0345L88.8574 67.1473H87.6455L86.6407 65.5581H86.1267V67.1473H85.0333V63.0273H85.0327Z" fill="white"/>
<path d="M91.0077 62.9395C92.4853 62.9395 93.2244 63.9399 93.2244 65.0876C93.2244 66.2353 92.4853 67.2358 91.0077 67.2358C89.5301 67.2358 88.791 66.2353 88.791 65.0876C88.791 63.9399 89.5301 62.9395 91.0077 62.9395ZM91.0077 63.9399C90.2923 63.9399 89.9143 64.4281 89.9143 65.0876C89.9143 65.7465 90.2929 66.2353 91.0077 66.2353C91.7231 66.2353 92.1011 65.7465 92.1011 65.0876C92.1011 64.4281 91.7231 63.9399 91.0077 63.9399Z" fill="white"/>
<path d="M111.274 36.8828H105.688V38.3478H111.274V36.8828Z" fill="white"/>
<path d="M25.6435 9.28825C25.9117 9.28825 26.1343 9.28825 26.3564 9.28825C28.5775 9.28887 30.7985 9.28763 33.0196 9.29073C34.2502 9.2926 34.9345 9.97015 34.937 11.1837C34.9395 12.2543 34.9413 13.3244 34.937 14.3951C34.932 15.5483 34.287 16.2253 33.1332 16.2371C30.8079 16.2613 28.482 16.2619 26.1562 16.2687C25.9965 16.2693 25.8374 16.2383 25.6435 16.2178C25.6435 16.3774 25.6435 16.5047 25.6435 16.632C25.6447 18.9845 25.6484 21.3376 25.6466 23.6901C25.6459 24.8627 25.0116 25.5328 23.8216 25.547C21.4951 25.5744 19.1679 25.5688 16.8414 25.5744C16.6924 25.575 16.5433 25.5557 16.3549 25.5427C16.3549 25.6986 16.3549 25.824 16.3549 25.9495C16.3512 28.2548 16.3475 30.5607 16.3425 32.866C16.34 34.1764 15.6458 34.8601 14.3203 34.8608C13.3399 34.8614 12.3581 34.8365 11.3789 34.867C10.0728 34.9073 9.29063 34.0838 9.31495 32.8337C9.35924 30.5526 9.3268 28.2697 9.3268 25.9874C9.3268 25.8588 9.3268 25.7302 9.3268 25.5756C9.09415 25.5756 8.87772 25.5756 8.66066 25.5756C6.41588 25.5756 4.17109 25.5818 1.9263 25.5725C0.696317 25.5675 0.0239336 24.8949 0.0089642 23.6659C-0.00351031 22.6188 -0.00225585 21.5718 0.00834748 20.5253C0.0214457 19.2702 0.687583 18.6038 1.94065 18.5995C4.19729 18.592 6.45392 18.5964 8.71056 18.5976C8.89767 18.5976 9.0848 18.6131 9.25944 18.6212C9.28688 18.5858 9.3137 18.5678 9.3137 18.5498C9.31183 17.2444 9.30435 15.9396 9.30559 14.6342C9.30684 13.3766 9.27752 12.1165 9.33553 10.8613C9.37919 9.92171 10.0678 9.30626 11.0208 9.30005C13.4421 9.28391 15.8641 9.29819 18.286 9.30005C18.3795 9.30005 18.4725 9.30005 18.6178 9.30005C18.6178 9.14914 18.6178 9.01313 18.6178 8.87712C18.6178 6.5948 18.6172 4.31311 18.6184 2.03079C18.6191 0.66078 19.2821 0.00558935 20.668 0.00186312C21.6485 -0.000621039 22.629 -0.000621039 23.6101 0.00186312C24.9549 0.00558935 25.6391 0.681278 25.6422 2.02645C25.6478 4.32056 25.6435 6.61406 25.6435 8.90817C25.6435 9.02431 25.6435 9.14044 25.6435 9.28825ZM17.7764 19.7242C18.3546 19.1597 18.9715 18.5659 19.5783 17.9629C20.0717 17.4729 20.0954 16.7972 19.6526 16.2805C19.2465 15.8067 18.5186 15.716 17.9928 16.1085C17.8001 16.2526 17.6928 16.2352 17.5132 16.0998C17.0192 15.7284 16.3175 15.7992 15.904 16.2346C15.4761 16.6848 15.42 17.4145 15.8535 17.8691C16.4603 18.5063 17.119 19.0951 17.7764 19.7242Z" fill="#ED3834"/>
</svg>
