<svg width="48" height="49" viewBox="0 0 48 49" fill="none" xmlns="http://www.w3.org/2000/svg">
<path d="M13.0013 20.5C12.391 20.5 11.8748 19.949 12.1424 19.4006C12.1639 19.3566 12.1861 19.313 12.2093 19.27C12.4373 18.654 12.7933 18.12 13.1473 17.582C13.4433 17 13.9653 16.606 14.3493 16.108C14.7513 15.624 15.2993 15.302 15.7333 14.9C16.1593 14.48 16.7173 14.27 17.1613 13.974C17.6253 13.708 18.0293 13.414 18.4613 13.274L19.5393 12.83L19.6919 12.7666C20.149 12.5766 20.3983 12.0807 20.2781 11.6004L19.758 9.52184C19.6247 8.9893 19.0871 8.66377 18.5534 8.79248L18.3233 8.848C17.9413 8.944 17.4753 9.056 16.9453 9.19C16.4033 9.29 15.8253 9.564 15.1813 9.814C14.5453 10.098 13.8093 10.29 13.1253 10.746C12.4373 11.182 11.6433 11.546 10.9433 12.13C10.2653 12.732 9.44727 13.254 8.84327 14.02C8.18327 14.736 7.53127 15.488 7.02527 16.344C6.43927 17.16 6.04127 18.056 5.62127 18.942C5.24127 19.828 4.93527 20.734 4.68527 21.614C4.21127 23.378 3.99927 25.054 3.91727 26.488C3.84927 27.924 3.88927 29.118 3.97327 29.982C4.00327 30.39 4.05927 30.786 4.09927 31.06L4.14522 31.3688C4.1474 31.3834 4.16163 31.3931 4.17609 31.3898C4.18993 31.3866 4.2037 31.3954 4.20672 31.4093C4.56531 33.0611 5.3819 34.5788 6.56319 35.7884C7.75051 37.0041 9.25775 37.8588 10.9105 38.2536C12.5633 38.6485 14.2942 38.5674 15.9028 38.0197C17.5114 37.4719 18.9321 36.48 20.0005 35.1586C21.0689 33.8371 21.7414 32.2402 21.9401 30.5526C22.1388 28.8649 21.8557 27.1555 21.1235 25.622C20.3913 24.0886 19.2399 22.7937 17.8026 21.8873C16.3652 20.9809 14.7006 20.4999 13.0013 20.5ZM35.0013 20.5C34.391 20.5 33.8748 19.949 34.1424 19.4006C34.1639 19.3566 34.1861 19.313 34.2093 19.27C34.4373 18.654 34.7933 18.12 35.1473 17.582C35.4433 17 35.9653 16.606 36.3493 16.108C36.7513 15.624 37.2993 15.302 37.7333 14.9C38.1593 14.48 38.7173 14.27 39.1613 13.974C39.6253 13.708 40.0293 13.414 40.4613 13.274L41.5393 12.83L41.6918 12.7666C42.149 12.5766 42.3983 12.0807 42.2781 11.6004L41.758 9.52183C41.6247 8.9893 41.0871 8.66377 40.5534 8.79248L40.3233 8.848C39.9413 8.944 39.4753 9.056 38.9453 9.19C38.4033 9.29 37.8253 9.564 37.1813 9.814C36.5473 10.1 35.8093 10.29 35.1253 10.748C34.4373 11.184 33.6433 11.548 32.9433 12.132C32.2653 12.734 31.4473 13.256 30.8433 14.02C30.1833 14.736 29.5313 15.488 29.0253 16.344C28.4393 17.16 28.0413 18.056 27.6213 18.942C27.2413 19.828 26.9353 20.734 26.6853 21.614C26.2113 23.378 25.9993 25.054 25.9173 26.488C25.8493 27.924 25.8893 29.118 25.9733 29.982C26.0033 30.39 26.0593 30.786 26.0993 31.06L26.1452 31.3688C26.1474 31.3834 26.1616 31.3931 26.1761 31.3898C26.1899 31.3866 26.2037 31.3954 26.2067 31.4093C26.5653 33.0611 27.3819 34.5788 28.5632 35.7884C29.7505 37.0041 31.2577 37.8588 32.9105 38.2536C34.5633 38.6485 36.2942 38.5674 37.9028 38.0197C39.5114 37.4719 40.9321 36.48 42.0005 35.1586C43.0689 33.8371 43.7414 32.2402 43.9401 30.5526C44.1388 28.8649 43.8557 27.1555 43.1235 25.622C42.3913 24.0886 41.2399 22.7937 39.8026 21.8873C38.3652 20.9809 36.7006 20.4999 35.0013 20.5Z" fill="#FEECEB"/>
</svg>
