<svg width="48" height="48" viewBox="0 0 48 48" fill="none" xmlns="http://www.w3.org/2000/svg">
<path d="M13.0013 20C12.391 20 11.8748 19.449 12.1424 18.9006C12.1639 18.8566 12.1861 18.813 12.2093 18.77C12.4373 18.154 12.7933 17.62 13.1473 17.082C13.4433 16.5 13.9653 16.106 14.3493 15.608C14.7513 15.124 15.2993 14.802 15.7333 14.4C16.1593 13.98 16.7173 13.77 17.1613 13.474C17.6253 13.208 18.0293 12.914 18.4613 12.774L19.5393 12.33L19.6919 12.2666C20.149 12.0766 20.3983 11.5807 20.2781 11.1004L19.758 9.02184C19.6247 8.4893 19.0871 8.16377 18.5534 8.29248L18.3233 8.348C17.9413 8.444 17.4753 8.556 16.9453 8.69C16.4033 8.79 15.8253 9.064 15.1813 9.314C14.5453 9.598 13.8093 9.79 13.1253 10.246C12.4373 10.682 11.6433 11.046 10.9433 11.63C10.2653 12.232 9.44727 12.754 8.84327 13.52C8.18327 14.236 7.53127 14.988 7.02527 15.844C6.43927 16.66 6.04127 17.556 5.62127 18.442C5.24127 19.328 4.93527 20.234 4.68527 21.114C4.21127 22.878 3.99927 24.554 3.91727 25.988C3.84927 27.424 3.88927 28.618 3.97327 29.482C4.00327 29.89 4.05927 30.286 4.09927 30.56L4.14522 30.8688C4.1474 30.8834 4.16163 30.8931 4.17609 30.8898C4.18993 30.8866 4.2037 30.8954 4.20672 30.9093C4.56531 32.5611 5.3819 34.0788 6.56319 35.2884C7.75051 36.5041 9.25775 37.3588 10.9105 37.7536C12.5633 38.1485 14.2942 38.0674 15.9028 37.5197C17.5114 36.9719 18.9321 35.98 20.0005 34.6586C21.0689 33.3371 21.7414 31.7402 21.9401 30.0526C22.1388 28.3649 21.8557 26.6555 21.1235 25.122C20.3913 23.5886 19.2399 22.2937 17.8026 21.3873C16.3652 20.4809 14.7006 19.9999 13.0013 20ZM35.0013 20C34.391 20 33.8748 19.449 34.1424 18.9006C34.1639 18.8566 34.1861 18.813 34.2093 18.77C34.4373 18.154 34.7933 17.62 35.1473 17.082C35.4433 16.5 35.9653 16.106 36.3493 15.608C36.7513 15.124 37.2993 14.802 37.7333 14.4C38.1593 13.98 38.7173 13.77 39.1613 13.474C39.6253 13.208 40.0293 12.914 40.4613 12.774L41.5393 12.33L41.6918 12.2666C42.149 12.0766 42.3983 11.5807 42.2781 11.1004L41.758 9.02183C41.6247 8.4893 41.0871 8.16377 40.5534 8.29248L40.3233 8.348C39.9413 8.444 39.4753 8.556 38.9453 8.69C38.4033 8.79 37.8253 9.064 37.1813 9.314C36.5473 9.6 35.8093 9.79 35.1253 10.248C34.4373 10.684 33.6433 11.048 32.9433 11.632C32.2653 12.234 31.4473 12.756 30.8433 13.52C30.1833 14.236 29.5313 14.988 29.0253 15.844C28.4393 16.66 28.0413 17.556 27.6213 18.442C27.2413 19.328 26.9353 20.234 26.6853 21.114C26.2113 22.878 25.9993 24.554 25.9173 25.988C25.8493 27.424 25.8893 28.618 25.9733 29.482C26.0033 29.89 26.0593 30.286 26.0993 30.56L26.1452 30.8688C26.1474 30.8834 26.1616 30.8931 26.1761 30.8898C26.1899 30.8866 26.2037 30.8954 26.2067 30.9093C26.5653 32.5611 27.3819 34.0788 28.5632 35.2884C29.7505 36.5041 31.2577 37.3588 32.9105 37.7536C34.5633 38.1485 36.2942 38.0674 37.9028 37.5197C39.5114 36.9719 40.9321 35.98 42.0005 34.6586C43.0689 33.3371 43.7414 31.7402 43.9401 30.0526C44.1388 28.3649 43.8557 26.6555 43.1235 25.122C42.3913 23.5886 41.2399 22.2937 39.8026 21.3873C38.3652 20.4809 36.7006 19.9999 35.0013 20Z" fill="#ED3834"/>
</svg>
