<svg width="288" height="120" viewBox="0 0 288 120" fill="none" xmlns="http://www.w3.org/2000/svg">
<path d="M139.618 69.879C139.618 68.7085 140.572 67.7588 141.745 67.7588C142.919 67.7588 143.87 68.7085 143.87 69.879C143.87 71.0542 142.919 72.0068 141.745 72.0068C140.572 72.0059 139.618 71.0542 139.618 69.879ZM175.485 66.4326H170.018V59.5416H175.581C177.306 59.5416 178.84 61.0742 178.84 62.8925C178.84 64.9974 177.21 66.4326 175.485 66.4326ZM176.442 79.9287H170.018V72.7502H176.442C178.548 72.7502 180.184 74.2809 180.184 76.2921C180.184 78.4916 178.649 79.9287 176.442 79.9287ZM177.785 86.7231C184.592 86.7231 188.716 82.8018 188.716 76.6734C188.716 73.0349 186.896 70.071 183.539 68.634C186.127 66.9113 186.705 64.4232 186.705 61.8377C186.705 55.9041 182.195 52.9345 175.869 52.9345H156.601V59.5416H162.163V79.9287H156.601V86.7221L177.785 86.7231ZM134.55 52.9345H121.705V66.4326H113.938V52.9345H101.093V59.5416H106.652V79.9287H101.093V86.7221H113.938V72.7502H121.705V86.7221H134.55V79.9287H129.181V59.5416H134.55V52.9345ZM191.684 68.4419C194.176 70.2592 196 73.4209 196 77.0594C196 82.6078 194.271 85.9577 191.208 89.022C188.139 92.0871 183.058 94 177.02 94H149.504V86.0858C153.812 84.4901 156.881 80.35 156.881 75.4972C156.881 70.6424 153.812 66.4994 149.504 64.9038V39.7289H156.599V46.0446H163.597V33.9845H127.552V46.0446H134.551V39.7289H141.642V64.8971C137.333 66.4928 134.261 70.6367 134.261 75.4962C134.261 80.351 137.333 84.4939 141.642 86.0867V93.999H94V72.7521H99.6546V66.4345H94V45.6643H120.266V27H171.078V45.6643H174.624C179.893 45.6643 184.972 46.9074 188.232 49.3008C191.784 51.8854 193.988 55.715 193.988 60.9806C193.985 63.1763 193.504 66.4326 191.684 68.4419Z" fill="#577481"/>
</svg>
