<svg width="288" height="120" viewBox="0 0 288 120" fill="none" xmlns="http://www.w3.org/2000/svg">
<path d="M203.756 92.7148C202.854 92.7148 202.044 92.5716 201.328 92.2852C200.612 91.9915 200.003 91.5869 199.502 91.0713C199.008 90.5557 198.628 89.9577 198.363 89.2773C198.098 88.5898 197.966 87.8594 197.966 87.0859V86.6562C197.966 85.7754 198.091 84.9697 198.342 84.2393C198.592 83.5088 198.951 82.875 199.416 82.3379C199.889 81.8008 200.462 81.389 201.135 81.1025C201.808 80.8089 202.567 80.6621 203.412 80.6621C204.236 80.6621 204.966 80.7982 205.604 81.0703C206.241 81.3424 206.774 81.7292 207.204 82.2305C207.641 82.7318 207.97 83.3333 208.192 84.0352C208.414 84.7298 208.525 85.5033 208.525 86.3555V87.6445H199.287V85.582H205.485V85.3457C205.485 84.916 205.407 84.5329 205.249 84.1963C205.099 83.8525 204.869 83.5804 204.562 83.3799C204.254 83.1794 203.86 83.0791 203.38 83.0791C202.972 83.0791 202.621 83.1686 202.327 83.3477C202.034 83.5267 201.794 83.7773 201.607 84.0996C201.428 84.4219 201.292 84.8014 201.199 85.2383C201.113 85.668 201.07 86.1406 201.07 86.6562V87.0859C201.07 87.5514 201.135 87.9811 201.264 88.375C201.4 88.7689 201.59 89.109 201.833 89.3955C202.084 89.682 202.384 89.904 202.735 90.0615C203.093 90.2191 203.498 90.2979 203.949 90.2979C204.508 90.2979 205.027 90.1904 205.507 89.9756C205.994 89.7536 206.413 89.4206 206.764 88.9766L208.268 90.6094C208.024 90.9603 207.691 91.2969 207.269 91.6191C206.853 91.9414 206.352 92.2064 205.765 92.4141C205.177 92.6146 204.508 92.7148 203.756 92.7148Z" fill="#577481"/>
<path d="M193.905 85.5713V87.9775H187.997V85.5713H193.905ZM189.028 80.877V92.5H185.935V80.877H189.028ZM196 80.877V92.5H192.896V80.877H196Z" fill="#577481"/>
<path d="M173.033 86.8066V86.5811C173.033 85.7288 173.155 84.9447 173.398 84.2285C173.642 83.5052 173.996 82.8786 174.462 82.3486C174.927 81.8187 175.5 81.4069 176.181 81.1133C176.861 80.8125 177.642 80.6621 178.522 80.6621C179.403 80.6621 180.188 80.8125 180.875 81.1133C181.562 81.4069 182.139 81.8187 182.604 82.3486C183.077 82.8786 183.435 83.5052 183.679 84.2285C183.922 84.9447 184.044 85.7288 184.044 86.5811V86.8066C184.044 87.6517 183.922 88.4359 183.679 89.1592C183.435 89.8753 183.077 90.502 182.604 91.0391C182.139 91.569 181.566 91.9808 180.886 92.2744C180.205 92.568 179.425 92.7148 178.544 92.7148C177.663 92.7148 176.879 92.568 176.191 92.2744C175.511 91.9808 174.935 91.569 174.462 91.0391C173.996 90.502 173.642 89.8753 173.398 89.1592C173.155 88.4359 173.033 87.6517 173.033 86.8066ZM176.127 86.5811V86.8066C176.127 87.2936 176.17 87.7484 176.256 88.1709C176.342 88.5934 176.478 88.9658 176.664 89.2881C176.857 89.6032 177.108 89.8503 177.416 90.0293C177.724 90.2083 178.1 90.2979 178.544 90.2979C178.974 90.2979 179.342 90.2083 179.65 90.0293C179.958 89.8503 180.205 89.6032 180.392 89.2881C180.578 88.9658 180.714 88.5934 180.8 88.1709C180.893 87.7484 180.939 87.2936 180.939 86.8066V86.5811C180.939 86.1084 180.893 85.6644 180.8 85.249C180.714 84.8265 180.574 84.4541 180.381 84.1318C180.195 83.8024 179.948 83.5446 179.64 83.3584C179.332 83.1722 178.959 83.0791 178.522 83.0791C178.086 83.0791 177.713 83.1722 177.405 83.3584C177.104 83.5446 176.857 83.8024 176.664 84.1318C176.478 84.4541 176.342 84.8265 176.256 85.249C176.17 85.6644 176.127 86.1084 176.127 86.5811Z" fill="#577481"/>
<path d="M168.865 80.877V83.3047H163.15V80.877H168.865ZM171.132 80.877V92.5H168.038V80.877H171.132ZM162.377 80.877H165.417L165.105 86.7422C165.062 87.5801 164.973 88.3177 164.837 88.9551C164.701 89.5924 164.518 90.1367 164.289 90.5879C164.067 91.0391 163.799 91.4079 163.483 91.6943C163.175 91.9736 162.814 92.1777 162.398 92.3066C161.99 92.4355 161.539 92.5 161.045 92.5H160.1L160.067 90.0615L160.465 90.0186C160.694 89.9971 160.895 89.9326 161.066 89.8252C161.245 89.7106 161.396 89.5495 161.518 89.3418C161.646 89.127 161.754 88.8584 161.84 88.5361C161.926 88.2067 161.994 87.82 162.044 87.376C162.101 86.932 162.141 86.4199 162.162 85.8398L162.377 80.877Z" fill="#577481"/>
<path d="M156.308 80.877V92.5H153.203V80.877H156.308ZM160.046 80.877V83.2725H149.519V80.877H160.046Z" fill="#577481"/>
<path d="M145.061 89.8789V84.7012C145.061 84.3288 145 84.0101 144.878 83.7451C144.756 83.473 144.566 83.2617 144.309 83.1113C144.058 82.9609 143.732 82.8857 143.331 82.8857C142.987 82.8857 142.69 82.9466 142.439 83.0684C142.189 83.1829 141.995 83.3512 141.859 83.5732C141.723 83.7881 141.655 84.0423 141.655 84.3359H138.562C138.562 83.8418 138.676 83.3727 138.905 82.9287C139.134 82.4847 139.467 82.0944 139.904 81.7578C140.341 81.4141 140.86 81.1455 141.462 80.9521C142.071 80.7588 142.751 80.6621 143.503 80.6621C144.405 80.6621 145.207 80.8125 145.909 81.1133C146.611 81.4141 147.162 81.8652 147.563 82.4668C147.972 83.0684 148.176 83.8203 148.176 84.7227V89.6963C148.176 90.3337 148.215 90.8564 148.294 91.2646C148.373 91.6657 148.487 92.0166 148.638 92.3174V92.5H145.512C145.361 92.1849 145.247 91.791 145.168 91.3184C145.096 90.8385 145.061 90.3587 145.061 89.8789ZM145.469 85.4209L145.49 87.1719H143.761C143.353 87.1719 142.998 87.2184 142.697 87.3115C142.396 87.4046 142.149 87.5371 141.956 87.709C141.763 87.8737 141.619 88.0671 141.526 88.2891C141.44 88.5111 141.397 88.7546 141.397 89.0195C141.397 89.2845 141.458 89.5244 141.58 89.7393C141.702 89.9469 141.877 90.1117 142.106 90.2334C142.336 90.348 142.604 90.4053 142.912 90.4053C143.378 90.4053 143.782 90.3122 144.126 90.126C144.47 89.9398 144.735 89.7106 144.921 89.4385C145.114 89.1663 145.215 88.9085 145.222 88.665L146.038 89.9756C145.924 90.2692 145.766 90.5736 145.565 90.8887C145.372 91.2038 145.125 91.501 144.824 91.7803C144.523 92.0524 144.162 92.278 143.739 92.457C143.317 92.6289 142.815 92.7148 142.235 92.7148C141.498 92.7148 140.828 92.568 140.227 92.2744C139.632 91.9736 139.16 91.5618 138.809 91.0391C138.465 90.5091 138.293 89.9076 138.293 89.2344C138.293 88.6257 138.408 88.085 138.637 87.6123C138.866 87.1396 139.202 86.7422 139.646 86.4199C140.098 86.0905 140.66 85.8434 141.333 85.6787C142.006 85.5068 142.787 85.4209 143.675 85.4209H145.469Z" fill="#577481"/>
<path d="M129.409 88.1816L133.309 80.877H136.402V92.5H133.309V85.1846L129.409 92.5H126.315V80.877H129.409V88.1816Z" fill="#577481"/>
<path d="M117.045 83.1113V96.9688H113.951V80.877H116.819L117.045 83.1113ZM124.403 86.5596V86.7852C124.403 87.6302 124.303 88.4144 124.103 89.1377C123.909 89.861 123.623 90.4912 123.243 91.0283C122.864 91.5583 122.391 91.9736 121.825 92.2744C121.267 92.568 120.622 92.7148 119.892 92.7148C119.183 92.7148 118.567 92.5716 118.044 92.2852C117.521 91.9987 117.081 91.5977 116.723 91.082C116.372 90.5592 116.089 89.9541 115.874 89.2666C115.659 88.5791 115.494 87.8415 115.38 87.0537V86.4629C115.494 85.6178 115.659 84.8444 115.874 84.1426C116.089 83.4336 116.372 82.8213 116.723 82.3057C117.081 81.7829 117.518 81.3783 118.033 81.0918C118.556 80.8053 119.168 80.6621 119.87 80.6621C120.608 80.6621 121.256 80.8018 121.814 81.0811C122.38 81.3604 122.853 81.7614 123.232 82.2842C123.619 82.807 123.909 83.43 124.103 84.1533C124.303 84.8766 124.403 85.6787 124.403 86.5596ZM121.299 86.7852V86.5596C121.299 86.0654 121.256 85.6107 121.17 85.1953C121.091 84.7728 120.962 84.404 120.783 84.0889C120.611 83.7738 120.382 83.5303 120.096 83.3584C119.816 83.1794 119.476 83.0898 119.075 83.0898C118.653 83.0898 118.291 83.1579 117.99 83.2939C117.697 83.43 117.457 83.627 117.271 83.8848C117.084 84.1426 116.945 84.4505 116.852 84.8086C116.758 85.1667 116.701 85.5713 116.68 86.0225V87.5156C116.715 88.0456 116.816 88.5218 116.98 88.9443C117.145 89.3597 117.399 89.6891 117.743 89.9326C118.087 90.1761 118.538 90.2979 119.097 90.2979C119.505 90.2979 119.849 90.2083 120.128 90.0293C120.407 89.8431 120.633 89.5889 120.805 89.2666C120.984 88.9443 121.109 88.5719 121.181 88.1494C121.259 87.7269 121.299 87.2721 121.299 86.7852Z" fill="#577481"/>
<path d="M108.634 80.877V92.5H105.529V80.877H108.634ZM112.372 80.877V83.2725H101.845V80.877H112.372Z" fill="#577481"/>
<path d="M87.8584 88.1816L91.7578 80.877H94.8516V92.5H91.7578V85.1846L87.8584 92.5H84.7646V80.877H87.8584V88.1816Z" fill="#577481"/>
<path d="M231.438 54.877L233.361 58.4111L235.338 54.877H238.636L235.349 60.5596L238.786 66.5H235.478L233.383 62.7617L231.288 66.5H227.979L231.417 60.5596L228.13 54.877H231.438Z" fill="#577481"/>
<path d="M223.446 63.8789V58.7012C223.446 58.3288 223.385 58.0101 223.264 57.7451C223.142 57.473 222.952 57.2617 222.694 57.1113C222.444 56.9609 222.118 56.8857 221.717 56.8857C221.373 56.8857 221.076 56.9466 220.825 57.0684C220.575 57.1829 220.381 57.3512 220.245 57.5732C220.109 57.7881 220.041 58.0423 220.041 58.3359H216.947C216.947 57.8418 217.062 57.3727 217.291 56.9287C217.52 56.4847 217.853 56.0944 218.29 55.7578C218.727 55.4141 219.246 55.1455 219.848 54.9521C220.456 54.7588 221.137 54.6621 221.889 54.6621C222.791 54.6621 223.593 54.8125 224.295 55.1133C224.997 55.4141 225.548 55.8652 225.949 56.4668C226.357 57.0684 226.562 57.8203 226.562 58.7227V63.6963C226.562 64.3337 226.601 64.8564 226.68 65.2646C226.758 65.6657 226.873 66.0166 227.023 66.3174V66.5H223.897C223.747 66.1849 223.632 65.791 223.554 65.3184C223.482 64.8385 223.446 64.3587 223.446 63.8789ZM223.854 59.4209L223.876 61.1719H222.146C221.738 61.1719 221.384 61.2184 221.083 61.3115C220.782 61.4046 220.535 61.5371 220.342 61.709C220.148 61.8737 220.005 62.0671 219.912 62.2891C219.826 62.5111 219.783 62.7546 219.783 63.0195C219.783 63.2845 219.844 63.5244 219.966 63.7393C220.088 63.9469 220.263 64.1117 220.492 64.2334C220.721 64.348 220.99 64.4053 221.298 64.4053C221.763 64.4053 222.168 64.3122 222.512 64.126C222.855 63.9398 223.12 63.7106 223.307 63.4385C223.5 63.1663 223.6 62.9085 223.607 62.665L224.424 63.9756C224.309 64.2692 224.152 64.5736 223.951 64.8887C223.758 65.2038 223.511 65.501 223.21 65.7803C222.909 66.0524 222.548 66.278 222.125 66.457C221.702 66.6289 221.201 66.7148 220.621 66.7148C219.883 66.7148 219.214 66.568 218.612 66.2744C218.018 65.9736 217.545 65.5618 217.194 65.0391C216.851 64.5091 216.679 63.9076 216.679 63.2344C216.679 62.6257 216.793 62.085 217.022 61.6123C217.252 61.1396 217.588 60.7422 218.032 60.4199C218.483 60.0905 219.046 59.8434 219.719 59.6787C220.392 59.5068 221.173 59.4209 222.061 59.4209H223.854Z" fill="#577481"/>
<path d="M212.672 59.5713V61.9775H206.764V59.5713H212.672ZM207.795 54.877V66.5H204.701V54.877H207.795ZM214.767 54.877V66.5H211.662V54.877H214.767Z" fill="#577481"/>
<path d="M191.8 60.8066V60.5811C191.8 59.7288 191.922 58.9447 192.165 58.2285C192.409 57.5052 192.763 56.8786 193.229 56.3486C193.694 55.8187 194.267 55.4069 194.947 55.1133C195.628 54.8125 196.408 54.6621 197.289 54.6621C198.17 54.6621 198.954 54.8125 199.642 55.1133C200.329 55.4069 200.906 55.8187 201.371 56.3486C201.844 56.8786 202.202 57.5052 202.445 58.2285C202.689 58.9447 202.811 59.7288 202.811 60.5811V60.8066C202.811 61.6517 202.689 62.4359 202.445 63.1592C202.202 63.8753 201.844 64.502 201.371 65.0391C200.906 65.569 200.333 65.9808 199.652 66.2744C198.972 66.568 198.191 66.7148 197.311 66.7148C196.43 66.7148 195.646 66.568 194.958 66.2744C194.278 65.9808 193.701 65.569 193.229 65.0391C192.763 64.502 192.409 63.8753 192.165 63.1592C191.922 62.4359 191.8 61.6517 191.8 60.8066ZM194.894 60.5811V60.8066C194.894 61.2936 194.937 61.7484 195.022 62.1709C195.108 62.5934 195.244 62.9658 195.431 63.2881C195.624 63.6032 195.875 63.8503 196.183 64.0293C196.491 64.2083 196.867 64.2979 197.311 64.2979C197.74 64.2979 198.109 64.2083 198.417 64.0293C198.725 63.8503 198.972 63.6032 199.158 63.2881C199.344 62.9658 199.48 62.5934 199.566 62.1709C199.66 61.7484 199.706 61.2936 199.706 60.8066V60.5811C199.706 60.1084 199.66 59.6644 199.566 59.249C199.48 58.8265 199.341 58.4541 199.147 58.1318C198.961 57.8024 198.714 57.5446 198.406 57.3584C198.098 57.1722 197.726 57.0791 197.289 57.0791C196.852 57.0791 196.48 57.1722 196.172 57.3584C195.871 57.5446 195.624 57.8024 195.431 58.1318C195.244 58.4541 195.108 58.8265 195.022 59.249C194.937 59.6644 194.894 60.1084 194.894 60.5811Z" fill="#577481"/>
<path d="M190.35 60.7637V60.9893C190.35 61.8271 190.257 62.597 190.07 63.2988C189.891 63.9935 189.619 64.5986 189.254 65.1143C188.889 65.6227 188.441 66.0166 187.911 66.2959C187.381 66.5752 186.769 66.7148 186.074 66.7148C185.43 66.7148 184.871 66.5931 184.398 66.3496C183.933 66.099 183.539 65.7516 183.217 65.3076C182.902 64.8564 182.644 64.3337 182.443 63.7393C182.25 63.1377 182.107 62.4896 182.014 61.7949V59.9365C182.107 59.1917 182.25 58.5007 182.443 57.8633C182.637 57.2188 182.891 56.6566 183.206 56.1768C183.528 55.6969 183.922 55.3245 184.388 55.0596C184.853 54.7946 185.408 54.6621 186.053 54.6621C186.611 54.6621 187.116 54.7588 187.567 54.9521C188.026 55.1455 188.427 55.4212 188.771 55.7793C189.121 56.1374 189.411 56.5706 189.641 57.0791C189.877 57.5804 190.052 58.1426 190.167 58.7656C190.289 59.3887 190.35 60.0547 190.35 60.7637ZM187.245 60.9893V60.7637C187.245 60.3626 187.22 59.9795 187.17 59.6143C187.127 59.2419 187.055 58.9017 186.955 58.5938C186.862 58.2858 186.737 58.0208 186.579 57.7988C186.422 57.5697 186.232 57.3942 186.01 57.2725C185.788 57.1436 185.534 57.0791 185.247 57.0791C184.746 57.0791 184.334 57.1794 184.012 57.3799C183.697 57.5732 183.46 57.8525 183.303 58.2178C183.152 58.5758 183.066 58.9984 183.045 59.4854V62.2568C183.074 62.6722 183.163 63.0339 183.313 63.3418C183.471 63.6426 183.707 63.8789 184.022 64.0508C184.345 64.2155 184.76 64.2979 185.269 64.2979C185.634 64.2979 185.942 64.2155 186.192 64.0508C186.45 63.8861 186.654 63.6533 186.805 63.3525C186.962 63.0518 187.073 62.7044 187.138 62.3105C187.209 61.9095 187.245 61.4691 187.245 60.9893ZM175.729 60.9893V60.7637C175.729 60.0547 175.79 59.3887 175.912 58.7656C176.034 58.1426 176.209 57.5804 176.438 57.0791C176.675 56.5706 176.965 56.1374 177.309 55.7793C177.652 55.4212 178.05 55.1455 178.501 54.9521C178.959 54.7588 179.468 54.6621 180.026 54.6621C180.664 54.6621 181.215 54.7946 181.681 55.0596C182.146 55.3245 182.536 55.6969 182.852 56.1768C183.167 56.6566 183.421 57.2188 183.614 57.8633C183.808 58.5007 183.954 59.1917 184.055 59.9365V61.709C183.954 62.4251 183.808 63.0876 183.614 63.6963C183.421 64.2979 183.163 64.8278 182.841 65.2861C182.526 65.7373 182.135 66.0882 181.67 66.3389C181.204 66.5895 180.649 66.7148 180.005 66.7148C179.317 66.7148 178.705 66.5752 178.168 66.2959C177.638 66.0166 177.19 65.6227 176.825 65.1143C176.467 64.5986 176.195 63.9935 176.009 63.2988C175.823 62.597 175.729 61.8271 175.729 60.9893ZM178.823 60.7637V60.9893C178.823 61.4691 178.855 61.9095 178.92 62.3105C178.992 62.7044 179.103 63.0518 179.253 63.3525C179.41 63.6462 179.615 63.8753 179.865 64.04C180.116 64.2048 180.424 64.2871 180.789 64.2871C181.305 64.2871 181.72 64.2012 182.035 64.0293C182.357 63.8574 182.597 63.6139 182.755 63.2988C182.912 62.9837 182.998 62.6077 183.013 62.1709V59.4854C182.998 58.9984 182.912 58.5758 182.755 58.2178C182.604 57.8525 182.372 57.5732 182.057 57.3799C181.742 57.1794 181.326 57.0791 180.811 57.0791C180.445 57.0791 180.134 57.1758 179.876 57.3691C179.625 57.5625 179.421 57.8275 179.264 58.1641C179.113 58.5007 179.002 58.8945 178.931 59.3457C178.859 59.7897 178.823 60.2624 178.823 60.7637ZM181.466 70.9688V50H184.57V70.9688H181.466Z" fill="#577481"/>
<path d="M170.702 63.8789V58.7012C170.702 58.3288 170.641 58.0101 170.52 57.7451C170.398 57.473 170.208 57.2617 169.95 57.1113C169.7 56.9609 169.374 56.8857 168.973 56.8857C168.629 56.8857 168.332 56.9466 168.081 57.0684C167.83 57.1829 167.637 57.3512 167.501 57.5732C167.365 57.7881 167.297 58.0423 167.297 58.3359H164.203C164.203 57.8418 164.318 57.3727 164.547 56.9287C164.776 56.4847 165.109 56.0944 165.546 55.7578C165.983 55.4141 166.502 55.1455 167.104 54.9521C167.712 54.7588 168.393 54.6621 169.145 54.6621C170.047 54.6621 170.849 54.8125 171.551 55.1133C172.253 55.4141 172.804 55.8652 173.205 56.4668C173.613 57.0684 173.817 57.8203 173.817 58.7227V63.6963C173.817 64.3337 173.857 64.8564 173.936 65.2646C174.014 65.6657 174.129 66.0166 174.279 66.3174V66.5H171.153C171.003 66.1849 170.888 65.791 170.81 65.3184C170.738 64.8385 170.702 64.3587 170.702 63.8789ZM171.11 59.4209L171.132 61.1719H169.402C168.994 61.1719 168.64 61.2184 168.339 61.3115C168.038 61.4046 167.791 61.5371 167.598 61.709C167.404 61.8737 167.261 62.0671 167.168 62.2891C167.082 62.5111 167.039 62.7546 167.039 63.0195C167.039 63.2845 167.1 63.5244 167.222 63.7393C167.343 63.9469 167.519 64.1117 167.748 64.2334C167.977 64.348 168.246 64.4053 168.554 64.4053C169.019 64.4053 169.424 64.3122 169.768 64.126C170.111 63.9398 170.376 63.7106 170.562 63.4385C170.756 63.1663 170.856 62.9085 170.863 62.665L171.68 63.9756C171.565 64.2692 171.408 64.5736 171.207 64.8887C171.014 65.2038 170.767 65.501 170.466 65.7803C170.165 66.0524 169.803 66.278 169.381 66.457C168.958 66.6289 168.457 66.7148 167.877 66.7148C167.139 66.7148 166.47 66.568 165.868 66.2744C165.274 65.9736 164.801 65.5618 164.45 65.0391C164.106 64.5091 163.935 63.9076 163.935 63.2344C163.935 62.6257 164.049 62.085 164.278 61.6123C164.507 61.1396 164.844 60.7422 165.288 60.4199C165.739 60.0905 166.301 59.8434 166.975 59.6787C167.648 59.5068 168.428 59.4209 169.316 59.4209H171.11Z" fill="#577481"/>
<path d="M155.147 57.1113V70.9688H152.054V54.877H154.922L155.147 57.1113ZM162.506 60.5596V60.7852C162.506 61.6302 162.406 62.4144 162.205 63.1377C162.012 63.861 161.725 64.4912 161.346 65.0283C160.966 65.5583 160.493 65.9736 159.928 66.2744C159.369 66.568 158.725 66.7148 157.994 66.7148C157.285 66.7148 156.669 66.5716 156.146 66.2852C155.624 65.9987 155.183 65.5977 154.825 65.082C154.474 64.5592 154.191 63.9541 153.977 63.2666C153.762 62.5791 153.597 61.8415 153.482 61.0537V60.4629C153.597 59.6178 153.762 58.8444 153.977 58.1426C154.191 57.4336 154.474 56.8213 154.825 56.3057C155.183 55.7829 155.62 55.3783 156.136 55.0918C156.659 54.8053 157.271 54.6621 157.973 54.6621C158.71 54.6621 159.358 54.8018 159.917 55.0811C160.483 55.3604 160.955 55.7614 161.335 56.2842C161.722 56.807 162.012 57.43 162.205 58.1533C162.406 58.8766 162.506 59.6787 162.506 60.5596ZM159.401 60.7852V60.5596C159.401 60.0654 159.358 59.6107 159.272 59.1953C159.194 58.7728 159.065 58.404 158.886 58.0889C158.714 57.7738 158.485 57.5303 158.198 57.3584C157.919 57.1794 157.579 57.0898 157.178 57.0898C156.755 57.0898 156.394 57.1579 156.093 57.2939C155.799 57.43 155.559 57.627 155.373 57.8848C155.187 58.1426 155.047 58.4505 154.954 58.8086C154.861 59.1667 154.804 59.5713 154.782 60.0225V61.5156C154.818 62.0456 154.918 62.5218 155.083 62.9443C155.248 63.3597 155.502 63.6891 155.846 63.9326C156.189 64.1761 156.641 64.2979 157.199 64.2979C157.607 64.2979 157.951 64.2083 158.23 64.0293C158.51 63.8431 158.735 63.5889 158.907 63.2666C159.086 62.9443 159.212 62.5719 159.283 62.1494C159.362 61.7269 159.401 61.2721 159.401 60.7852Z" fill="#577481"/>
<path d="M146.554 63.8789V58.7012C146.554 58.3288 146.493 58.0101 146.371 57.7451C146.249 57.473 146.06 57.2617 145.802 57.1113C145.551 56.9609 145.225 56.8857 144.824 56.8857C144.48 56.8857 144.183 56.9466 143.933 57.0684C143.682 57.1829 143.489 57.3512 143.353 57.5732C143.216 57.7881 143.148 58.0423 143.148 58.3359H140.055C140.055 57.8418 140.169 57.3727 140.398 56.9287C140.628 56.4847 140.961 56.0944 141.397 55.7578C141.834 55.4141 142.354 55.1455 142.955 54.9521C143.564 54.7588 144.244 54.6621 144.996 54.6621C145.898 54.6621 146.701 54.8125 147.402 55.1133C148.104 55.4141 148.656 55.8652 149.057 56.4668C149.465 57.0684 149.669 57.8203 149.669 58.7227V63.6963C149.669 64.3337 149.708 64.8564 149.787 65.2646C149.866 65.6657 149.98 66.0166 150.131 66.3174V66.5H147.005C146.854 66.1849 146.74 65.791 146.661 65.3184C146.59 64.8385 146.554 64.3587 146.554 63.8789ZM146.962 59.4209L146.983 61.1719H145.254C144.846 61.1719 144.491 61.2184 144.19 61.3115C143.89 61.4046 143.643 61.5371 143.449 61.709C143.256 61.8737 143.113 62.0671 143.02 62.2891C142.934 62.5111 142.891 62.7546 142.891 63.0195C142.891 63.2845 142.951 63.5244 143.073 63.7393C143.195 63.9469 143.37 64.1117 143.6 64.2334C143.829 64.348 144.097 64.4053 144.405 64.4053C144.871 64.4053 145.275 64.3122 145.619 64.126C145.963 63.9398 146.228 63.7106 146.414 63.4385C146.607 63.1663 146.708 62.9085 146.715 62.665L147.531 63.9756C147.417 64.2692 147.259 64.5736 147.059 64.8887C146.865 65.2038 146.618 65.501 146.317 65.7803C146.017 66.0524 145.655 66.278 145.232 66.457C144.81 66.6289 144.309 66.7148 143.729 66.7148C142.991 66.7148 142.321 66.568 141.72 66.2744C141.125 65.9736 140.653 65.5618 140.302 65.0391C139.958 64.5091 139.786 63.9076 139.786 63.2344C139.786 62.6257 139.901 62.085 140.13 61.6123C140.359 61.1396 140.696 60.7422 141.14 60.4199C141.591 60.0905 142.153 59.8434 142.826 59.6787C143.499 59.5068 144.28 59.4209 145.168 59.4209H146.962Z" fill="#577481"/>
<path d="M130.634 62.9443L133.685 54.877H136.209L131.676 66.5H129.592L125.08 54.877H127.604L130.634 62.9443ZM126.863 54.877V66.5H123.77V54.877H126.863ZM134.479 66.5V54.877H137.573V66.5H134.479Z" fill="#577481"/>
<path d="M115.605 63.8896L115.595 65.9629C115.595 66.7578 115.394 67.5599 114.993 68.3691C114.599 69.1784 114.098 69.8408 113.489 70.3564L111.878 69.5293C112.057 69.1999 112.232 68.8704 112.404 68.541C112.576 68.2116 112.719 67.8499 112.834 67.4561C112.949 67.0622 113.006 66.6146 113.006 66.1133V63.8896H115.605Z" fill="#577481"/>
<path d="M106.142 66.7148C105.239 66.7148 104.43 66.5716 103.714 66.2852C102.998 65.9915 102.389 65.5869 101.888 65.0713C101.394 64.5557 101.014 63.9577 100.749 63.2773C100.484 62.5898 100.352 61.8594 100.352 61.0859V60.6562C100.352 59.7754 100.477 58.9697 100.728 58.2393C100.978 57.5088 101.336 56.875 101.802 56.3379C102.274 55.8008 102.847 55.389 103.521 55.1025C104.194 54.8089 104.953 54.6621 105.798 54.6621C106.621 54.6621 107.352 54.7982 107.989 55.0703C108.627 55.3424 109.16 55.7292 109.59 56.2305C110.027 56.7318 110.356 57.3333 110.578 58.0352C110.8 58.7298 110.911 59.5033 110.911 60.3555V61.6445H101.673V59.582H107.871V59.3457C107.871 58.916 107.792 58.5329 107.635 58.1963C107.484 57.8525 107.255 57.5804 106.947 57.3799C106.639 57.1794 106.245 57.0791 105.766 57.0791C105.357 57.0791 105.007 57.1686 104.713 57.3477C104.419 57.5267 104.179 57.7773 103.993 58.0996C103.814 58.4219 103.678 58.8014 103.585 59.2383C103.499 59.668 103.456 60.1406 103.456 60.6562V61.0859C103.456 61.5514 103.521 61.9811 103.649 62.375C103.785 62.7689 103.975 63.109 104.219 63.3955C104.469 63.682 104.77 63.904 105.121 64.0615C105.479 64.2191 105.884 64.2979 106.335 64.2979C106.894 64.2979 107.413 64.1904 107.893 63.9756C108.38 63.7536 108.799 63.4206 109.149 62.9766L110.653 64.6094C110.41 64.9603 110.077 65.2969 109.654 65.6191C109.239 65.9414 108.738 66.2064 108.15 66.4141C107.563 66.6146 106.894 66.7148 106.142 66.7148Z" fill="#577481"/>
<path d="M99.6748 54.877V57.3047H94.8408V66.5H91.7471V54.877H99.6748Z" fill="#577481"/>
<path d="M85.2373 66.7148C84.335 66.7148 83.5257 66.5716 82.8096 66.2852C82.0934 65.9915 81.4847 65.5869 80.9834 65.0713C80.4893 64.5557 80.1097 63.9577 79.8447 63.2773C79.5798 62.5898 79.4473 61.8594 79.4473 61.0859V60.6562C79.4473 59.7754 79.5726 58.9697 79.8232 58.2393C80.0739 57.5088 80.432 56.875 80.8975 56.3379C81.3701 55.8008 81.943 55.389 82.6162 55.1025C83.2894 54.8089 84.0485 54.6621 84.8936 54.6621C85.7171 54.6621 86.4476 54.7982 87.085 55.0703C87.7223 55.3424 88.2559 55.7292 88.6855 56.2305C89.1224 56.7318 89.4518 57.3333 89.6738 58.0352C89.8958 58.7298 90.0068 59.5033 90.0068 60.3555V61.6445H80.7686V59.582H86.9668V59.3457C86.9668 58.916 86.888 58.5329 86.7305 58.1963C86.5801 57.8525 86.3509 57.5804 86.043 57.3799C85.735 57.1794 85.3411 57.0791 84.8613 57.0791C84.4531 57.0791 84.1022 57.1686 83.8086 57.3477C83.515 57.5267 83.2751 57.7773 83.0889 58.0996C82.9098 58.4219 82.7738 58.8014 82.6807 59.2383C82.5947 59.668 82.5518 60.1406 82.5518 60.6562V61.0859C82.5518 61.5514 82.6162 61.9811 82.7451 62.375C82.8812 62.7689 83.071 63.109 83.3145 63.3955C83.5651 63.682 83.8659 63.904 84.2168 64.0615C84.5749 64.2191 84.9795 64.2979 85.4307 64.2979C85.9893 64.2979 86.5085 64.1904 86.9883 63.9756C87.4753 63.7536 87.8942 63.4206 88.2451 62.9766L89.749 64.6094C89.5055 64.9603 89.1725 65.2969 88.75 65.6191C88.3346 65.9414 87.8333 66.2064 87.2461 66.4141C86.6589 66.6146 85.9893 66.7148 85.2373 66.7148Z" fill="#577481"/>
<path d="M74.4629 49.7637H76.9658C76.9658 50.3438 76.8942 50.8415 76.751 51.2568C76.6077 51.665 76.3786 52.016 76.0635 52.3096C75.7484 52.596 75.3258 52.8395 74.7959 53.04C74.266 53.2406 73.6107 53.4124 72.8301 53.5557C72.2285 53.6774 71.7057 53.8779 71.2617 54.1572C70.8249 54.4365 70.4632 54.8197 70.1768 55.3066C69.8975 55.7865 69.6969 56.3952 69.5752 57.1328C69.4535 57.8633 69.4105 58.7441 69.4463 59.7754V60.291L67.04 60.624V60.1084C67.0472 58.7048 67.1725 57.4837 67.416 56.4453C67.6667 55.4069 68.0212 54.5332 68.4795 53.8242C68.9378 53.1081 69.4893 52.5387 70.1338 52.1162C70.7783 51.6865 71.4945 51.3857 72.2822 51.2139C72.8122 51.0993 73.2347 50.9883 73.5498 50.8809C73.8721 50.7663 74.1048 50.623 74.248 50.4512C74.3913 50.2793 74.4629 50.0501 74.4629 49.7637ZM73.1094 55.5322C73.8971 55.5322 74.5954 55.6683 75.2041 55.9404C75.8128 56.2054 76.3249 56.5814 76.7402 57.0684C77.1556 57.5553 77.4707 58.1283 77.6855 58.7871C77.9004 59.446 78.0078 60.1657 78.0078 60.9463V61.1719C78.0078 61.9668 77.8861 62.7044 77.6426 63.3848C77.4062 64.0579 77.0553 64.6452 76.5898 65.1465C76.1243 65.6478 75.5514 66.0381 74.8711 66.3174C74.1908 66.5895 73.4137 66.7256 72.54 66.7256C71.6592 66.7256 70.875 66.5788 70.1875 66.2852C69.5072 65.9844 68.9307 65.5654 68.458 65.0283C67.9925 64.484 67.638 63.8503 67.3945 63.127C67.1582 62.3965 67.04 61.6016 67.04 60.7422V60.5059C67.04 60.3841 67.0938 60.266 67.2012 60.1514C67.3158 60.0296 67.4482 59.8936 67.5986 59.7432C67.7562 59.5928 67.8958 59.403 68.0176 59.1738C68.4473 58.3789 68.9163 57.7129 69.4248 57.1758C69.9333 56.6315 70.4883 56.2233 71.0898 55.9512C71.6986 55.6719 72.3717 55.5322 73.1094 55.5322ZM72.5186 57.9492C71.9385 57.9492 71.473 58.0889 71.1221 58.3682C70.7712 58.6403 70.5169 59.0055 70.3594 59.4639C70.209 59.915 70.1338 60.4092 70.1338 60.9463V61.1719C70.1338 61.6087 70.1768 62.0169 70.2627 62.3965C70.3486 62.7689 70.4847 63.1019 70.6709 63.3955C70.8571 63.682 71.1042 63.9076 71.4121 64.0723C71.7201 64.2298 72.096 64.3086 72.54 64.3086C72.9697 64.3086 73.335 64.2298 73.6357 64.0723C73.9437 63.9076 74.1908 63.682 74.377 63.3955C74.5632 63.1019 74.6992 62.7689 74.7852 62.3965C74.8711 62.0169 74.9141 61.6087 74.9141 61.1719V60.9463C74.9141 60.5381 74.8711 60.1549 74.7852 59.7969C74.6992 59.4316 74.5632 59.113 74.377 58.8408C74.1908 58.5615 73.9437 58.3431 73.6357 58.1855C73.3278 58.028 72.9554 57.9492 72.5186 57.9492Z" fill="#577481"/>
<path d="M48.9502 60.8066V60.5811C48.9502 59.7288 49.0719 58.9447 49.3154 58.2285C49.5589 57.5052 49.9134 56.8786 50.3789 56.3486C50.8444 55.8187 51.4173 55.4069 52.0977 55.1133C52.778 54.8125 53.5586 54.6621 54.4395 54.6621C55.3203 54.6621 56.1045 54.8125 56.792 55.1133C57.4795 55.4069 58.056 55.8187 58.5215 56.3486C58.9941 56.8786 59.3522 57.5052 59.5957 58.2285C59.8392 58.9447 59.9609 59.7288 59.9609 60.5811V60.8066C59.9609 61.6517 59.8392 62.4359 59.5957 63.1592C59.3522 63.8753 58.9941 64.502 58.5215 65.0391C58.056 65.569 57.4831 65.9808 56.8027 66.2744C56.1224 66.568 55.3418 66.7148 54.4609 66.7148C53.5801 66.7148 52.7959 66.568 52.1084 66.2744C51.4281 65.9808 50.8516 65.569 50.3789 65.0391C49.9134 64.502 49.5589 63.8753 49.3154 63.1592C49.0719 62.4359 48.9502 61.6517 48.9502 60.8066ZM52.0439 60.5811V60.8066C52.0439 61.2936 52.0869 61.7484 52.1729 62.1709C52.2588 62.5934 52.3949 62.9658 52.5811 63.2881C52.7744 63.6032 53.0251 63.8503 53.333 64.0293C53.641 64.2083 54.0169 64.2979 54.4609 64.2979C54.8906 64.2979 55.2594 64.2083 55.5674 64.0293C55.8753 63.8503 56.1224 63.6032 56.3086 63.2881C56.4948 62.9658 56.6309 62.5934 56.7168 62.1709C56.8099 61.7484 56.8564 61.2936 56.8564 60.8066V60.5811C56.8564 60.1084 56.8099 59.6644 56.7168 59.249C56.6309 58.8265 56.4912 58.4541 56.2979 58.1318C56.1117 57.8024 55.8646 57.5446 55.5566 57.3584C55.2487 57.1722 54.8763 57.0791 54.4395 57.0791C54.0026 57.0791 53.6302 57.1722 53.3223 57.3584C53.0215 57.5446 52.7744 57.8024 52.5811 58.1318C52.3949 58.4541 52.2588 58.8265 52.1729 59.249C52.0869 59.6644 52.0439 60.1084 52.0439 60.5811Z" fill="#577481"/>
<path d="M243.115 28.877V31.3047H237.4V28.877H243.115ZM245.382 28.877V40.5H242.288V28.877H245.382ZM236.627 28.877H239.667L239.355 34.7422C239.312 35.5801 239.223 36.3177 239.087 36.9551C238.951 37.5924 238.768 38.1367 238.539 38.5879C238.317 39.0391 238.049 39.4079 237.733 39.6943C237.425 39.9736 237.064 40.1777 236.648 40.3066C236.24 40.4355 235.789 40.5 235.295 40.5H234.35L234.317 38.0615L234.715 38.0186C234.944 37.9971 235.145 37.9326 235.316 37.8252C235.495 37.7106 235.646 37.5495 235.768 37.3418C235.896 37.127 236.004 36.8584 236.09 36.5361C236.176 36.2067 236.244 35.82 236.294 35.376C236.351 34.932 236.391 34.4199 236.412 33.8398L236.627 28.877Z" fill="#577481"/>
<path d="M229.795 37.8789V32.7012C229.795 32.3288 229.734 32.0101 229.612 31.7451C229.491 31.473 229.301 31.2617 229.043 31.1113C228.792 30.9609 228.466 30.8857 228.065 30.8857C227.722 30.8857 227.424 30.9466 227.174 31.0684C226.923 31.1829 226.73 31.3512 226.594 31.5732C226.458 31.7881 226.39 32.0423 226.39 32.3359H223.296C223.296 31.8418 223.41 31.3727 223.64 30.9287C223.869 30.4847 224.202 30.0944 224.639 29.7578C225.076 29.4141 225.595 29.1455 226.196 28.9521C226.805 28.7588 227.485 28.6621 228.237 28.6621C229.14 28.6621 229.942 28.8125 230.644 29.1133C231.345 29.4141 231.897 29.8652 232.298 30.4668C232.706 31.0684 232.91 31.8203 232.91 32.7227V37.6963C232.91 38.3337 232.95 38.8564 233.028 39.2646C233.107 39.6657 233.222 40.0166 233.372 40.3174V40.5H230.246C230.096 40.1849 229.981 39.791 229.902 39.3184C229.831 38.8385 229.795 38.3587 229.795 37.8789ZM230.203 33.4209L230.225 35.1719H228.495C228.087 35.1719 227.732 35.2184 227.432 35.3115C227.131 35.4046 226.884 35.5371 226.69 35.709C226.497 35.8737 226.354 36.0671 226.261 36.2891C226.175 36.5111 226.132 36.7546 226.132 37.0195C226.132 37.2845 226.193 37.5244 226.314 37.7393C226.436 37.9469 226.612 38.1117 226.841 38.2334C227.07 38.348 227.339 38.4053 227.646 38.4053C228.112 38.4053 228.517 38.3122 228.86 38.126C229.204 37.9398 229.469 37.7106 229.655 37.4385C229.849 37.1663 229.949 36.9085 229.956 36.665L230.772 37.9756C230.658 38.2692 230.5 38.5736 230.3 38.8887C230.106 39.2038 229.859 39.501 229.559 39.7803C229.258 40.0524 228.896 40.278 228.474 40.457C228.051 40.6289 227.55 40.7148 226.97 40.7148C226.232 40.7148 225.562 40.568 224.961 40.2744C224.367 39.9736 223.894 39.5618 223.543 39.0391C223.199 38.5091 223.027 37.9076 223.027 37.2344C223.027 36.6257 223.142 36.085 223.371 35.6123C223.6 35.1396 223.937 34.7422 224.381 34.4199C224.832 34.0905 225.394 33.8434 226.067 33.6787C226.741 33.5068 227.521 33.4209 228.409 33.4209H230.203Z" fill="#577481"/>
<path d="M219.021 33.5713V35.9775H213.112V33.5713H219.021ZM214.144 28.877V40.5H211.05V28.877H214.144ZM221.115 28.877V40.5H218.011V28.877H221.115Z" fill="#577481"/>
<path d="M201.779 31.1113V44.9688H198.686V28.877H201.554L201.779 31.1113ZM209.138 34.5596V34.7852C209.138 35.6302 209.037 36.4144 208.837 37.1377C208.644 37.861 208.357 38.4912 207.978 39.0283C207.598 39.5583 207.125 39.9736 206.56 40.2744C206.001 40.568 205.356 40.7148 204.626 40.7148C203.917 40.7148 203.301 40.5716 202.778 40.2852C202.256 39.9987 201.815 39.5977 201.457 39.082C201.106 38.5592 200.823 37.9541 200.608 37.2666C200.394 36.5791 200.229 35.8415 200.114 35.0537V34.4629C200.229 33.6178 200.394 32.8444 200.608 32.1426C200.823 31.4336 201.106 30.8213 201.457 30.3057C201.815 29.7829 202.252 29.3783 202.768 29.0918C203.29 28.8053 203.903 28.6621 204.604 28.6621C205.342 28.6621 205.99 28.8018 206.549 29.0811C207.115 29.3604 207.587 29.7614 207.967 30.2842C208.354 30.807 208.644 31.43 208.837 32.1533C209.037 32.8766 209.138 33.6787 209.138 34.5596ZM206.033 34.7852V34.5596C206.033 34.0654 205.99 33.6107 205.904 33.1953C205.826 32.7728 205.697 32.404 205.518 32.0889C205.346 31.7738 205.117 31.5303 204.83 31.3584C204.551 31.1794 204.211 31.0898 203.81 31.0898C203.387 31.0898 203.025 31.1579 202.725 31.2939C202.431 31.43 202.191 31.627 202.005 31.8848C201.819 32.1426 201.679 32.4505 201.586 32.8086C201.493 33.1667 201.436 33.5713 201.414 34.0225V35.5156C201.45 36.0456 201.55 36.5218 201.715 36.9443C201.88 37.3597 202.134 37.6891 202.478 37.9326C202.821 38.1761 203.272 38.2979 203.831 38.2979C204.239 38.2979 204.583 38.2083 204.862 38.0293C205.142 37.8431 205.367 37.5889 205.539 37.2666C205.718 36.9443 205.843 36.5719 205.915 36.1494C205.994 35.7269 206.033 35.2721 206.033 34.7852Z" fill="#577481"/>
<path d="M191.048 39.1895L194.131 28.877H197.45L192.777 42.251C192.677 42.5446 192.541 42.8597 192.369 43.1963C192.204 43.5329 191.979 43.8516 191.692 44.1523C191.413 44.4603 191.059 44.7109 190.629 44.9043C190.206 45.0977 189.687 45.1943 189.071 45.1943C188.778 45.1943 188.538 45.1764 188.352 45.1406C188.165 45.1048 187.943 45.0547 187.686 44.9902V42.7236C187.764 42.7236 187.847 42.7236 187.933 42.7236C188.019 42.7308 188.101 42.7344 188.18 42.7344C188.588 42.7344 188.921 42.6878 189.179 42.5947C189.437 42.5016 189.644 42.3584 189.802 42.165C189.959 41.9788 190.085 41.7354 190.178 41.4346L191.048 39.1895ZM189.759 28.877L192.283 37.2988L192.724 40.5752L190.618 40.8008L186.439 28.877H189.759Z" fill="#577481"/>
<path d="M172.818 36.1172L167.984 28.877H171.819L174.29 33.2598H176.514L176.138 36.1172H172.818ZM174.333 35.5908L171.68 40.5H167.952L171.809 34.0977L174.333 35.5908ZM178.522 28.877V40.5H175.429V28.877H178.522ZM185.999 28.877L181.165 36.1172H177.846L177.47 33.2598H179.693L182.153 28.877H185.999ZM182.293 40.5L179.64 35.5908L182.261 34.0977L186.096 40.5H182.293Z" fill="#577481"/>
<path d="M149.841 40.5V28.877H152.935V38.083H156.823V28.877H159.928V40.5H149.841ZM161.668 38.0938L161.464 43.9482H158.585V40.5H157.285V38.0938H161.668Z" fill="#577481"/>
<path d="M143.32 40.7148C142.418 40.7148 141.609 40.5716 140.893 40.2852C140.176 39.9915 139.568 39.5869 139.066 39.0713C138.572 38.5557 138.193 37.9577 137.928 37.2773C137.663 36.5898 137.53 35.8594 137.53 35.0859V34.6562C137.53 33.7754 137.656 32.9697 137.906 32.2393C138.157 31.5088 138.515 30.875 138.98 30.3379C139.453 29.8008 140.026 29.389 140.699 29.1025C141.372 28.8089 142.132 28.6621 142.977 28.6621C143.8 28.6621 144.531 28.7982 145.168 29.0703C145.805 29.3424 146.339 29.7292 146.769 30.2305C147.205 30.7318 147.535 31.3333 147.757 32.0352C147.979 32.7298 148.09 33.5033 148.09 34.3555V35.6445H138.852V33.582H145.05V33.3457C145.05 32.916 144.971 32.5329 144.813 32.1963C144.663 31.8525 144.434 31.5804 144.126 31.3799C143.818 31.1794 143.424 31.0791 142.944 31.0791C142.536 31.0791 142.185 31.1686 141.892 31.3477C141.598 31.5267 141.358 31.7773 141.172 32.0996C140.993 32.4219 140.857 32.8014 140.764 33.2383C140.678 33.668 140.635 34.1406 140.635 34.6562V35.0859C140.635 35.5514 140.699 35.9811 140.828 36.375C140.964 36.7689 141.154 37.109 141.397 37.3955C141.648 37.682 141.949 37.904 142.3 38.0615C142.658 38.2191 143.062 38.2979 143.514 38.2979C144.072 38.2979 144.591 38.1904 145.071 37.9756C145.558 37.7536 145.977 37.4206 146.328 36.9766L147.832 38.6094C147.589 38.9603 147.256 39.2969 146.833 39.6191C146.418 39.9414 145.916 40.2064 145.329 40.4141C144.742 40.6146 144.072 40.7148 143.32 40.7148Z" fill="#577481"/>
<path d="M133.47 33.5713V35.9775H127.562V33.5713H133.47ZM128.593 28.877V40.5H125.499V28.877H128.593ZM135.564 28.877V40.5H132.46V28.877H135.564Z" fill="#577481"/>
<path d="M112.598 34.8066V34.5811C112.598 33.7288 112.719 32.9447 112.963 32.2285C113.206 31.5052 113.561 30.8786 114.026 30.3486C114.492 29.8187 115.065 29.4069 115.745 29.1133C116.425 28.8125 117.206 28.6621 118.087 28.6621C118.968 28.6621 119.752 28.8125 120.439 29.1133C121.127 29.4069 121.703 29.8187 122.169 30.3486C122.642 30.8786 123 31.5052 123.243 32.2285C123.487 32.9447 123.608 33.7288 123.608 34.5811V34.8066C123.608 35.6517 123.487 36.4359 123.243 37.1592C123 37.8753 122.642 38.502 122.169 39.0391C121.703 39.569 121.131 39.9808 120.45 40.2744C119.77 40.568 118.989 40.7148 118.108 40.7148C117.228 40.7148 116.443 40.568 115.756 40.2744C115.076 39.9808 114.499 39.569 114.026 39.0391C113.561 38.502 113.206 37.8753 112.963 37.1592C112.719 36.4359 112.598 35.6517 112.598 34.8066ZM115.691 34.5811V34.8066C115.691 35.2936 115.734 35.7484 115.82 36.1709C115.906 36.5934 116.042 36.9658 116.229 37.2881C116.422 37.6032 116.673 37.8503 116.98 38.0293C117.288 38.2083 117.664 38.2979 118.108 38.2979C118.538 38.2979 118.907 38.2083 119.215 38.0293C119.523 37.8503 119.77 37.6032 119.956 37.2881C120.142 36.9658 120.278 36.5934 120.364 36.1709C120.457 35.7484 120.504 35.2936 120.504 34.8066V34.5811C120.504 34.1084 120.457 33.6644 120.364 33.249C120.278 32.8265 120.139 32.4541 119.945 32.1318C119.759 31.8024 119.512 31.5446 119.204 31.3584C118.896 31.1722 118.524 31.0791 118.087 31.0791C117.65 31.0791 117.278 31.1722 116.97 31.3584C116.669 31.5446 116.422 31.8024 116.229 32.1318C116.042 32.4541 115.906 32.8265 115.82 33.249C115.734 33.6644 115.691 34.1084 115.691 34.5811Z" fill="#577481"/>
<path d="M111.147 34.7637V34.9893C111.147 35.8271 111.054 36.597 110.868 37.2988C110.689 37.9935 110.417 38.5986 110.052 39.1143C109.687 39.6227 109.239 40.0166 108.709 40.2959C108.179 40.5752 107.567 40.7148 106.872 40.7148C106.228 40.7148 105.669 40.5931 105.196 40.3496C104.731 40.099 104.337 39.7516 104.015 39.3076C103.7 38.8564 103.442 38.3337 103.241 37.7393C103.048 37.1377 102.905 36.4896 102.812 35.7949V33.9365C102.905 33.1917 103.048 32.5007 103.241 31.8633C103.435 31.2188 103.689 30.6566 104.004 30.1768C104.326 29.6969 104.72 29.3245 105.186 29.0596C105.651 28.7946 106.206 28.6621 106.851 28.6621C107.409 28.6621 107.914 28.7588 108.365 28.9521C108.824 29.1455 109.225 29.4212 109.568 29.7793C109.919 30.1374 110.209 30.5706 110.438 31.0791C110.675 31.5804 110.85 32.1426 110.965 32.7656C111.087 33.3887 111.147 34.0547 111.147 34.7637ZM108.043 34.9893V34.7637C108.043 34.3626 108.018 33.9795 107.968 33.6143C107.925 33.2419 107.853 32.9017 107.753 32.5938C107.66 32.2858 107.535 32.0208 107.377 31.7988C107.219 31.5697 107.03 31.3942 106.808 31.2725C106.586 31.1436 106.331 31.0791 106.045 31.0791C105.544 31.0791 105.132 31.1794 104.81 31.3799C104.494 31.5732 104.258 31.8525 104.101 32.2178C103.95 32.5758 103.864 32.9984 103.843 33.4854V36.2568C103.871 36.6722 103.961 37.0339 104.111 37.3418C104.269 37.6426 104.505 37.8789 104.82 38.0508C105.143 38.2155 105.558 38.2979 106.066 38.2979C106.432 38.2979 106.74 38.2155 106.99 38.0508C107.248 37.8861 107.452 37.6533 107.603 37.3525C107.76 37.0518 107.871 36.7044 107.936 36.3105C108.007 35.9095 108.043 35.4691 108.043 34.9893ZM96.5273 34.9893V34.7637C96.5273 34.0547 96.5882 33.3887 96.71 32.7656C96.8317 32.1426 97.0072 31.5804 97.2363 31.0791C97.4727 30.5706 97.7627 30.1374 98.1064 29.7793C98.4502 29.4212 98.8477 29.1455 99.2988 28.9521C99.7572 28.7588 100.266 28.6621 100.824 28.6621C101.462 28.6621 102.013 28.7946 102.479 29.0596C102.944 29.3245 103.334 29.6969 103.649 30.1768C103.965 30.6566 104.219 31.2188 104.412 31.8633C104.605 32.5007 104.752 33.1917 104.853 33.9365V35.709C104.752 36.4251 104.605 37.0876 104.412 37.6963C104.219 38.2979 103.961 38.8278 103.639 39.2861C103.324 39.7373 102.933 40.0882 102.468 40.3389C102.002 40.5895 101.447 40.7148 100.803 40.7148C100.115 40.7148 99.5029 40.5752 98.9658 40.2959C98.4359 40.0166 97.9883 39.6227 97.623 39.1143C97.265 38.5986 96.9928 37.9935 96.8066 37.2988C96.6204 36.597 96.5273 35.8271 96.5273 34.9893ZM99.6211 34.7637V34.9893C99.6211 35.4691 99.6533 35.9095 99.7178 36.3105C99.7894 36.7044 99.9004 37.0518 100.051 37.3525C100.208 37.6462 100.412 37.8753 100.663 38.04C100.914 38.2048 101.222 38.2871 101.587 38.2871C102.103 38.2871 102.518 38.2012 102.833 38.0293C103.155 37.8574 103.395 37.6139 103.553 37.2988C103.71 36.9837 103.796 36.6077 103.811 36.1709V33.4854C103.796 32.9984 103.71 32.5758 103.553 32.2178C103.402 31.8525 103.17 31.5732 102.854 31.3799C102.539 31.1794 102.124 31.0791 101.608 31.0791C101.243 31.0791 100.932 31.1758 100.674 31.3691C100.423 31.5625 100.219 31.8275 100.062 32.1641C99.9111 32.5007 99.8001 32.8945 99.7285 33.3457C99.6569 33.7897 99.6211 34.2624 99.6211 34.7637ZM102.264 44.9688V24H105.368V44.9688H102.264Z" fill="#577481"/>
<path d="M91.5 37.8789V32.7012C91.5 32.3288 91.4391 32.0101 91.3174 31.7451C91.1956 31.473 91.0059 31.2617 90.748 31.1113C90.4974 30.9609 90.1715 30.8857 89.7705 30.8857C89.4268 30.8857 89.1296 30.9466 88.8789 31.0684C88.6283 31.1829 88.4349 31.3512 88.2988 31.5732C88.1628 31.7881 88.0947 32.0423 88.0947 32.3359H85.001C85.001 31.8418 85.1156 31.3727 85.3447 30.9287C85.5739 30.4847 85.9069 30.0944 86.3438 29.7578C86.7806 29.4141 87.2998 29.1455 87.9014 28.9521C88.5101 28.7588 89.1904 28.6621 89.9424 28.6621C90.8447 28.6621 91.6468 28.8125 92.3486 29.1133C93.0505 29.4141 93.6019 29.8652 94.0029 30.4668C94.4111 31.0684 94.6152 31.8203 94.6152 32.7227V37.6963C94.6152 38.3337 94.6546 38.8564 94.7334 39.2646C94.8122 39.6657 94.9268 40.0166 95.0771 40.3174V40.5H91.9512C91.8008 40.1849 91.6862 39.791 91.6074 39.3184C91.5358 38.8385 91.5 38.3587 91.5 37.8789ZM91.9082 33.4209L91.9297 35.1719H90.2002C89.792 35.1719 89.4375 35.2184 89.1367 35.3115C88.8359 35.4046 88.5889 35.5371 88.3955 35.709C88.2021 35.8737 88.0589 36.0671 87.9658 36.2891C87.8799 36.5111 87.8369 36.7546 87.8369 37.0195C87.8369 37.2845 87.8978 37.5244 88.0195 37.7393C88.1413 37.9469 88.3167 38.1117 88.5459 38.2334C88.7751 38.348 89.0436 38.4053 89.3516 38.4053C89.8171 38.4053 90.2217 38.3122 90.5654 38.126C90.9092 37.9398 91.1742 37.7106 91.3604 37.4385C91.5537 37.1663 91.654 36.9085 91.6611 36.665L92.4775 37.9756C92.363 38.2692 92.2054 38.5736 92.0049 38.8887C91.8115 39.2038 91.5645 39.501 91.2637 39.7803C90.9629 40.0524 90.6012 40.278 90.1787 40.457C89.7562 40.6289 89.2549 40.7148 88.6748 40.7148C87.9372 40.7148 87.2676 40.568 86.666 40.2744C86.0716 39.9736 85.599 39.5618 85.248 39.0391C84.9043 38.5091 84.7324 37.9076 84.7324 37.2344C84.7324 36.6257 84.847 36.085 85.0762 35.6123C85.3053 35.1396 85.6419 34.7422 86.0859 34.4199C86.5371 34.0905 87.0993 33.8434 87.7725 33.6787C88.4456 33.5068 89.2262 33.4209 90.1143 33.4209H91.9082Z" fill="#577481"/>
<path d="M75.9453 31.1113V44.9688H72.8516V28.877H75.7197L75.9453 31.1113ZM83.3037 34.5596V34.7852C83.3037 35.6302 83.2035 36.4144 83.0029 37.1377C82.8096 37.861 82.5231 38.4912 82.1436 39.0283C81.764 39.5583 81.2913 39.9736 80.7256 40.2744C80.167 40.568 79.5225 40.7148 78.792 40.7148C78.083 40.7148 77.4671 40.5716 76.9443 40.2852C76.4215 39.9987 75.9811 39.5977 75.623 39.082C75.2721 38.5592 74.9893 37.9541 74.7744 37.2666C74.5596 36.5791 74.3949 35.8415 74.2803 35.0537V34.4629C74.3949 33.6178 74.5596 32.8444 74.7744 32.1426C74.9893 31.4336 75.2721 30.8213 75.623 30.3057C75.9811 29.7829 76.418 29.3783 76.9336 29.0918C77.4564 28.8053 78.0687 28.6621 78.7705 28.6621C79.5081 28.6621 80.1562 28.8018 80.7148 29.0811C81.2806 29.3604 81.7533 29.7614 82.1328 30.2842C82.5195 30.807 82.8096 31.43 83.0029 32.1533C83.2035 32.8766 83.3037 33.6787 83.3037 34.5596ZM80.1992 34.7852V34.5596C80.1992 34.0654 80.1562 33.6107 80.0703 33.1953C79.9915 32.7728 79.8626 32.404 79.6836 32.0889C79.5117 31.7738 79.2826 31.5303 78.9961 31.3584C78.7168 31.1794 78.3766 31.0898 77.9756 31.0898C77.5531 31.0898 77.1914 31.1579 76.8906 31.2939C76.597 31.43 76.3571 31.627 76.1709 31.8848C75.9847 32.1426 75.8451 32.4505 75.752 32.8086C75.6589 33.1667 75.6016 33.5713 75.5801 34.0225V35.5156C75.6159 36.0456 75.7161 36.5218 75.8809 36.9443C76.0456 37.3597 76.2998 37.6891 76.6436 37.9326C76.9873 38.1761 77.4385 38.2979 77.9971 38.2979C78.4053 38.2979 78.749 38.2083 79.0283 38.0293C79.3076 37.8431 79.5332 37.5889 79.7051 37.2666C79.8841 36.9443 80.0094 36.5719 80.0811 36.1494C80.1598 35.7269 80.1992 35.2721 80.1992 34.7852Z" fill="#577481"/>
<path d="M67.3516 37.8789V32.7012C67.3516 32.3288 67.2907 32.0101 67.1689 31.7451C67.0472 31.473 66.8574 31.2617 66.5996 31.1113C66.349 30.9609 66.0231 30.8857 65.6221 30.8857C65.2783 30.8857 64.9811 30.9466 64.7305 31.0684C64.4798 31.1829 64.2865 31.3512 64.1504 31.5732C64.0143 31.7881 63.9463 32.0423 63.9463 32.3359H60.8525C60.8525 31.8418 60.9671 31.3727 61.1963 30.9287C61.4255 30.4847 61.7585 30.0944 62.1953 29.7578C62.6322 29.4141 63.1514 29.1455 63.7529 28.9521C64.3617 28.7588 65.042 28.6621 65.7939 28.6621C66.6963 28.6621 67.4984 28.8125 68.2002 29.1133C68.902 29.4141 69.4535 29.8652 69.8545 30.4668C70.2627 31.0684 70.4668 31.8203 70.4668 32.7227V37.6963C70.4668 38.3337 70.5062 38.8564 70.585 39.2646C70.6637 39.6657 70.7783 40.0166 70.9287 40.3174V40.5H67.8027C67.6523 40.1849 67.5378 39.791 67.459 39.3184C67.3874 38.8385 67.3516 38.3587 67.3516 37.8789ZM67.7598 33.4209L67.7812 35.1719H66.0518C65.6436 35.1719 65.2891 35.2184 64.9883 35.3115C64.6875 35.4046 64.4404 35.5371 64.2471 35.709C64.0537 35.8737 63.9105 36.0671 63.8174 36.2891C63.7314 36.5111 63.6885 36.7546 63.6885 37.0195C63.6885 37.2845 63.7493 37.5244 63.8711 37.7393C63.9928 37.9469 64.1683 38.1117 64.3975 38.2334C64.6266 38.348 64.8952 38.4053 65.2031 38.4053C65.6686 38.4053 66.0732 38.3122 66.417 38.126C66.7607 37.9398 67.0257 37.7106 67.2119 37.4385C67.4053 37.1663 67.5055 36.9085 67.5127 36.665L68.3291 37.9756C68.2145 38.2692 68.057 38.5736 67.8564 38.8887C67.6631 39.2038 67.416 39.501 67.1152 39.7803C66.8145 40.0524 66.4528 40.278 66.0303 40.457C65.6077 40.6289 65.1064 40.7148 64.5264 40.7148C63.7887 40.7148 63.1191 40.568 62.5176 40.2744C61.9232 39.9736 61.4505 39.5618 61.0996 39.0391C60.7559 38.5091 60.584 37.9076 60.584 37.2344C60.584 36.6257 60.6986 36.085 60.9277 35.6123C61.1569 35.1396 61.4935 34.7422 61.9375 34.4199C62.3887 34.0905 62.9508 33.8434 63.624 33.6787C64.2972 33.5068 65.0778 33.4209 65.9658 33.4209H67.7598Z" fill="#577481"/>
<path d="M43.4717 24.8594H46.2002L50.2178 36.3428L54.2354 24.8594H56.9639L51.3135 40.5H49.1221L43.4717 24.8594ZM42 24.8594H44.7178L45.2119 36.0527V40.5H42V24.8594ZM55.7178 24.8594H58.4463V40.5H55.2236V36.0527L55.7178 24.8594Z" fill="#577481"/>
</svg>
