<svg width="288" height="120" viewBox="0 0 288 120" fill="none" xmlns="http://www.w3.org/2000/svg">
<path d="M195.673 77.4276L209.794 30H223.545L202.672 89.9433H193.615L195.673 77.4276ZM182.663 30L196.743 77.4276L198.884 89.9433H189.745L168.995 30H182.663Z" fill="#577481"/>
<path d="M147.916 30V89.9433H135.606V30H147.916ZM166.36 30V39.6749H117.45V30H166.36Z" fill="#577481"/>
<path d="M98.6357 30H110.946V69.6054C110.946 74.2164 109.957 78.1001 107.981 81.2564C106.033 84.4128 103.329 86.7869 99.8708 88.3788C96.44 89.9707 92.4877 90.7667 88.0139 90.7667C83.5401 90.7667 79.5604 89.9707 76.0747 88.3788C72.6164 86.7869 69.8992 84.4128 67.9231 81.2564C65.9744 78.1001 65 74.2164 65 69.6054V30H77.3509V69.6054C77.3509 72.2951 77.7764 74.4909 78.6272 76.1925C79.4781 77.8942 80.6994 79.143 82.2913 79.939C83.9107 80.7349 85.8182 81.1329 88.0139 81.1329C90.2645 81.1329 92.1721 80.7349 93.7365 79.939C95.3284 79.143 96.5361 77.8942 97.3595 76.1925C98.2103 74.4909 98.6357 72.2951 98.6357 69.6054V30Z" fill="#577481"/>
</svg>
