<svg width="288" height="120" viewBox="0 0 288 120" fill="none" xmlns="http://www.w3.org/2000/svg">
<g clip-path="url(#clip0_927_27294)">
<path fill-rule="evenodd" clip-rule="evenodd" d="M141.577 24.9028V31.513C139.325 31.3672 136.989 30.8307 134.794 29.7701C129.942 27.4249 118.758 27.1709 119.932 38.7404C121.107 50.3099 135.86 48.3457 140.973 47.608C141.171 47.5795 141.372 47.5558 141.577 47.5355V51.3733C141.192 51.3419 140.794 51.3214 140.382 51.3138C130.416 51.1286 130.634 59.0965 132.646 62.0159C133.91 63.8512 137.125 65.3135 141.577 65.1234V68.9806C137.5 70.0145 136.012 72.3816 136.533 75.262C136.862 77.0774 138.982 78.3435 141.577 78.6846V88.9683L104.514 24.9028H141.577ZM162.151 28.457C163.225 28.4327 163.324 29.7863 163.324 29.7863C163.324 29.7863 163.163 29.9592 162.646 29.9228C162.127 29.8849 161.09 29.5161 160.979 29.3567C160.868 29.196 161.078 28.4828 162.151 28.457ZM145.367 78.524C147.066 78.1536 148.712 77.3634 149.995 76.0644C149.713 76.3261 148.214 77.594 145.367 77.9386V70.342C148.706 69.4868 152.112 67.9188 152.423 61.9403C152.423 61.9403 162.387 56.9674 157.251 49.0887C154.584 44.9961 149.932 43.8136 145.367 43.6007V36.6386C149.504 36.1417 151.958 34.5845 153.358 33.9999C155.131 33.261 156.582 34.4512 156.744 34.8051C156.905 35.159 159.359 38.3122 160.212 38.4419C161.064 38.5702 162.128 38.3122 161.549 37.3152C161.389 37.0409 161.186 36.7383 160.972 36.4127C161.162 36.3817 162.703 36.1494 163.248 36.5181C163.829 36.9112 164.166 38.1906 164.748 38.3014C165.33 38.4123 165.884 37.9974 165.884 37.9974C165.884 37.9974 164.97 38.3567 164.665 37.9974C164.361 37.638 163.752 36.2006 163.003 36.0628C162.264 35.925 161.442 36.2304 160.458 35.6035C160.065 34.9429 159.722 34.2255 159.632 33.496C159.46 32.091 160.065 31.9411 160.968 31.5547C160.968 31.5547 158.614 31.1048 158.195 32.5206C157.776 33.9364 158.71 35.2874 158.71 35.2874C158.71 35.2874 157.228 34.0648 157.196 32.2302C157.163 30.397 159.034 30.5253 160.129 30.5577C161.226 30.5888 163.451 30.9752 163.096 32.2626C162.752 33.5095 162.288 34.4552 162.26 34.5133C162.323 34.4322 163.842 32.472 164.032 31.7155C164.032 31.7155 164.773 31.3291 164.709 31.9411C164.644 32.5517 163.934 34.1296 163.773 34.3863C163.773 34.3863 164.902 33.646 165.257 31.8762C165.257 31.8762 166.804 30.8144 166.353 29.9782C166.353 29.9782 166.192 29.6242 165.257 29.4634C164.321 29.3027 164.354 29.1419 163.934 28.6259C163.516 28.1113 162.647 27.5721 160.212 27.9869C160.212 27.9869 159.129 27.0412 157.775 27.1763C156.421 27.3114 152.766 29.2027 148.976 30.5537C147.896 30.9385 146.674 31.2302 145.367 31.3972V24.9028H182.43L145.367 88.9683V78.524ZM141.577 77.7722C137.553 76.7559 137.561 72.8719 140.925 71.5023C141.132 71.4179 141.35 71.3411 141.577 71.269V77.7722ZM149.587 63.2399C149.587 63.2399 149.404 66.9343 145.367 68.2339V64.5995C146.705 64.2935 148.116 63.8484 149.587 63.2399ZM141.577 62.1164C138.209 62.3039 135.224 60.99 135.021 58.7075C134.794 56.1551 136.632 54.0815 141.577 54.4528V62.1164ZM149.382 59.5842C149.382 59.5842 147.94 60.5792 145.367 61.3702V55.5349C148.103 57.0423 149.382 59.5842 149.382 59.5842ZM145.367 47.5929C150.138 48.1561 154.868 50.4916 154.111 54.1466C153.549 56.8607 151.732 57.8847 151.732 57.8847C151.732 57.8847 150.419 53.9252 145.367 52.152V47.5929ZM141.577 43.608C138.776 43.7235 136.254 44.0143 134.562 43.9632C129.504 43.8092 126.055 41.7449 125.671 39.22C125.287 36.6951 126.207 33.1773 131.036 34.0175C135.833 34.8535 136.015 36.51 141.577 36.7668V43.608ZM97.9492 21.1201L143.472 99.8095L188.995 21.1201H97.9492Z" fill="#A3A3A3"/>
</g>
<defs>
<clipPath id="clip0_927_27294">
<rect width="91" height="79" fill="white" transform="translate(98 21)"/>
</clipPath>
</defs>
</svg>
