<svg width="288" height="120" viewBox="0 0 288 120" fill="none" xmlns="http://www.w3.org/2000/svg">
<path d="M194.957 82.2422V75.8877C194.957 75.4307 194.882 75.0396 194.732 74.7144C194.583 74.3804 194.35 74.1211 194.034 73.9365C193.726 73.752 193.326 73.6597 192.834 73.6597C192.412 73.6597 192.047 73.7344 191.74 73.8838C191.432 74.0244 191.195 74.231 191.028 74.5034C190.861 74.7671 190.777 75.0791 190.777 75.4395H186.98C186.98 74.833 187.121 74.2573 187.402 73.7124C187.684 73.1675 188.092 72.6885 188.628 72.2754C189.165 71.8535 189.802 71.5239 190.54 71.2866C191.287 71.0493 192.122 70.9307 193.045 70.9307C194.152 70.9307 195.137 71.1152 195.998 71.4844C196.859 71.8535 197.536 72.4072 198.028 73.1455C198.529 73.8838 198.78 74.8066 198.78 75.9141V82.0181C198.78 82.8003 198.828 83.4419 198.925 83.9429C199.021 84.4351 199.162 84.8657 199.347 85.2349V85.459H195.51C195.326 85.0723 195.185 84.5889 195.088 84.0088C195 83.4199 194.957 82.8311 194.957 82.2422ZM195.458 76.771L195.484 78.9199H193.361C192.86 78.9199 192.425 78.9771 192.056 79.0913C191.687 79.2056 191.384 79.3682 191.146 79.5791C190.909 79.7812 190.733 80.0186 190.619 80.291C190.514 80.5635 190.461 80.8623 190.461 81.1875C190.461 81.5127 190.536 81.8071 190.685 82.0708C190.834 82.3257 191.05 82.5278 191.331 82.6772C191.612 82.8179 191.942 82.8882 192.32 82.8882C192.891 82.8882 193.388 82.7739 193.81 82.5454C194.231 82.3169 194.557 82.0356 194.785 81.7017C195.022 81.3677 195.146 81.0513 195.154 80.7524L196.156 82.3608C196.016 82.7212 195.822 83.0947 195.576 83.4814C195.339 83.8682 195.036 84.2329 194.667 84.5757C194.297 84.9097 193.854 85.1865 193.335 85.4062C192.816 85.6172 192.201 85.7227 191.489 85.7227C190.584 85.7227 189.762 85.5425 189.024 85.1821C188.294 84.813 187.714 84.3076 187.284 83.666C186.862 83.0156 186.651 82.2773 186.651 81.4512C186.651 80.7041 186.792 80.0405 187.073 79.4604C187.354 78.8804 187.767 78.3926 188.312 77.9971C188.866 77.5928 189.556 77.2896 190.382 77.0874C191.208 76.8765 192.166 76.771 193.256 76.771H195.458Z" fill="#577481"/>
<path d="M179.097 79.5H174.627L174.601 77.0083H178.292C178.785 77.0083 179.185 76.96 179.492 76.8633C179.8 76.7578 180.024 76.604 180.165 76.4019C180.314 76.1909 180.389 75.936 180.389 75.6372C180.389 75.3735 180.34 75.1494 180.244 74.9648C180.156 74.7715 180.02 74.6133 179.835 74.4902C179.65 74.3672 179.417 74.2793 179.136 74.2266C178.864 74.165 178.543 74.1343 178.174 74.1343H176.038V85.459H172.241V71.1943H178.174C179.105 71.1943 179.94 71.2778 180.679 71.4448C181.417 71.603 182.045 71.8447 182.564 72.1699C183.091 72.4951 183.491 72.9082 183.764 73.4092C184.045 73.9014 184.186 74.4858 184.186 75.1626C184.186 75.6021 184.084 76.0151 183.882 76.4019C183.689 76.7886 183.399 77.1313 183.012 77.4302C182.625 77.729 182.146 77.9751 181.575 78.1685C181.013 78.353 180.362 78.4673 179.624 78.5112L179.097 79.5ZM179.097 85.459H173.691L174.997 82.519H179.097C179.562 82.519 179.945 82.4619 180.244 82.3477C180.542 82.2334 180.762 82.0664 180.903 81.8467C181.052 81.6182 181.127 81.3457 181.127 81.0293C181.127 80.7217 181.061 80.4536 180.929 80.2251C180.797 79.9966 180.582 79.8208 180.283 79.6978C179.993 79.5659 179.598 79.5 179.097 79.5H175.55L175.577 77.0083H179.611L180.534 78.0103C181.536 78.0718 182.362 78.2607 183.012 78.5771C183.663 78.8936 184.142 79.2979 184.449 79.79C184.766 80.2734 184.924 80.8052 184.924 81.3853C184.924 82.062 184.796 82.6553 184.542 83.165C184.287 83.6748 183.909 84.1011 183.408 84.4438C182.916 84.7778 182.309 85.0327 181.588 85.2085C180.868 85.3755 180.037 85.459 179.097 85.459Z" fill="#577481"/>
<path d="M156.144 78.4717V78.1948C156.144 77.1489 156.293 76.1865 156.592 75.3076C156.891 74.4199 157.326 73.6509 157.897 73.0005C158.469 72.3501 159.172 71.8447 160.007 71.4844C160.842 71.1152 161.8 70.9307 162.881 70.9307C163.962 70.9307 164.924 71.1152 165.768 71.4844C166.612 71.8447 167.319 72.3501 167.891 73.0005C168.471 73.6509 168.91 74.4199 169.209 75.3076C169.508 76.1865 169.657 77.1489 169.657 78.1948V78.4717C169.657 79.5088 169.508 80.4712 169.209 81.3589C168.91 82.2378 168.471 83.0068 167.891 83.666C167.319 84.3164 166.616 84.8218 165.781 85.1821C164.946 85.5425 163.988 85.7227 162.907 85.7227C161.826 85.7227 160.864 85.5425 160.02 85.1821C159.185 84.8218 158.478 84.3164 157.897 83.666C157.326 83.0068 156.891 82.2378 156.592 81.3589C156.293 80.4712 156.144 79.5088 156.144 78.4717ZM159.941 78.1948V78.4717C159.941 79.0693 159.994 79.6274 160.099 80.146C160.205 80.6646 160.372 81.1216 160.6 81.5171C160.837 81.9038 161.145 82.207 161.523 82.4268C161.901 82.6465 162.362 82.7563 162.907 82.7563C163.435 82.7563 163.887 82.6465 164.265 82.4268C164.643 82.207 164.946 81.9038 165.175 81.5171C165.403 81.1216 165.57 80.6646 165.676 80.146C165.79 79.6274 165.847 79.0693 165.847 78.4717V78.1948C165.847 77.6147 165.79 77.0698 165.676 76.5601C165.57 76.0415 165.399 75.5845 165.162 75.189C164.933 74.7847 164.63 74.4683 164.252 74.2397C163.874 74.0112 163.417 73.897 162.881 73.897C162.345 73.897 161.888 74.0112 161.51 74.2397C161.141 74.4683 160.837 74.7847 160.6 75.189C160.372 75.5845 160.205 76.0415 160.099 76.5601C159.994 77.0698 159.941 77.6147 159.941 78.1948Z" fill="#577481"/>
<path d="M149.209 78.6562H146.388V76.9556H148.405C148.88 76.9556 149.258 76.8896 149.539 76.7578C149.829 76.626 150.036 76.4414 150.159 76.2041C150.291 75.958 150.356 75.6812 150.356 75.3735C150.356 75.1011 150.299 74.8418 150.185 74.5957C150.08 74.3408 149.886 74.1343 149.605 73.9761C149.333 73.8091 148.946 73.7256 148.445 73.7256C148.032 73.7256 147.663 73.7871 147.337 73.9102C147.021 74.0332 146.771 74.2134 146.586 74.4507C146.41 74.6792 146.322 74.9561 146.322 75.2812H142.512C142.512 74.376 142.771 73.6025 143.29 72.9609C143.809 72.3105 144.503 71.814 145.373 71.4712C146.243 71.1196 147.197 70.9438 148.234 70.9438C149.139 70.9438 149.957 71.0361 150.686 71.2207C151.416 71.3965 152.04 71.6602 152.558 72.0117C153.077 72.3633 153.472 72.7983 153.745 73.3169C154.026 73.8267 154.167 74.4199 154.167 75.0967C154.167 75.5801 154.052 76.0371 153.824 76.4678C153.595 76.8984 153.266 77.2808 152.835 77.6147C152.404 77.9399 151.881 78.1948 151.266 78.3794C150.66 78.564 149.974 78.6562 149.209 78.6562ZM146.388 77.707H149.209C150.062 77.707 150.809 77.7905 151.451 77.9575C152.101 78.1157 152.646 78.353 153.085 78.6694C153.525 78.9858 153.854 79.377 154.074 79.8428C154.303 80.2998 154.417 80.8271 154.417 81.4248C154.417 82.1016 154.268 82.708 153.969 83.2441C153.67 83.7715 153.244 84.2197 152.69 84.5889C152.136 84.958 151.481 85.2393 150.726 85.4326C149.97 85.626 149.139 85.7227 148.234 85.7227C147.267 85.7227 146.327 85.5645 145.413 85.248C144.499 84.9316 143.747 84.4438 143.158 83.7847C142.578 83.1255 142.288 82.2773 142.288 81.2402H146.098C146.098 81.5391 146.186 81.8203 146.362 82.084C146.538 82.3477 146.801 82.5586 147.153 82.7168C147.504 82.8662 147.939 82.9409 148.458 82.9409C148.977 82.9409 149.394 82.8574 149.71 82.6904C150.027 82.5234 150.255 82.3037 150.396 82.0312C150.545 81.75 150.62 81.46 150.62 81.1611C150.62 80.7393 150.537 80.3965 150.37 80.1328C150.211 79.8691 149.965 79.6758 149.631 79.5527C149.306 79.4297 148.897 79.3682 148.405 79.3682H146.388V77.707Z" fill="#577481"/>
<path d="M131.346 80.1592L136.131 71.1943H139.928V85.459H136.131V76.481L131.346 85.459H127.549V71.1943H131.346V80.1592Z" fill="#577481"/>
<path d="M121.26 79.0913H125.202C125.123 80.3833 124.767 81.5303 124.134 82.5322C123.51 83.5342 122.636 84.3164 121.511 84.8789C120.395 85.4414 119.05 85.7227 117.477 85.7227C116.246 85.7227 115.143 85.5117 114.167 85.0898C113.192 84.6592 112.357 84.0439 111.663 83.2441C110.977 82.4443 110.454 81.4775 110.094 80.3438C109.733 79.21 109.553 77.9399 109.553 76.5337V75.2021C109.553 73.7959 109.738 72.5259 110.107 71.3921C110.485 70.2495 111.021 69.2783 111.715 68.4785C112.418 67.6787 113.258 67.0635 114.233 66.6328C115.209 66.2021 116.299 65.9868 117.503 65.9868C119.103 65.9868 120.452 66.2769 121.55 66.8569C122.658 67.437 123.515 68.2368 124.121 69.2563C124.736 70.2759 125.105 71.436 125.229 72.7368H121.273C121.229 71.9634 121.076 71.3086 120.812 70.7725C120.548 70.2275 120.148 69.8188 119.612 69.5464C119.085 69.2651 118.382 69.1245 117.503 69.1245C116.844 69.1245 116.268 69.2476 115.776 69.4937C115.284 69.7397 114.871 70.1133 114.537 70.6143C114.203 71.1152 113.952 71.748 113.785 72.5127C113.627 73.2686 113.548 74.1562 113.548 75.1758V76.5337C113.548 77.5269 113.623 78.4014 113.772 79.1572C113.921 79.9043 114.15 80.5371 114.458 81.0557C114.774 81.5654 115.178 81.9521 115.67 82.2158C116.171 82.4707 116.773 82.5981 117.477 82.5981C118.303 82.5981 118.984 82.4663 119.52 82.2026C120.056 81.939 120.465 81.5479 120.746 81.0293C121.036 80.5107 121.208 79.8647 121.26 79.0913Z" fill="#577481"/>
<path d="M91.6631 80.1592L96.4487 71.1943H100.246V85.459H96.4487V76.481L91.6631 85.459H87.8662V71.1943H91.6631V80.1592Z" fill="#577481"/>
<path d="M248.086 50.2422V43.8877C248.086 43.4307 248.012 43.0396 247.862 42.7144C247.713 42.3804 247.48 42.1211 247.164 41.9365C246.856 41.752 246.456 41.6597 245.964 41.6597C245.542 41.6597 245.177 41.7344 244.87 41.8838C244.562 42.0244 244.325 42.231 244.158 42.5034C243.991 42.7671 243.907 43.0791 243.907 43.4395H240.11C240.11 42.833 240.251 42.2573 240.532 41.7124C240.813 41.1675 241.222 40.6885 241.758 40.2754C242.294 39.8535 242.932 39.5239 243.67 39.2866C244.417 39.0493 245.252 38.9307 246.175 38.9307C247.282 38.9307 248.267 39.1152 249.128 39.4844C249.989 39.8535 250.666 40.4072 251.158 41.1455C251.659 41.8838 251.91 42.8066 251.91 43.9141V50.0181C251.91 50.8003 251.958 51.4419 252.055 51.9429C252.151 52.4351 252.292 52.8657 252.477 53.2349V53.459H248.64C248.456 53.0723 248.315 52.5889 248.218 52.0088C248.13 51.4199 248.086 50.8311 248.086 50.2422ZM248.587 44.771L248.614 46.9199H246.491C245.99 46.9199 245.555 46.9771 245.186 47.0913C244.817 47.2056 244.514 47.3682 244.276 47.5791C244.039 47.7812 243.863 48.0186 243.749 48.291C243.644 48.5635 243.591 48.8623 243.591 49.1875C243.591 49.5127 243.666 49.8071 243.815 50.0708C243.964 50.3257 244.18 50.5278 244.461 50.6772C244.742 50.8179 245.072 50.8882 245.45 50.8882C246.021 50.8882 246.518 50.7739 246.939 50.5454C247.361 50.3169 247.687 50.0356 247.915 49.7017C248.152 49.3677 248.275 49.0513 248.284 48.7524L249.286 50.3608C249.146 50.7212 248.952 51.0947 248.706 51.4814C248.469 51.8682 248.166 52.2329 247.796 52.5757C247.427 52.9097 246.983 53.1865 246.465 53.4062C245.946 53.6172 245.331 53.7227 244.619 53.7227C243.714 53.7227 242.892 53.5425 242.154 53.1821C241.424 52.813 240.844 52.3076 240.414 51.666C239.992 51.0156 239.781 50.2773 239.781 49.4512C239.781 48.7041 239.921 48.0405 240.203 47.4604C240.484 46.8804 240.897 46.3926 241.442 45.9971C241.996 45.5928 242.686 45.2896 243.512 45.0874C244.338 44.8765 245.296 44.771 246.386 44.771H248.587Z" fill="#577481"/>
<path d="M234.863 44.9556V47.9087H227.612V44.9556H234.863ZM228.878 39.1943V53.459H225.081V39.1943H228.878ZM237.434 39.1943V53.459H233.624V39.1943H237.434Z" fill="#577481"/>
<path d="M213.585 48.1592L218.371 39.1943H222.167V53.459H218.371V44.481L213.585 53.459H209.788V39.1943H213.585V48.1592Z" fill="#577481"/>
<path d="M203.275 39.1943V53.459H199.465V39.1943H203.275ZM207.863 39.1943V42.1343H194.943V39.1943H207.863Z" fill="#577481"/>
<path d="M180.534 46.4717V46.1948C180.534 45.1489 180.683 44.1865 180.982 43.3076C181.281 42.4199 181.716 41.6509 182.287 41.0005C182.858 40.3501 183.562 39.8447 184.396 39.4844C185.231 39.1152 186.189 38.9307 187.271 38.9307C188.352 38.9307 189.314 39.1152 190.158 39.4844C191.001 39.8447 191.709 40.3501 192.28 41.0005C192.86 41.6509 193.3 42.4199 193.599 43.3076C193.897 44.1865 194.047 45.1489 194.047 46.1948V46.4717C194.047 47.5088 193.897 48.4712 193.599 49.3589C193.3 50.2378 192.86 51.0068 192.28 51.666C191.709 52.3164 191.006 52.8218 190.171 53.1821C189.336 53.5425 188.378 53.7227 187.297 53.7227C186.216 53.7227 185.253 53.5425 184.41 53.1821C183.575 52.8218 182.867 52.3164 182.287 51.666C181.716 51.0068 181.281 50.2378 180.982 49.3589C180.683 48.4712 180.534 47.5088 180.534 46.4717ZM184.331 46.1948V46.4717C184.331 47.0693 184.383 47.6274 184.489 48.146C184.594 48.6646 184.761 49.1216 184.99 49.5171C185.227 49.9038 185.535 50.207 185.913 50.4268C186.291 50.6465 186.752 50.7563 187.297 50.7563C187.824 50.7563 188.277 50.6465 188.655 50.4268C189.033 50.207 189.336 49.9038 189.564 49.5171C189.793 49.1216 189.96 48.6646 190.065 48.146C190.18 47.6274 190.237 47.0693 190.237 46.4717V46.1948C190.237 45.6147 190.18 45.0698 190.065 44.5601C189.96 44.0415 189.789 43.5845 189.551 43.189C189.323 42.7847 189.02 42.4683 188.642 42.2397C188.264 42.0112 187.807 41.897 187.271 41.897C186.734 41.897 186.277 42.0112 185.899 42.2397C185.53 42.4683 185.227 42.7847 184.99 43.189C184.761 43.5845 184.594 44.0415 184.489 44.5601C184.383 45.0698 184.331 45.6147 184.331 46.1948Z" fill="#577481"/>
<path d="M170.91 39.1943L173.27 43.5317L175.695 39.1943H179.743L175.708 46.1685L179.927 53.459H175.867L173.296 48.8711L170.725 53.459H166.665L170.883 46.1685L166.849 39.1943H170.91Z" fill="#577481"/>
<path d="M165.241 43.4131V44.3228C165.241 45.7817 165.043 47.0913 164.647 48.2515C164.252 49.4116 163.694 50.4004 162.973 51.2178C162.252 52.0264 161.391 52.646 160.389 53.0767C159.396 53.5073 158.293 53.7227 157.08 53.7227C155.876 53.7227 154.773 53.5073 153.771 53.0767C152.778 52.646 151.917 52.0264 151.187 51.2178C150.458 50.4004 149.891 49.4116 149.486 48.2515C149.091 47.0913 148.893 45.7817 148.893 44.3228V43.4131C148.893 41.9453 149.091 40.6357 149.486 39.4844C149.882 38.3242 150.44 37.3354 151.161 36.5181C151.89 35.7007 152.751 35.0767 153.745 34.646C154.747 34.2153 155.85 34 157.054 34C158.267 34 159.37 34.2153 160.363 34.646C161.365 35.0767 162.226 35.7007 162.947 36.5181C163.676 37.3354 164.239 38.3242 164.634 39.4844C165.039 40.6357 165.241 41.9453 165.241 43.4131ZM161.246 44.3228V43.3867C161.246 42.3672 161.154 41.4707 160.969 40.6973C160.785 39.9238 160.512 39.2734 160.152 38.7461C159.792 38.2188 159.352 37.8232 158.833 37.5596C158.315 37.2871 157.722 37.1509 157.054 37.1509C156.386 37.1509 155.792 37.2871 155.274 37.5596C154.764 37.8232 154.329 38.2188 153.969 38.7461C153.617 39.2734 153.349 39.9238 153.165 40.6973C152.98 41.4707 152.888 42.3672 152.888 43.3867V44.3228C152.888 45.3335 152.98 46.23 153.165 47.0122C153.349 47.7856 153.622 48.4404 153.982 48.9766C154.342 49.5039 154.782 49.9038 155.3 50.1763C155.819 50.4487 156.412 50.585 157.08 50.585C157.748 50.585 158.341 50.4487 158.86 50.1763C159.378 49.9038 159.813 49.5039 160.165 48.9766C160.517 48.4404 160.785 47.7856 160.969 47.0122C161.154 46.23 161.246 45.3335 161.246 44.3228Z" fill="#577481"/>
<path d="M135.986 39.1943V53.459H132.176V39.1943H135.986ZM140.574 39.1943V42.1343H127.654V39.1943H140.574Z" fill="#577481"/>
<path d="M120.535 50.7563C121.001 50.7563 121.414 50.6685 121.774 50.4927C122.135 50.3081 122.416 50.0532 122.618 49.728C122.829 49.394 122.939 49.0029 122.948 48.5547H126.521C126.512 49.5566 126.244 50.4487 125.716 51.231C125.189 52.0044 124.481 52.6152 123.594 53.0635C122.706 53.5029 121.713 53.7227 120.614 53.7227C119.507 53.7227 118.54 53.5381 117.714 53.1689C116.896 52.7998 116.215 52.29 115.67 51.6396C115.125 50.9805 114.717 50.2158 114.444 49.3457C114.172 48.4668 114.036 47.5264 114.036 46.5244V46.1421C114.036 45.1313 114.172 44.1909 114.444 43.3208C114.717 42.4419 115.125 41.6772 115.67 41.0269C116.215 40.3677 116.896 39.8535 117.714 39.4844C118.531 39.1152 119.489 38.9307 120.588 38.9307C121.757 38.9307 122.781 39.1548 123.66 39.603C124.547 40.0513 125.242 40.6929 125.743 41.5278C126.252 42.354 126.512 43.334 126.521 44.4678H122.948C122.939 43.9932 122.838 43.5625 122.645 43.1758C122.46 42.7891 122.188 42.4814 121.827 42.2529C121.476 42.0156 121.041 41.897 120.522 41.897C119.968 41.897 119.516 42.0156 119.164 42.2529C118.812 42.4814 118.54 42.7979 118.347 43.2021C118.153 43.5977 118.017 44.0503 117.938 44.5601C117.868 45.061 117.833 45.5884 117.833 46.1421V46.5244C117.833 47.0781 117.868 47.6099 117.938 48.1196C118.008 48.6294 118.14 49.082 118.333 49.4775C118.536 49.873 118.812 50.1851 119.164 50.4136C119.516 50.6421 119.973 50.7563 120.535 50.7563Z" fill="#577481"/>
<path d="M107.892 50.2422V43.8877C107.892 43.4307 107.817 43.0396 107.668 42.7144C107.519 42.3804 107.286 42.1211 106.969 41.9365C106.662 41.752 106.262 41.6597 105.77 41.6597C105.348 41.6597 104.983 41.7344 104.675 41.8838C104.368 42.0244 104.13 42.231 103.963 42.5034C103.796 42.7671 103.713 43.0791 103.713 43.4395H99.916C99.916 42.833 100.057 42.2573 100.338 41.7124C100.619 41.1675 101.028 40.6885 101.564 40.2754C102.1 39.8535 102.737 39.5239 103.476 39.2866C104.223 39.0493 105.058 38.9307 105.98 38.9307C107.088 38.9307 108.072 39.1152 108.934 39.4844C109.795 39.8535 110.472 40.4072 110.964 41.1455C111.465 41.8838 111.715 42.8066 111.715 43.9141V50.0181C111.715 50.8003 111.764 51.4419 111.86 51.9429C111.957 52.4351 112.098 52.8657 112.282 53.2349V53.459H108.446C108.261 53.0723 108.121 52.5889 108.024 52.0088C107.936 51.4199 107.892 50.8311 107.892 50.2422ZM108.393 44.771L108.419 46.9199H106.297C105.796 46.9199 105.361 46.9771 104.992 47.0913C104.623 47.2056 104.319 47.3682 104.082 47.5791C103.845 47.7812 103.669 48.0186 103.555 48.291C103.449 48.5635 103.396 48.8623 103.396 49.1875C103.396 49.5127 103.471 49.8071 103.621 50.0708C103.77 50.3257 103.985 50.5278 104.267 50.6772C104.548 50.8179 104.877 50.8882 105.255 50.8882C105.827 50.8882 106.323 50.7739 106.745 50.5454C107.167 50.3169 107.492 50.0356 107.721 49.7017C107.958 49.3677 108.081 49.0513 108.09 48.7524L109.092 50.3608C108.951 50.7212 108.758 51.0947 108.512 51.4814C108.274 51.8682 107.971 52.2329 107.602 52.5757C107.233 52.9097 106.789 53.1865 106.271 53.4062C105.752 53.6172 105.137 53.7227 104.425 53.7227C103.52 53.7227 102.698 53.5425 101.959 53.1821C101.23 52.813 100.65 52.3076 100.219 51.666C99.7974 51.0156 99.5864 50.2773 99.5864 49.4512C99.5864 48.7041 99.7271 48.0405 100.008 47.4604C100.29 46.8804 100.703 46.3926 101.248 45.9971C101.801 45.5928 102.491 45.2896 103.317 45.0874C104.144 44.8765 105.102 44.771 106.191 44.771H108.393Z" fill="#577481"/>
<path d="M89.0527 39.1943V53.459H85.2559V39.1943H89.0527ZM98.3208 39.1943L92.1772 48.1196H88.3804L87.9189 44.6128H90.437L93.5088 39.1943H98.3208ZM93.6802 53.459L90.1733 47.4341L93.4824 45.6016L98.769 53.459H93.6802Z" fill="#577481"/>
<path d="M70.7012 39.1943H74.498L74.3794 43.9668C74.3442 45.4961 74.1685 46.8101 73.8521 47.9087C73.5356 49.0073 73.1138 49.9302 72.5864 50.6772C72.0591 51.4243 71.457 52.022 70.7803 52.4702C70.1123 52.9097 69.4092 53.2393 68.6709 53.459H67.959L67.9194 50.5322L68.3149 50.4927C68.7632 50.0269 69.1323 49.5742 69.4224 49.1348C69.7124 48.6865 69.9365 48.2163 70.0947 47.7241C70.2529 47.2319 70.3672 46.6826 70.4375 46.0762C70.5166 45.4697 70.5649 44.7666 70.5825 43.9668L70.7012 39.1943ZM71.7295 39.1943H81.1821V53.459H77.3984V42.2397H71.7295V39.1943ZM67.0889 50.4927H83.2256V57.7437H79.4287V53.459H70.978V57.7437H67.0889V50.4927Z" fill="#577481"/>
<path d="M53.2329 46.4717V46.1948C53.2329 45.1489 53.3823 44.1865 53.6812 43.3076C53.98 42.4199 54.415 41.6509 54.9863 41.0005C55.5576 40.3501 56.2607 39.8447 57.0957 39.4844C57.9307 39.1152 58.8887 38.9307 59.9697 38.9307C61.0508 38.9307 62.0132 39.1152 62.8569 39.4844C63.7007 39.8447 64.4082 40.3501 64.9795 41.0005C65.5596 41.6509 65.999 42.4199 66.2979 43.3076C66.5967 44.1865 66.7461 45.1489 66.7461 46.1948V46.4717C66.7461 47.5088 66.5967 48.4712 66.2979 49.3589C65.999 50.2378 65.5596 51.0068 64.9795 51.666C64.4082 52.3164 63.7051 52.8218 62.8701 53.1821C62.0352 53.5425 61.0771 53.7227 59.9961 53.7227C58.915 53.7227 57.9526 53.5425 57.1089 53.1821C56.2739 52.8218 55.5664 52.3164 54.9863 51.666C54.415 51.0068 53.98 50.2378 53.6812 49.3589C53.3823 48.4712 53.2329 47.5088 53.2329 46.4717ZM57.0298 46.1948V46.4717C57.0298 47.0693 57.0825 47.6274 57.188 48.146C57.2935 48.6646 57.4604 49.1216 57.689 49.5171C57.9263 49.9038 58.2339 50.207 58.6118 50.4268C58.9897 50.6465 59.4512 50.7563 59.9961 50.7563C60.5234 50.7563 60.9761 50.6465 61.354 50.4268C61.7319 50.207 62.0352 49.9038 62.2637 49.5171C62.4922 49.1216 62.6592 48.6646 62.7646 48.146C62.8789 47.6274 62.936 47.0693 62.936 46.4717V46.1948C62.936 45.6147 62.8789 45.0698 62.7646 44.5601C62.6592 44.0415 62.4878 43.5845 62.2505 43.189C62.022 42.7847 61.7188 42.4683 61.3408 42.2397C60.9629 42.0112 60.5059 41.897 59.9697 41.897C59.4336 41.897 58.9766 42.0112 58.5986 42.2397C58.2295 42.4683 57.9263 42.7847 57.689 43.189C57.4604 43.5845 57.2935 44.0415 57.188 44.5601C57.0825 45.0698 57.0298 45.6147 57.0298 46.1948Z" fill="#577481"/>
<path d="M50.6226 34.2637V53.459H46.6675V37.3618H38.9551V53.459H35V34.2637H50.6226Z" fill="#577481"/>
</svg>
