<svg width="288" height="120" viewBox="0 0 288 120" fill="none" xmlns="http://www.w3.org/2000/svg">
<g clip-path="url(#clip0_927_27292)">
<mask id="mask0_927_27292" style="mask-type:luminance" maskUnits="userSpaceOnUse" x="49" y="41" width="190" height="39">
<path d="M49 41H239V80H49V41Z" fill="white"/>
</mask>
<g mask="url(#mask0_927_27292)">
<path fill-rule="evenodd" clip-rule="evenodd" d="M73.4431 74.6175L74.8031 75.6775C75.3101 76.0035 82.6931 81.9715 82.4221 79.3455L81.8481 73.0595C87.4311 72.6115 91.9281 67.7355 91.9281 61.7915C91.9281 56.3085 91.3621 48.3535 87.0311 47.3835C89.9071 51.5235 89.2071 55.9965 89.2071 60.7445C89.2071 66.7545 85.6321 71.3445 79.4861 70.9285C79.3111 70.9402 79.1417 70.9952 78.9931 71.0885C78.8451 71.1805 78.7231 71.3085 78.6401 71.4585C78.6001 71.5355 78.6151 73.6085 78.6151 74.1085C76.9341 73.6745 75.2171 70.9555 72.0451 70.4885C69.8251 70.1635 64.5761 70.4305 62.0451 70.4415C56.1121 70.4495 52.2651 66.2615 52.2651 60.4715V53.3965C52.2651 48.0965 56.7401 43.9655 62.3121 43.9655H70.7471C73.0071 43.9655 75.4731 44.7925 76.7791 45.7455C78.1911 46.7745 79.7721 49.3715 80.6181 49.9705C80.0171 47.4875 78.9851 45.7305 77.3371 44.1585C74.9231 41.8855 73.4201 42.4015 71.2691 41.0845C65.2971 41.0845 60.0681 40.5205 55.6991 42.3065C52.6431 43.5655 48.9781 47.8075 48.9991 51.8255V63.0895C48.9991 67.4995 53.6991 71.3575 57.0531 72.8755C61.3111 74.7995 69.5691 72.6405 73.4431 74.6175Z" fill="#F28029"/>
<path fill-rule="evenodd" clip-rule="evenodd" d="M71.0001 51.825C71.5041 50.98 72.5271 51.118 72.6331 52.09C72.6149 52.1952 72.5758 52.2957 72.5183 52.3857C72.4608 52.4756 72.3859 52.5532 72.2981 52.614C72.1185 52.7377 71.8981 52.7873 71.6828 52.7522C71.4675 52.7172 71.2741 52.6003 71.1431 52.426C71.0802 52.3407 71.0352 52.2436 71.0106 52.1405C70.9861 52.0374 70.9825 51.9305 71.0001 51.826V51.825ZM80.5041 49.729C81.2281 51.542 81.3201 53.081 81.3201 54.971C81.3201 60.006 75.1601 63.615 69.6431 63.615H67.7381C64.8981 63.615 61.7521 61.474 61.7521 58.638V58.373C61.7521 56.868 62.9961 54.706 64.2011 54.706C64.5611 54.706 67.0521 55.766 69.0981 55.766H71.2751C73.0411 55.766 77.2611 55.44 77.2611 53.932V53.667C77.2611 52.652 72.3361 49.999 71.2751 49.999H70.1871C68.5711 49.999 68.1841 50.407 66.6911 50.694C55.1161 53.632 56.1531 67.02 68.2821 67.02H69.3701C76.9201 67.02 84.8521 62.057 84.8521 54.97C84.8521 50.826 83.6761 47.683 80.5721 44.686C78.0821 42.283 76.1531 41.085 71.2701 41.085C73.4221 42.41 74.9241 41.88 77.3181 44.159C78.9194 45.6484 80.0304 47.589 80.5041 49.724V49.729Z" fill="#52B773"/>
<path d="M118.652 61.355C118.669 62.1214 118.532 62.8835 118.249 63.596C117.998 64.2076 117.608 64.752 117.109 65.186C116.593 65.6216 115.987 65.939 115.335 66.1159C114.581 66.3221 113.802 66.4221 113.02 66.413H100.578V49.718H111.915C112.649 49.7111 113.381 49.8002 114.092 49.983C114.739 50.1477 115.347 50.4401 115.879 50.843C116.388 51.236 116.799 51.742 117.079 52.321C117.389 52.986 117.539 53.711 117.52 54.441C117.53 55.041 117.419 55.637 117.19 56.195C116.94 56.7462 116.535 57.2135 116.026 57.541C116.786 57.886 117.443 58.416 117.931 59.081C118.413 59.745 118.667 60.541 118.652 61.355ZM114.412 54.415C114.425 54.0715 114.349 53.7305 114.192 53.425C114.052 53.1689 113.85 52.9515 113.605 52.792C113.343 52.6264 113.052 52.5099 112.748 52.448C112.41 52.3746 112.065 52.3381 111.719 52.339H103.761V56.609H112.122C112.722 56.6258 113.306 56.4122 113.754 56.012C113.974 55.807 114.147 55.558 114.26 55.282C114.374 55.007 114.426 54.711 114.413 54.414L114.412 54.415ZM115.466 61.355C115.474 61.0235 115.399 60.6954 115.246 60.401C115.102 60.1337 114.896 59.9046 114.646 59.733C114.386 59.5549 114.096 59.4254 113.79 59.351C113.465 59.2708 113.132 59.2308 112.797 59.232H103.76V63.79H112.526C113.265 63.8208 113.996 63.6366 114.632 63.26C115.187 62.898 115.465 62.263 115.465 61.355H115.466ZM136.206 59.995C136.237 61.0435 136.024 62.085 135.583 63.037C135.189 63.8438 134.615 64.5492 133.905 65.099C133.176 65.6532 132.343 66.0551 131.455 66.281C130.498 66.531 129.509 66.6539 128.517 66.649C127.558 66.6578 126.605 66.4974 125.701 66.1749C124.903 65.8969 124.171 65.4578 123.549 64.885V70.895H120.366V53.485H123.549V55.105C124.169 54.5122 124.902 54.05 125.704 53.746C126.603 53.4033 127.558 53.2337 128.52 53.246C129.514 53.241 130.503 53.374 131.459 53.64C132.352 53.884 133.185 54.301 133.907 54.867C134.623 55.442 135.197 56.167 135.586 56.987C136.02 57.932 136.232 58.96 136.206 59.995ZM132.901 60.019C132.901 58.619 132.468 57.579 131.603 56.895C130.738 56.211 129.619 55.869 128.248 55.869C127.604 55.8589 126.961 55.9483 126.344 56.134C125.796 56.2996 125.288 56.5756 124.85 56.945C124.43 57.306 124.1 57.755 123.881 58.257C123.647 58.8143 123.534 59.4148 123.549 60.019C123.537 60.6162 123.663 61.2082 123.917 61.749C124.149 62.231 124.488 62.656 124.91 62.995C125.348 63.34 125.85 63.599 126.39 63.758C126.993 63.938 127.62 64.028 128.25 64.023C128.868 64.0284 129.483 63.95 130.08 63.79C130.617 63.6482 131.121 63.4015 131.562 63.064C131.984 62.731 132.319 62.306 132.542 61.824C132.794 61.254 132.916 60.639 132.901 60.019ZM149.628 66.41V65.314C148.943 65.863 148.138 66.2432 147.278 66.424C146.424 66.6019 145.554 66.691 144.682 66.6889C143.91 66.6872 143.138 66.6519 142.369 66.583C141.607 66.5233 140.859 66.3528 140.146 66.077C139.491 65.8228 138.915 65.3994 138.476 64.85C138.042 64.31 137.826 63.562 137.826 62.608C137.811 61.9972 137.954 61.3929 138.242 60.854C138.521 60.3602 138.922 59.9461 139.406 59.651C139.954 59.3209 140.554 59.0869 141.18 58.959C141.929 58.8011 142.692 58.7247 143.457 58.731H149.628V58.326C149.648 57.8793 149.509 57.4399 149.236 57.086C148.969 56.7627 148.63 56.506 148.246 56.336C147.834 56.1489 147.397 56.0236 146.948 55.964C146.514 55.9028 146.076 55.871 145.637 55.869C145.261 55.869 144.867 55.885 144.45 55.917C144.037 55.947 143.63 56.028 143.237 56.155C142.841 56.2816 142.473 56.4803 142.149 56.741C141.798 57.03 141.519 57.392 141.332 57.801L138.369 57.061C138.609 56.362 138.997 55.72 139.509 55.178C139.986 54.6875 140.551 54.2907 141.174 54.008C141.832 53.7135 142.528 53.5132 143.242 53.413C144.029 53.299 144.822 53.243 145.618 53.246C146.468 53.247 147.318 53.327 148.153 53.484C148.963 53.6265 149.744 53.9004 150.466 54.295C151.148 54.6657 151.731 55.1957 152.164 55.84C152.621 56.575 152.846 57.425 152.811 58.283V66.4109L149.628 66.41ZM149.628 60.782H143.751C143.452 60.7838 143.154 60.8079 142.859 60.854C142.557 60.8973 142.263 60.9867 141.988 61.119C141.731 61.242 141.508 61.424 141.34 61.649C141.159 61.9104 141.068 62.2241 141.082 62.542C141.065 62.831 141.162 63.115 141.354 63.337C141.547 63.538 141.785 63.694 142.051 63.79C142.33 63.896 142.621 63.968 142.918 64.005C143.194 64.042 143.472 64.061 143.751 64.063H145.315C145.747 64.0563 146.177 64.0162 146.602 63.943C147.094 63.872 147.575 63.743 148.036 63.563C148.463 63.393 148.85 63.142 149.174 62.823C149.324 62.67 149.442 62.489 149.52 62.291C149.598 62.093 149.635 61.881 149.628 61.67V60.782ZM157.627 53.505V57.048C157.607 57.621 157.699 58.192 157.899 58.731C158.07 59.159 158.351 59.537 158.715 59.828C159.085 60.116 159.515 60.319 159.975 60.424C160.505 60.5474 161.047 60.6071 161.591 60.602C162.236 60.612 162.879 60.522 163.496 60.337C164.05 60.1682 164.566 59.8931 165.014 59.527C165.445 59.1717 165.788 58.7225 166.018 58.214C166.261 57.6617 166.382 57.0633 166.372 56.46V53.505H169.555V66.4109H166.372V61.376C165.749 61.9556 165.022 62.4132 164.23 62.725C163.277 63.085 162.26 63.259 161.237 63.236C160.293 63.246 159.351 63.139 158.435 62.916C157.65 62.7266 156.918 62.3645 156.291 61.856C155.684 61.3447 155.216 60.6879 154.931 59.947C154.589 59.028 154.427 58.0521 154.452 57.072V53.505H157.627ZM184.348 66.41V64.85C183.716 65.4617 182.954 65.9228 182.119 66.1989C181.178 66.5044 180.194 66.6531 179.205 66.639C178.283 66.6465 177.363 66.5502 176.463 66.3519C175.688 66.1885 174.958 65.8597 174.322 65.388C173.707 64.9098 173.226 64.2808 172.926 63.562C172.566 62.6605 172.394 61.6944 172.423 60.724V53.484H175.606V60.639C175.583 61.2236 175.676 61.8071 175.878 62.356C176.043 62.771 176.326 63.132 176.694 63.396C177.074 63.653 177.508 63.824 177.965 63.896C178.499 63.9867 179.04 64.0302 179.581 64.026C180.226 64.036 180.869 63.946 181.486 63.761C182.04 63.5916 182.556 63.3162 183.004 62.95C183.436 62.5912 183.78 62.1378 184.008 61.625C184.252 61.0728 184.372 60.4743 184.361 59.871V53.484H187.545V66.4109L184.348 66.41ZM213.582 54.844C213.595 55.577 213.432 56.303 213.106 56.964C212.797 57.5788 212.368 58.1256 211.844 58.572C211.309 59.024 210.69 59.372 210.021 59.598C209.32 59.8375 208.585 59.9582 207.844 59.955H199.258V66.4109H196.074V49.716H207.755C208.523 49.7114 209.287 49.8241 210.021 50.05C210.696 50.2547 211.324 50.5912 211.868 51.04C212.421 51.5047 212.862 52.088 213.159 52.7465C213.456 53.405 213.6 54.1219 213.582 54.844ZM210.317 54.844C210.317 54.033 210.061 53.414 209.548 52.989C208.989 52.5451 208.289 52.3166 207.575 52.345H199.249V57.324H207.648C208.344 57.3471 209.024 57.1088 209.553 56.656C209.81 56.427 210.012 56.146 210.146 55.833C210.279 55.52 210.341 55.183 210.326 54.843L210.317 54.844ZM225.431 66.308V59.645H220.822C218.845 59.645 217.385 59.175 216.442 58.233C215.499 57.291 215.029 56.055 215.033 54.523C215.033 53.028 215.599 51.858 216.73 51.012C217.862 50.165 219.428 49.743 221.426 49.745H232.582C234.577 49.745 236.147 50.167 237.291 51.012C238.436 51.856 239.005 53.024 239 54.515C239 56.049 238.525 57.285 237.574 58.225C236.624 59.165 235.159 59.635 233.18 59.637H228.601V66.3069H225.431V66.308ZM225.431 52.218H221.282C220.194 52.218 219.373 52.482 218.82 53.012C218.569 53.235 218.367 53.5073 218.226 53.812C218.086 54.115 218.01 54.442 218.004 54.775C218.011 55.089 218.083 55.398 218.216 55.685C218.348 55.971 218.539 56.229 218.776 56.441C219.285 56.945 220.02 57.199 220.98 57.199H225.445V52.217H225.431V52.218ZM228.601 52.218V57.199H233.036C234.018 57.199 234.756 56.934 235.256 56.441C235.487 56.2289 235.672 55.9723 235.801 55.6867C235.929 55.401 235.998 55.0922 236.004 54.779C235.997 54.4465 235.921 54.1193 235.78 53.818C235.639 53.5138 235.438 53.2416 235.188 53.018C234.644 52.488 233.828 52.223 232.739 52.223L228.601 52.217V52.218Z" fill="#52B773"/>
</g>
</g>
<defs>
<clipPath id="clip0_927_27292">
<rect width="190" height="39" fill="white" transform="translate(49 41)"/>
</clipPath>
</defs>
</svg>
