<svg width="288" height="120" viewBox="0 0 288 120" fill="none" xmlns="http://www.w3.org/2000/svg">
<g clip-path="url(#clip0_918_35588)">
<path d="M72.5142 66.7122H76.9117V60.7293H66.4815C64.8461 60.7293 62.1339 60.8988 60.8276 59.1638C60.5684 58.7649 60 57.7678 60 55.0455C59.9469 53.9883 60.1167 52.9317 60.4986 51.9444C61.0669 50.4586 62.2934 49.1524 65.9131 49.1524H76.3134V43.1695H61.0669C57.6367 43.1894 54.5854 43.7478 52.4615 45.6424C49.4401 48.1054 49.2706 51.7948 49.2706 55.215C49.2706 58.8347 49.5997 61.6965 51.7336 63.8404C54.3561 66.3732 58.0456 66.7022 60.5085 66.7022L72.5142 66.7122ZM99.8661 54.9857C99.8661 56.7108 99.6966 58.1068 98.7991 59.074C98.3005 59.6623 97.074 60.7293 94.1923 60.7293C91.0213 60.7293 89.725 59.3333 89.5555 59.074C89.1268 58.6054 88.4886 57.5185 88.4886 54.9857C88.5584 52.1937 89.1268 51.2065 89.5555 50.7977C90.1239 50.2293 91.3504 49.2621 94.1923 49.2421C97.074 49.2421 98.3803 50.2393 98.8689 50.7977C99.3575 51.3561 99.8661 52.5227 99.8661 54.9857ZM110.665 54.9857C110.665 52.6923 110.426 48.0056 106.906 45.3831C103.785 43.0897 98.6994 43.0199 94.1424 43.0199C89.6253 42.9301 84.5698 43.0897 81.4686 45.3133C77.9487 47.9358 77.6894 52.5925 77.6894 54.9857C77.6894 57.3789 77.9487 61.9658 81.4686 64.5883C84.5698 66.8817 89.6253 66.9515 94.1424 66.9515C98.6595 67.0413 103.665 66.8817 106.766 64.6581C110.386 62.0356 110.615 57.3789 110.615 54.9857M132.363 58.7649C132.407 58.956 132.399 59.1552 132.342 59.3425C132.284 59.5297 132.178 59.6985 132.034 59.8319C131.586 60.0847 131.083 60.2218 130.568 60.2307H125.054C124.515 60.2634 123.978 60.1497 123.499 59.9017C123.335 59.7635 123.207 59.5882 123.126 59.3904C123.044 59.1926 123.011 58.9781 123.03 58.7649V57.2791H130.479C131.022 57.2852 131.555 57.422 132.034 57.678C132.192 57.808 132.314 57.976 132.389 58.1661C132.464 58.3562 132.489 58.5623 132.463 58.7649M143.033 58.6652C143.033 56.6111 142.773 54.1481 140.57 52.7521C139.01 51.9222 137.246 51.5522 135.484 51.6851H122.98V51.366C122.966 51.085 123.009 50.804 123.107 50.5401C123.205 50.2762 123.355 50.0348 123.548 49.8304C123.98 49.4493 124.488 49.1635 125.038 48.9917C125.587 48.8199 126.167 48.7659 126.739 48.8333H127.736L141.009 48.9031L141.078 43.0199H122.132C118.682 43.0199 116.389 44.017 115.083 45.0142C112.819 46.9487 112.49 49.7307 112.49 51.6253L112.39 61.4971C112.335 62.1906 112.431 62.8878 112.672 63.5404C112.913 64.193 113.293 64.7853 113.786 65.2763C115.217 66.2189 116.927 66.6446 118.632 66.4829H127.736L135.444 66.5527C137.239 66.5527 139.134 66.4829 140.689 65.3262C142.813 63.6908 142.983 60.5697 142.983 58.6851M164.122 59.084C164.14 59.3122 164.095 59.5409 163.991 59.7449C163.887 59.949 163.729 60.1205 163.534 60.2407C163.055 60.4887 162.517 60.6024 161.979 60.5697H156.494C156.003 60.5577 155.522 60.4204 155.098 60.1709C154.943 60.0401 154.824 59.871 154.754 59.6804C154.685 59.4898 154.666 59.2842 154.699 59.084C154.667 58.8868 154.687 58.6846 154.757 58.4975C154.827 58.3103 154.945 58.1447 155.098 58.017C155.559 57.7175 156.106 57.5774 156.654 57.6182H164.122V59.084ZM174.622 61.876L174.692 52.0441C174.692 50.0498 174.363 47.2877 172 45.4031C169.939 43.9566 167.456 43.2342 164.94 43.3489H146.084V49.1623H160.343C160.931 49.0984 161.525 49.1538 162.09 49.3251C162.656 49.4965 163.181 49.7803 163.634 50.1595C163.965 50.6097 164.14 51.156 164.132 51.715V52.0242H151.638C149.883 51.8637 148.118 52.2098 146.553 53.0213C144.359 54.4173 144.09 56.9501 144.09 58.9344C144.09 60.9188 144.179 63.9202 146.383 65.5555C147.869 66.7122 149.833 66.782 151.628 66.782H159.386L168.36 66.8817C169.996 66.8817 171.88 66.782 173.207 65.6552C173.713 65.174 174.102 64.583 174.344 63.9279C174.586 63.2727 174.674 62.5708 174.603 61.876M187.226 66.8618L187.306 43.3489H176.736V66.8717L187.226 66.8618ZM200.189 52.3433L208.705 43.3689H197.078L190.098 51.6452C188.942 52.9715 188.373 53.9387 188.373 54.7663C188.533 55.7719 189.024 56.6952 189.769 57.3888L198.046 66.8219H209.862L209.034 65.9942L199.84 56.7806C199.342 56.2122 198.614 55.4843 198.614 54.7863C198.614 54.0883 199.113 53.49 200.169 52.3233M228.09 59.1339C228.127 59.3513 228.1 59.575 228.011 59.7771C227.922 59.9792 227.776 60.1508 227.591 60.2706C227.113 60.5215 226.575 60.6354 226.036 60.5997H220.551C220.037 60.5907 219.533 60.4536 219.085 60.2008C218.941 60.0644 218.828 59.8984 218.754 59.7143C218.68 59.5301 218.647 59.3321 218.657 59.1339C218.653 58.9364 218.689 58.7402 218.763 58.5569C218.837 58.3736 218.946 58.207 219.085 58.0669C219.558 57.7922 220.094 57.6445 220.641 57.6381H228.09V59.1339ZM238.729 61.9558V52.1239C238.808 50.883 238.604 49.6405 238.133 48.49C237.661 47.3395 236.934 46.3113 236.007 45.4829C233.979 44.0304 231.519 43.3065 229.027 43.4287H210.081V49.2421L223.443 49.3319H224.44C225.507 49.3319 226.823 49.3319 227.631 50.2293C228.026 50.6493 228.237 51.2088 228.219 51.7848V52.1239H215.675C213.952 51.9732 212.222 52.3193 210.689 53.121C210.011 53.5593 209.444 54.15 209.034 54.8461C208.405 56.1732 208.12 57.6376 208.207 59.1039C208.126 60.7376 208.409 62.3689 209.034 63.8803C209.377 64.5901 209.887 65.206 210.52 65.6752C211.986 66.8119 213.95 66.9017 215.675 66.9017L223.453 66.9715H232.487C234.043 66.9715 235.937 66.9017 237.333 65.745C237.841 65.2691 238.231 64.6819 238.474 64.0295C238.716 63.3772 238.803 62.6776 238.729 61.9857M226.764 76.0156H228.509L227.202 74.7093V74.6495H227.412C227.591 74.6544 227.767 74.6045 227.916 74.5065C228.066 74.4085 228.182 74.267 228.249 74.1011C228.372 73.7524 228.426 73.3834 228.409 73.0142C228.413 72.6694 228.338 72.3283 228.189 72.017C228.064 71.8529 227.898 71.7255 227.706 71.6483C227.515 71.5711 227.306 71.5469 227.103 71.5783H224.769C224.55 71.5793 224.339 71.6569 224.171 71.7977C224.043 71.9917 223.986 72.2245 224.011 72.4558V76.0655H225.427V73.074C225.427 72.9643 225.427 72.8546 225.537 72.8048C225.647 72.7549 225.647 72.745 225.756 72.745H226.514C226.669 72.7227 226.827 72.7621 226.953 72.8546C227.035 72.963 227.074 73.098 227.063 73.2336C227.058 73.3514 227.02 73.4654 226.953 73.5626C226.911 73.6229 226.854 73.6707 226.787 73.7006C226.72 73.7305 226.647 73.7414 226.574 73.7321H226.215C225.916 73.7321 225.647 73.9715 225.647 74.2207V74.3304C225.647 74.5498 225.806 74.7094 225.966 74.9287L226.215 75.2478L226.764 76.0156ZM229.486 74.0213C229.463 74.9018 229.102 75.7397 228.479 76.3616C227.855 76.9835 227.016 77.3416 226.135 77.3618C225.698 77.3596 225.266 77.2703 224.863 77.0991C224.461 76.9279 224.097 76.6782 223.792 76.3646C223.158 75.7207 222.8 74.855 222.795 73.9515C222.809 73.0703 223.167 72.2295 223.792 71.6082C224.416 70.9866 225.255 70.6294 226.135 70.6111C227.027 70.6241 227.877 70.9868 228.504 71.6209C229.131 72.255 229.483 73.1099 229.486 74.0014M229.875 74.0014C229.869 73.0077 229.473 72.056 228.771 71.3524C228.07 70.6489 227.119 70.25 226.125 70.2421C225.638 70.2434 225.156 70.342 224.707 70.532C224.259 70.7221 223.853 70.9998 223.513 71.349C223.16 71.686 222.88 72.0916 222.689 72.5409C222.499 72.9901 222.403 73.4736 222.406 73.9615C222.403 74.4525 222.497 74.9393 222.683 75.394C222.868 75.8487 223.142 76.2624 223.487 76.6114C223.832 76.9605 224.243 77.2382 224.696 77.4285C225.149 77.6188 225.634 77.7181 226.125 77.7207C227.113 77.7156 228.059 77.323 228.76 76.6275C229.461 75.9319 229.862 74.9889 229.875 74.0014ZM234.571 75.8162C234.905 75.4215 235.079 74.9166 235.06 74.4002V71.6082H233.534V74.2806C233.546 74.398 233.532 74.5166 233.495 74.6284C233.457 74.7402 233.395 74.8426 233.315 74.9287C233.137 75.0434 232.928 75.1024 232.717 75.0982C232.519 75.109 232.325 75.0488 232.168 74.9287C232.082 74.8443 232.014 74.7434 231.967 74.6321C231.921 74.5207 231.898 74.4012 231.899 74.2806V71.6082L230.373 71.5484V74.4002C230.347 74.6502 230.38 74.9028 230.468 75.1381C230.556 75.3734 230.698 75.585 230.882 75.7564C231.123 75.9725 231.409 76.1335 231.719 76.2282C232.029 76.3229 232.356 76.3491 232.677 76.3048C233.334 76.3742 233.994 76.2004 234.531 75.8162" fill="#577481"/>
<path d="M57.3151 76.3759C56.7001 76.3759 56.1706 76.2307 55.7265 75.9403C55.2823 75.6499 54.9407 75.2499 54.7016 74.7403C54.4624 74.2307 54.3428 73.6485 54.3428 72.9937C54.3428 72.3276 54.4653 71.7397 54.7101 71.2301C54.9578 70.7176 55.3023 70.3176 55.7435 70.0301C56.1877 69.7397 56.7058 69.5945 57.298 69.5945C57.7592 69.5945 58.1748 69.6799 58.5449 69.8507C58.915 70.0215 59.2182 70.2607 59.4545 70.5681C59.6908 70.8756 59.8374 71.2343 59.8944 71.6443H58.8866C58.8097 71.3454 58.6389 71.0806 58.3741 70.85C58.1122 70.6165 57.7592 70.4998 57.3151 70.4998C56.9222 70.4998 56.5777 70.6023 56.2816 70.8073C55.9884 71.0094 55.7592 71.2955 55.5941 71.6656C55.4318 72.0329 55.3507 72.4642 55.3507 72.9596C55.3507 73.4663 55.4304 73.9076 55.5898 74.2834C55.7521 74.6592 55.9798 74.951 56.2731 75.1588C56.5692 75.3667 56.9165 75.4706 57.3151 75.4706C57.577 75.4706 57.8147 75.425 58.0282 75.3339C58.2417 75.2428 58.4225 75.1119 58.5706 74.9411C58.7186 74.7702 58.8239 74.5653 58.8866 74.3261H59.8944C59.8374 74.7133 59.6965 75.062 59.4716 75.3724C59.2496 75.6798 58.9549 75.9247 58.5876 76.1069C58.2232 76.2862 57.799 76.3759 57.3151 76.3759ZM61.3677 76.2393V69.6799H66.5263V76.2393H65.5185V70.6194H62.3755V76.2393H61.3677ZM73.2352 67.2201L73.7476 67.8351C73.5483 68.0287 73.3177 68.1639 73.0558 68.2408C72.7939 68.3176 72.4978 68.3646 72.1676 68.3817C71.8373 68.3988 71.4701 68.4159 71.0658 68.4329C70.6103 68.45 70.2331 68.561 69.9341 68.766C69.6352 68.971 69.4046 69.2671 69.2423 69.6543C69.0801 70.0415 68.9761 70.5169 68.9306 71.0806H69.016C69.2381 70.6706 69.5455 70.3689 69.9384 70.1753C70.3313 69.9817 70.7526 69.8849 71.2024 69.8849C71.7149 69.8849 72.1761 70.0044 72.5861 70.2436C72.996 70.4827 73.3206 70.8372 73.5597 71.3069C73.7989 71.7767 73.9184 72.356 73.9184 73.045C73.9184 73.7311 73.796 74.3233 73.5512 74.8215C73.3092 75.3197 72.969 75.704 72.5305 75.9745C72.095 76.2421 71.5839 76.3759 70.9975 76.3759C70.411 76.3759 69.8971 76.2378 69.4558 75.9617C69.0146 75.6827 68.6715 75.2699 68.4267 74.7233C68.1818 74.1738 68.0594 73.4948 68.0594 72.6863V71.9859C68.0594 70.5254 68.3071 69.418 68.8025 68.6635C69.3007 67.9091 70.0494 67.5191 71.0487 67.4934C71.4017 67.4821 71.7163 67.4792 71.9925 67.4849C72.2686 67.4906 72.5092 67.4778 72.7142 67.4465C72.9192 67.4152 73.0928 67.3397 73.2352 67.2201ZM70.9975 75.4706C71.3932 75.4706 71.7334 75.3709 72.0181 75.1717C72.3056 74.9724 72.5263 74.6919 72.68 74.3304C72.8337 73.966 72.9106 73.5375 72.9106 73.045C72.9106 72.5667 72.8323 72.1596 72.6757 71.8236C72.522 71.4877 72.3014 71.2315 72.0138 71.055C71.7263 70.8785 71.3818 70.7902 70.9804 70.7902C70.6872 70.7902 70.4238 70.84 70.1904 70.9397C69.9569 71.0393 69.7576 71.1859 69.5925 71.3795C69.4274 71.5731 69.2993 71.8094 69.2082 72.0884C69.1199 72.3674 69.0729 72.6863 69.0672 73.045C69.0672 73.7795 69.2395 74.3674 69.584 74.8087C69.9284 75.2499 70.3996 75.4706 70.9975 75.4706Z" fill="#577481"/>
</g>
<defs>
<clipPath id="clip0_918_35588">
<rect width="190" height="35" fill="white" transform="translate(49 43)"/>
</clipPath>
</defs>
</svg>
