<svg width="288" height="120" viewBox="0 0 288 120" fill="none" xmlns="http://www.w3.org/2000/svg">
<path fill-rule="evenodd" clip-rule="evenodd" d="M108.589 40.8616C113.382 40.8616 117.27 44.3219 117.27 48.589C117.27 52.8556 113.382 56.3159 108.589 56.3159C103.795 56.3159 99.9073 52.8556 99.9073 48.589C99.9073 44.3219 103.795 40.8616 108.589 40.8616ZM108.589 46.5582C109.772 46.5582 110.731 47.4675 110.731 48.5885C110.731 49.7097 109.772 50.619 108.589 50.619C107.406 50.619 106.446 49.7097 106.446 48.5885C106.446 47.4675 107.406 46.5582 108.589 46.5582Z" fill="#577481"/>
<path fill-rule="evenodd" clip-rule="evenodd" d="M94.4267 56.3159C89.6327 56.3159 85.7449 52.8558 85.7449 48.589C85.7449 44.3222 89.6327 40.8616 94.4267 40.8616C96.4631 40.8616 98.3627 41.2914 99.9713 42.0336L97.5265 47.2356C96.8208 46.906 95.864 46.7032 94.8098 46.7032C93.6949 46.7032 92.7907 47.5599 92.7907 48.6163C92.7907 49.6728 93.6949 50.5298 94.8098 50.5298C95.8749 50.5298 96.8408 50.3232 97.5483 49.9878L99.9713 55.1451C98.3627 55.887 96.4631 56.3159 94.4267 56.3159Z" fill="#577481"/>
<path fill-rule="evenodd" clip-rule="evenodd" d="M55.8893 40.8616C60.6825 40.8616 64.5701 44.3219 64.5701 48.589C64.5701 52.8556 60.6825 56.3159 55.8893 56.3159C51.0953 56.3159 47.2075 52.8556 47.2075 48.589C47.2075 44.3219 51.0953 40.8616 55.8893 40.8616ZM55.8887 46.5582C57.072 46.5582 58.0316 47.4675 58.0316 48.5885C58.0316 49.7097 57.072 50.619 55.8887 50.619C54.7058 50.619 53.7462 49.7097 53.7462 48.5885C53.7462 47.4675 54.7058 46.5582 55.8887 46.5582Z" fill="#577481"/>
<path fill-rule="evenodd" clip-rule="evenodd" d="M200.014 56.3159C195.221 56.3159 191.333 52.8558 191.333 48.589C191.333 44.3222 195.221 40.8616 200.014 40.8616C202.05 40.8616 203.95 41.2914 205.56 42.0336L203.114 47.2356C202.409 46.906 201.452 46.7032 200.398 46.7032C199.283 46.7032 198.378 47.5599 198.378 48.6163C198.378 49.6728 199.283 50.5298 200.398 50.5298C201.463 50.5298 202.429 50.3232 203.135 49.9878L205.56 55.1451C203.95 55.887 202.05 56.3159 200.014 56.3159Z" fill="#577481"/>
<path fill-rule="evenodd" clip-rule="evenodd" d="M136.91 41.2336H131.63L128.231 45.1552L124.832 41.2336H118.818V55.9436H124.999V48.6305L127.595 51.5242L130.231 48.5862V55.9436H136.91V41.2336Z" fill="#577481"/>
<path fill-rule="evenodd" clip-rule="evenodd" d="M172.728 41.2336H158.053L158.054 48.58C158.054 50.2147 157.759 51.8456 156.16 52.0418V55.8302C156.784 56.0821 157.456 56.2202 158.157 56.2202C163.164 56.2202 164.051 52.575 164.051 48.9268V45.3208H165.819V55.9429H172.728V41.2336Z" fill="#577481"/>
<path fill-rule="evenodd" clip-rule="evenodd" d="M181.653 41.2336H174.744V55.9429H183.289C188.039 55.9429 190.322 53.1111 190.322 49.7705C190.322 47.2473 188.162 45.1995 185.498 45.1995C184.032 45.1995 182.699 45.5882 181.653 46.2239V41.2336ZM182.585 49.0836C183.357 49.0836 183.982 49.681 183.982 50.4178C183.982 51.1545 183.671 52.3038 182.585 52.3038C182.177 52.3038 181.875 52.2604 181.653 52.1863V49.4247C181.9 49.2122 182.227 49.0836 182.585 49.0836Z" fill="#577481"/>
<path fill-rule="evenodd" clip-rule="evenodd" d="M259 41.2336H247.886C245.406 41.2336 243.394 43.1392 243.394 45.4884C243.394 47.1724 244.429 48.6276 245.927 49.3172C244.112 50.8777 242.412 53.4835 242.412 55.9429H248.868C249.125 52.4813 250.561 51.2965 252.092 51.193V55.9429H259V41.2336ZM252.092 44.5742H251.492C250.533 44.5742 249.755 45.3119 249.755 46.2214C249.755 47.1309 250.533 47.8687 251.492 47.8687H252.092V44.5742Z" fill="#577481"/>
<path fill-rule="evenodd" clip-rule="evenodd" d="M147.04 40.8616C151.833 40.8616 155.721 44.3219 155.721 48.589C155.721 52.8556 151.833 56.3159 147.04 56.3159C142.246 56.3159 138.358 52.8556 138.358 48.589C138.358 44.3219 142.246 40.8616 147.04 40.8616ZM147.039 46.5582C148.222 46.5582 149.182 47.4675 149.182 48.5885C149.182 49.7097 148.222 50.619 147.039 50.619C145.856 50.619 144.897 49.7097 144.897 48.5885C144.897 47.4675 145.856 46.5582 147.039 46.5582Z" fill="#577481"/>
<path fill-rule="evenodd" clip-rule="evenodd" d="M36.8835 50.139V55.9441H29.975V41.2349H36.8835V45.8985C39.0346 45.9488 40.0824 44.0174 40.1061 41.2349H46.475C46.4466 44.3435 45.079 46.9448 43.1554 47.9566C45.1885 48.6685 47.0597 52.5012 47.0597 55.9441H40.6037C40.6037 52.4133 39.2354 50.048 36.8835 50.139Z" fill="#577481"/>
<path fill-rule="evenodd" clip-rule="evenodd" d="M213.587 50.139V55.9441H206.679V41.2349H213.587V45.8985C215.738 45.9488 216.787 44.0174 216.81 41.2349H223.178C223.15 44.3435 221.783 46.9448 219.859 47.9566C221.891 48.6685 223.763 52.5012 223.763 55.9441H217.308C217.308 52.4133 215.939 50.048 213.587 50.139Z" fill="#577481"/>
<path fill-rule="evenodd" clip-rule="evenodd" d="M84.2374 41.2336H78.9582L75.5596 45.1552L72.1604 41.2336H66.1459V55.9436H72.3273V48.6305L74.9236 51.5242L77.5591 48.5862V55.9436H84.2374V41.2336Z" fill="#577481"/>
<path fill-rule="evenodd" clip-rule="evenodd" d="M237.263 41.2336L242.913 55.9429H236.012L234.897 53.0428H229.773L228.658 55.9429H223.26L228.911 41.2336H237.263ZM233.67 49.8442L232.335 46.372L231.001 49.8442H233.67Z" fill="#577481"/>
<path fill-rule="evenodd" clip-rule="evenodd" d="M90.827 60.6787H75.6615C73.1533 65.2048 71.2462 70.2686 70.9995 76.8193H76.8552C76.9765 76.1486 77.1108 75.4854 77.2583 74.8327H82.4511V76.8193H90.827V60.6787ZM82.4511 66.4604V70.7635H78.4089C78.9489 69.2144 79.5884 67.7668 80.34 66.4604H82.4511Z" fill="#577481"/>
<path fill-rule="evenodd" clip-rule="evenodd" d="M92.4141 60.6787V76.8193H107.601C110.458 76.8193 112.439 75.5608 112.409 72.7669C112.387 70.7496 110.924 69.101 109.061 67.9858C110.702 66.9965 111.515 65.7582 111.508 63.8759C111.499 61.6114 109.579 60.8462 106.651 60.6787H92.4141ZM100.282 72.6802H102.797C103.68 72.6802 104.432 71.9459 104.43 71.2544C104.429 70.8292 104.112 70.3101 103.772 70.012C102.717 70.3138 101.555 70.6229 100.282 70.9569V72.6802ZM100.282 64.9457H101.389C102.642 64.9334 103.442 65.2538 103.439 65.84C103.436 66.6332 102.303 67.3645 100.282 67.8489V64.9457Z" fill="#577481"/>
<path fill-rule="evenodd" clip-rule="evenodd" d="M51.8024 60.6787V76.8193H60.1783V74.0922C68.1814 72.4933 71.9774 69.5257 71.9774 66.0107C71.9774 62.4663 69.274 60.6787 64.8595 60.6787H51.8024ZM60.1783 69.693C62.0547 69.2462 63.1306 68.5076 63.1455 67.5496C63.1607 66.5579 62.0531 66.1725 60.7604 66.1725H60.1783V69.693Z" fill="#577481"/>
<path fill-rule="evenodd" clip-rule="evenodd" d="M38.3508 66.4604H41.7774V76.8185H50.1533V60.6787H29.975V76.8185H38.3508V66.4604Z" fill="#577481"/>
<path fill-rule="evenodd" clip-rule="evenodd" d="M132.897 60.6787H118.62C116.634 63.9384 115.288 67.698 114.792 72.1215H113.036V79.7101H118.697C119.338 77.069 121.72 76.5918 124.17 76.637C126.442 76.6788 128.588 77.3471 128.858 79.7101H134.547V72.1215H132.897V60.6787ZM124.521 66.4604V72.1215H120.509C120.977 69.6032 121.76 67.5967 122.874 66.4604H124.521Z" fill="#577481"/>
<path fill-rule="evenodd" clip-rule="evenodd" d="M154.977 60.6787H139.811C137.303 65.2048 135.396 70.2686 135.149 76.8193H141.005C141.126 76.1486 141.261 75.4854 141.408 74.8327H146.601V76.8193H154.977V60.6787ZM146.601 66.4604V70.7635H142.559C143.099 69.2144 143.738 67.7668 144.49 66.4604H146.601Z" fill="#577481"/>
</svg>
