<svg width="366" height="152" viewBox="0 0 366 152" fill="none" xmlns="http://www.w3.org/2000/svg">
<path d="M197.857 57.7156H208.749C216.323 57.7156 219.202 59.9882 219.202 64.6948C219.202 69.9794 216.066 72.3425 208.749 72.3425H197.857V57.7156ZM183.41 46.8943V100.942H197.857V83.083H205.613L220.07 105.666H236.873L220.872 81.0652C229.662 79.302 234.451 72.7563 234.451 64.5258C234.451 53.3518 225.926 46.9041 209.377 46.9041L183.41 46.8943Z" fill="#F2F5FA"/>
<path d="M234.141 46.8943V84.9588C234.141 98.1139 242.885 105.666 259.532 105.666C276.182 105.666 284.334 97.869 284.334 84.7139V46.8943H270.78V82.7377C270.78 89.7879 267.263 94.1933 259.532 94.1933C251.802 94.1933 248.376 89.8418 248.376 82.7377V46.8943H234.141Z" fill="#F2F5FA"/>
<path d="M96.698 57.7156H107.411C114.861 57.7156 117.692 59.9882 117.692 64.6948C117.692 69.9794 114.612 72.3425 107.411 72.3425H96.698V57.7156ZM82.4883 46.8943V105.666H96.698V83.083H104.328L118.548 105.666H135.076L119.337 81.0652C127.984 79.302 132.694 72.7563 132.694 64.5258C132.694 53.3518 124.308 46.9041 108.031 46.9041L82.4883 46.8943Z" fill="#577481"/>
<path d="M183.602 58.0756C177.905 50.5185 170.048 46.8943 160.125 46.8943C142.751 46.8943 131.107 58.2421 131.107 76.5251C131.107 94.4039 143.248 105.666 159.787 105.666C168.971 105.666 176.817 102.213 183.677 94.9696V73.4689H157.473V83.7711H169.967V90.5372C167.083 92.5474 163.63 93.6454 160.079 93.6815C151.092 93.6815 145.522 87.9562 145.522 76.765C145.522 64.685 151.148 58.4821 160.503 58.4821C166.21 58.4821 170.921 61.0632 174.721 66.1371L183.602 58.0756Z" fill="#577481"/>
<path d="M190.772 105.666C192.311 105.666 193.818 105.218 195.099 104.38C196.383 103.537 197.38 102.344 197.966 100.952C198.553 99.5572 198.706 98.0259 198.405 96.5478C198.105 95.0696 197.364 93.7094 196.275 92.6357C195.193 91.5687 193.806 90.8413 192.293 90.5475C190.781 90.2537 189.212 90.407 187.79 90.9876C186.364 91.5696 185.149 92.5498 184.298 93.8038C183.586 94.85 183.148 96.0494 183.023 97.2976C182.899 98.5457 183.09 99.8045 183.582 100.964C183.975 101.887 184.548 102.727 185.272 103.437C185.993 104.142 186.85 104.701 187.793 105.084C188.737 105.466 189.75 105.664 190.772 105.666Z" fill="#577481"/>
</svg>
