<svg width="366" height="152" viewBox="0 0 366 152" fill="none" xmlns="http://www.w3.org/2000/svg">
<path d="M171.731 28.422V37.8362L178.757 35.9292V126.934L183.417 128.189L188.077 126.934V35.9292L195.079 37.8362V28.422L183.417 25.2598L171.731 28.422ZM236.946 86.911V39.7432L227.602 37.2086V116.24L236.922 113.681L248.393 72.5241V110.616L257.736 108.105V45.3918L248.393 42.8572L236.922 86.9352L236.946 86.911ZM197.42 29.0496V124.423L206.74 121.889V107.767L222.942 103.374V35.9051L197.42 29.0496ZM213.67 96.4942L206.764 98.3529V40.9985L213.67 42.8572V96.4942ZM297.883 97.2184V56.2302L288.539 53.6956L280.534 78.414L271.74 49.1333L262.396 46.647V106.826L271.716 104.291V70.6413L275.444 89.1801L284.764 86.5972L288.492 72.7414V99.7289L297.835 97.2184H297.883ZM115.908 81.0693L106.708 46.0194L97.388 48.554V104.919L106.708 107.453V72.331L111.368 94.5872L120.687 97.146L125.347 70.5447V112.498L134.667 115.033V38.4638L125.347 41.0226L115.908 81.0935V81.0693ZM139.351 116.264L169.413 124.399V29.0496L139.351 37.1845V116.264ZM148.671 44.0641L160.093 40.9743V112.45L148.671 109.36V44.0883V44.0641ZM68.9746 97.2184L92.7042 103.639V84.835L83.3844 82.3004V91.6905L78.3183 90.3146V63.1099L83.3844 61.7339V71.124L92.7042 68.5894V49.7851L68.9746 56.2061V97.1943V97.2184Z" fill="#577481"/>
</svg>
