<svg width="288" height="120" viewBox="0 0 288 120" fill="none" xmlns="http://www.w3.org/2000/svg">
<g clip-path="url(#clip0_1753_9337)">
<path d="M92.8849 32H42.0098V83.3086L92.8849 32Z" fill="#CADBE0"/>
<path d="M46.5508 88.0001H97.4081V36.7004L46.5508 88.0001Z" fill="#CADBE0"/>
<path d="M126.964 32.0719H108.967V87.991H120.08V67.1045H127.205C140.188 67.1045 147.633 60.8134 147.633 49.8578V49.5522C147.624 38.4439 140.09 32.0719 126.964 32.0719ZM136.76 49.8578C136.76 55.6636 133.376 58.7283 126.964 58.7283H120.08V40.9873H126.964C133.634 40.9873 136.76 43.6835 136.76 49.5433V49.8578ZM174.696 54.0369H165.63V41.1491H189.754V32.0719H154.597V87.991H174.491C187.19 87.991 194.474 81.7898 194.474 70.978V70.6455C194.474 59.9506 187.457 54.0369 174.696 54.0369ZM165.604 62.4221H173.805C180.493 62.4221 183.734 65.1183 183.734 70.5916V70.8971C183.734 76.3794 180.529 79.1565 174.188 79.1565H165.63L165.604 62.4221ZM221.92 58.7732L244.877 32H232.677L212.552 56.086V32.0719H201.438V87.991H212.552V63.2399L232.748 87.991H245.99L221.92 58.7732Z" fill="#CADBE0"/>
</g>
<defs>
<clipPath id="clip0_1753_9337">
<rect width="204" height="56" fill="white" transform="translate(42 32)"/>
</clipPath>
</defs>
</svg>
