<svg width="366" height="152" viewBox="0 0 366 152" fill="none" xmlns="http://www.w3.org/2000/svg">
<g clip-path="url(#clip0_1753_5773)">
<path d="M102.687 47.2661H97.9477C97.4394 47.2661 97.0254 47.6788 97.0254 48.1873V52.7403L89.5192 65.7112V48.1873C89.5192 47.6788 89.107 47.2661 88.597 47.2661H83.8559C83.3459 47.2661 82.9336 47.6788 82.9336 48.1873V104.146C82.9336 104.654 83.3459 105.068 83.8559 105.068H88.597C89.107 105.068 89.5192 104.654 89.5192 104.146V83.4321L97.0254 70.4407V104.146C97.0254 104.654 97.4394 105.068 97.9477 105.068H102.687C103.197 105.068 103.611 104.654 103.611 104.146V48.1873C103.611 47.6788 103.197 47.2661 102.687 47.2661Z" fill="#577481"/>
<path d="M253.868 46.9182H249.127C248.619 46.9182 248.205 47.33 248.205 47.8394V52.3915L240.697 65.3633V47.8394C240.697 47.33 240.285 46.9182 239.776 46.9182H235.035C234.525 46.9182 234.111 47.33 234.111 47.8394V103.799C234.111 104.306 234.525 104.72 235.035 104.72H239.776C240.285 104.72 240.697 104.306 240.697 103.799V83.0842L248.205 70.0928V103.799C248.205 104.306 248.619 104.72 249.127 104.72H253.868C254.376 104.72 254.789 104.306 254.789 103.799V47.8394C254.789 47.33 254.376 46.9182 253.868 46.9182Z" fill="#577481"/>
<path d="M147.012 94.6004H142.101C141.738 94.6004 141.443 94.3058 141.443 93.9437V83.7001C142.236 82.3315 143.162 80.734 144.102 79.1116L147.807 85.5212C147.807 85.5212 148.679 86.8081 148.679 88.4606V93.2958C148.574 93.7591 148.219 94.6004 147.012 94.6004ZM146.337 58.9404C147.983 58.9546 148.1 60.5982 147.809 61.2754C147.629 61.6925 144.51 67.4223 141.443 72.9621V59.598C141.443 59.235 141.738 58.9404 142.101 58.9404H146.337ZM147.14 73.8487C148.032 72.3071 148.782 71.0016 149.244 70.1949C151.332 66.5365 153.308 63.559 153.308 60.4651V52.8858C153.239 48.8423 149.283 47.0513 147.307 47.1046C146.932 47.1046 138.596 47.0957 135.778 47.093C135.27 47.0921 134.859 47.5048 134.859 48.0134V103.971C134.859 104.48 135.27 104.892 135.78 104.892C138.859 104.885 148.651 104.867 149.264 104.867C151.238 104.92 155.194 103.131 155.265 99.0877V98.8037V93.042V89.8381C155.265 87.8518 154.455 86.5028 154.455 86.5028L147.14 73.8487Z" fill="#577481"/>
<path d="M267.385 61.4486C267.095 60.7723 267.211 59.1286 268.856 59.1153H274.294C274.806 59.1153 275.218 59.5271 275.218 60.0357V75.7738C271.763 69.579 267.595 61.9349 267.385 61.4486ZM267.886 47.2786C265.912 47.2254 261.956 49.0164 261.887 53.0599V60.6392C261.887 63.733 263.863 66.7106 265.951 70.3689C266.31 70.9982 266.848 71.9345 267.488 73.0457L263.006 80.7998C263.006 80.7998 262.198 82.147 262.198 84.1351C262.198 85.8675 262.201 100.163 262.203 104.15C262.203 104.66 262.615 105.07 263.123 105.07H267.865C268.373 105.07 268.785 104.658 268.785 104.15C268.785 100.089 268.783 85.3492 268.783 85.0758C268.783 83.4251 269.656 82.1382 269.656 82.1382L271.2 79.4668C272.78 82.2003 274.308 84.8344 275.218 86.4035V104.147C275.218 104.654 275.63 105.068 276.138 105.068H281.142C281.505 105.068 281.8 104.773 281.8 104.409V47.9247C281.8 47.5609 281.509 47.2662 281.144 47.2671C278.452 47.2689 268.359 47.2786 267.886 47.2786Z" fill="#577481"/>
<path d="M206.173 95.5376C206.237 95.1365 205.928 94.7744 205.523 94.7744H194.58C193.56 94.7744 192.735 93.9508 192.735 92.9337L192.725 60.9719C192.725 59.9539 193.551 59.1285 194.569 59.1285H202.868C203.273 59.1285 203.582 58.7673 203.518 58.367L201.876 48.1642C201.795 47.6539 201.354 47.2785 200.835 47.2785H192.675C190.891 47.1551 186.118 48.253 186.16 53.831V98.5108C186.118 104.129 190.964 105.203 192.714 105.061V105.055H203.742C204.261 105.055 204.702 104.679 204.784 104.17L206.173 95.5376Z" fill="#577481"/>
<path d="M109.628 94.7743C109.223 94.7743 108.914 95.1364 108.98 95.5376L110.364 104.146C110.446 104.658 110.886 105.034 111.405 105.034H121.843C123.628 105.156 128.399 104.058 128.358 98.4806V90.2587H128.362V80.3115C128.362 72.7136 123.151 72.3541 123.151 72.3541H123.139C123.94 70.9669 124.672 69.7058 125.014 69.1058C127.102 65.4475 128.34 63.7329 128.34 60.639V53.0597C128.269 49.0162 124.313 47.2128 122.337 47.266H112.281C111.764 47.266 111.323 47.6415 111.242 48.1509L109.6 58.3528C109.536 58.7522 109.845 59.1152 110.25 59.1152H120.145C120.797 59.0939 121.607 59.4373 121.803 60.4881L121.804 61.3091C121.804 61.3091 121.712 64.418 120.255 66.7859C119.318 68.3089 116.834 72.3541 116.834 72.3541H114.462C114.01 72.3541 113.625 72.6816 113.552 73.1289L112.759 78.0537C112.695 78.4531 113.005 78.8169 113.41 78.8169H116.978C118.268 78.8169 118.879 78.8099 119.064 78.8169C120.047 78.8507 121.811 79.3637 121.811 81.9339V84.7313H121.808C121.803 87.227 121.799 90.0918 121.797 92.9354C121.797 93.9525 120.969 94.7743 119.953 94.7743H109.628Z" fill="#577481"/>
<path d="M180.07 94.7744H168.598V78.7584H173.968C174.373 78.7584 174.682 78.3963 174.618 77.9952L173.826 73.0669C173.742 72.5557 173.301 72.1811 172.784 72.1811H168.598V59.1152H180.198C180.603 59.1152 180.912 58.7522 180.848 58.3529L179.21 48.1616C179.128 47.6522 178.687 47.2768 178.17 47.2768L162.673 47.2661C162.309 47.2661 162.014 47.5608 162.014 47.9246V104.409C162.014 104.773 162.309 105.066 162.673 105.066L178.289 105.055C178.808 105.055 179.249 104.681 179.331 104.171L180.719 95.5376C180.784 95.1364 180.475 94.7744 180.07 94.7744Z" fill="#577481"/>
<path d="M229.332 58.3254L227.699 48.1634C227.616 47.6531 227.175 47.2786 226.66 47.2786H209.083C208.566 47.2786 208.125 47.654 208.044 48.1634L206.409 58.3254C206.345 58.7248 206.654 59.0869 207.059 59.0869L214.558 59.094V104.161C214.558 104.67 214.971 105.082 215.481 105.082H220.222C220.732 105.082 221.144 104.67 221.144 104.161C221.144 104.161 221.146 72.4643 221.148 59.0869H228.684C229.089 59.0869 229.398 58.7248 229.332 58.3254Z" fill="#577481"/>
</g>
<defs>
<clipPath id="clip0_1753_5773">
<rect width="198.867" height="58.1637" fill="white" transform="translate(82.9336 46.9182)"/>
</clipPath>
</defs>
</svg>
