<svg width="308" height="310" viewBox="0 0 308 310" fill="none" xmlns="http://www.w3.org/2000/svg">
<path d="M226.053 82.5778C228.417 82.5778 230.38 82.5778 232.337 82.5778C251.917 82.5833 271.496 82.5723 291.075 82.5999C301.923 82.6165 307.955 88.6403 307.977 99.4291C307.999 108.948 308.015 118.461 307.977 127.98C307.933 138.233 302.248 144.252 292.076 144.357C271.578 144.567 251.075 144.577 230.572 144.638C229.165 144.644 227.763 144.368 226.053 144.186C226.053 145.605 226.053 146.736 226.053 147.868C226.064 168.783 226.097 189.704 226.08 210.619C226.075 221.043 220.483 227.001 209.992 227.128C189.484 227.371 168.975 227.321 148.461 227.371C147.147 227.376 145.833 227.205 144.172 227.089C144.172 228.475 144.172 229.59 144.172 230.706C144.139 251.201 144.107 271.702 144.063 292.197C144.041 303.847 137.921 309.927 126.237 309.932C117.594 309.938 108.94 309.717 100.307 309.987C88.7938 310.346 81.8988 303.025 82.1132 291.91C82.5036 271.63 82.2179 251.334 82.2179 231.043C82.2179 229.9 82.2179 228.757 82.2179 227.382C80.1671 227.382 78.2591 227.382 76.3457 227.382C56.5574 227.382 36.769 227.437 16.9807 227.354C6.13808 227.31 0.211079 221.33 0.0791201 210.404C-0.0308455 201.095 -0.0199885 191.785 0.0734822 182.482C0.188946 171.323 6.06109 165.399 17.1071 165.36C36.9999 165.294 56.8927 165.332 76.7854 165.343C78.4349 165.343 80.0846 165.482 81.6241 165.553C81.866 165.239 82.1025 165.078 82.1025 164.918C82.086 153.312 82.0198 141.712 82.0308 130.106C82.0418 118.925 81.7834 107.722 82.2947 96.5635C82.6796 88.2097 88.7497 82.7379 97.1511 82.6827C118.495 82.5391 139.845 82.6661 161.195 82.6827C162.02 82.6827 162.839 82.6827 164.12 82.6827C164.12 81.341 164.12 80.1318 164.12 78.9226C164.12 58.6315 164.115 38.346 164.126 18.0549C164.131 5.87472 169.976 0.0496925 182.193 0.0165642C190.836 -0.00552139 199.48 -0.00552139 208.128 0.0165642C219.983 0.0496925 226.014 6.05702 226.042 18.0163C226.091 38.4124 226.053 58.8026 226.053 79.1986C226.053 80.2311 226.053 81.2637 226.053 82.5778ZM156.703 175.359C161.8 170.34 167.238 165.062 172.588 159.701C176.937 155.344 177.146 149.337 173.242 144.743C169.662 140.531 163.246 139.724 158.611 143.214C156.912 144.495 155.966 144.34 154.383 143.137C150.028 139.835 143.842 140.464 140.197 144.335C136.425 148.338 135.93 154.825 139.752 158.867C145.102 164.532 150.908 169.766 156.703 175.359Z" fill="#E1E5ED"/>
</svg>
