<svg width="288" height="120" viewBox="0 0 288 120" fill="none" xmlns="http://www.w3.org/2000/svg">
<path fill-rule="evenodd" clip-rule="evenodd" d="M141.606 24.7976V31.4339C139.355 31.2875 137.02 30.749 134.826 29.6841C129.977 27.3296 118.798 27.0746 119.972 38.6898C121.146 50.305 135.892 48.333 141.002 47.5925C141.2 47.5639 141.401 47.54 141.606 47.5196V51.3726C141.221 51.3411 140.824 51.3205 140.411 51.3129C130.45 51.1269 130.668 59.1263 132.679 62.0572C133.943 63.8997 137.156 65.3678 141.606 65.1769V69.0494C137.53 70.0873 136.044 72.4638 136.565 75.3556C136.893 77.1781 139.012 78.4492 141.606 78.7917V89.116L104.562 24.7976H141.606ZM162.17 28.3658C163.243 28.3414 163.342 29.7004 163.342 29.7004C163.342 29.7004 163.181 29.874 162.664 29.8374C162.146 29.7994 161.109 29.4292 160.998 29.2691C160.887 29.1077 161.097 28.3917 162.17 28.3658ZM145.394 78.6304C147.092 78.2585 148.738 77.4652 150.02 76.1612C149.737 76.4239 148.24 77.6968 145.394 78.0428V70.4161C148.731 69.5576 152.136 67.9833 152.446 61.9813C152.446 61.9813 162.405 56.9888 157.272 49.079C154.606 44.9702 149.956 43.7831 145.394 43.5693V36.5797C149.529 36.0809 151.982 34.5175 153.381 33.9307C155.153 33.1888 156.604 34.3836 156.765 34.739C156.926 35.0943 159.379 38.2599 160.231 38.3901C161.083 38.519 162.147 38.2599 161.568 37.259C161.408 36.9836 161.205 36.6798 160.991 36.353C161.181 36.3218 162.721 36.0886 163.266 36.4588C163.846 36.8534 164.183 38.1378 164.765 38.2491C165.347 38.3604 165.9 37.9439 165.9 37.9439C165.9 37.9439 164.987 38.3047 164.683 37.9439C164.378 37.5831 163.769 36.14 163.021 36.0017C162.282 35.8634 161.461 36.1699 160.477 35.5406C160.085 34.8773 159.741 34.1571 159.652 33.4248C159.48 32.0142 160.085 31.8637 160.987 31.4758C160.987 31.4758 158.635 31.0241 158.215 32.4455C157.797 33.8669 158.731 35.2232 158.731 35.2232C158.731 35.2232 157.249 33.9958 157.217 32.1539C157.184 30.3134 159.054 30.4423 160.149 30.4748C161.244 30.506 163.469 30.8939 163.114 32.1865C162.771 33.4383 162.307 34.3877 162.278 34.446C162.342 34.3647 163.86 32.3967 164.049 31.6372C164.049 31.6372 164.791 31.2493 164.726 31.8637C164.661 32.4767 163.952 34.0609 163.791 34.3185C163.791 34.3185 164.919 33.5753 165.274 31.7986C165.274 31.7986 166.82 30.7325 166.37 29.893C166.37 29.893 166.209 29.5377 165.274 29.3763C164.339 29.2149 164.371 29.0535 163.952 28.5354C163.534 28.0188 162.665 27.4775 160.231 27.8938C160.231 27.8938 159.149 26.9444 157.796 27.0801C156.443 27.2157 152.79 29.1145 149.001 30.4708C147.922 30.8572 146.701 31.15 145.394 31.3176V24.7976H182.438L145.394 89.116V78.6304ZM141.606 77.8757C137.584 76.8553 137.591 72.956 140.954 71.581C141.161 71.4963 141.379 71.4192 141.606 71.3468V77.8757ZM149.611 63.286C149.611 63.286 149.429 66.995 145.394 68.2998V64.651C146.731 64.3438 148.141 63.8969 149.611 63.286ZM141.606 62.1581C138.239 62.3464 135.256 61.0273 135.053 58.7357C134.826 56.1733 136.663 54.0915 141.606 54.4642V62.1581ZM149.407 59.6159C149.407 59.6159 147.966 60.6148 145.394 61.4089V55.5506C148.129 57.0639 149.407 59.6159 149.407 59.6159ZM145.394 47.5773C150.163 48.1427 154.89 50.4875 154.133 54.1569C153.572 56.8816 151.756 57.9097 151.756 57.9097C151.756 57.9097 150.443 53.9346 145.394 52.1543V47.5773ZM141.606 43.5767C138.807 43.6926 136.285 43.9845 134.595 43.9332C129.539 43.7786 126.091 41.7062 125.708 39.1713C125.324 36.6364 126.244 33.1048 131.07 33.9483C135.865 34.7875 136.046 36.4506 141.606 36.7085V43.5767ZM97.9999 21L143.5 100L189 21H97.9999Z" fill="#577481"/>
</svg>
