<svg width="84" height="78" viewBox="0 0 84 78" fill="none" xmlns="http://www.w3.org/2000/svg">
<g opacity="0.5">
<path d="M59.6817 21.065C60.2569 21.065 60.7345 21.065 61.2108 21.065C65.9746 21.0664 70.7384 21.0637 75.5023 21.0704C78.1417 21.0744 79.6092 22.5401 79.6145 25.1651C79.6199 27.4811 79.6239 29.7958 79.6145 32.1118C79.6038 34.6065 78.2206 36.0708 75.7457 36.0964C70.7585 36.1474 65.7699 36.1501 60.7813 36.1648C60.4389 36.1662 60.0977 36.099 59.6817 36.0547C59.6817 36.4 59.6817 36.6753 59.6817 36.9507C59.6843 42.0395 59.6924 47.1297 59.6884 52.2185C59.6871 54.7548 58.3265 56.2044 55.774 56.2353C50.7841 56.2944 45.7943 56.2823 40.803 56.2944C40.4833 56.2957 40.1635 56.2541 39.7595 56.2259C39.7595 56.5631 39.7595 56.8345 39.7595 57.1058C39.7515 62.0925 39.7435 67.0805 39.7328 72.0672C39.7274 74.9018 38.2384 76.3809 35.3957 76.3823C33.2927 76.3836 31.1871 76.3299 29.0867 76.3957C26.2854 76.483 24.6078 74.7016 24.66 71.9974C24.755 67.0631 24.6855 62.1248 24.6855 57.1878C24.6855 56.9097 24.6855 56.6316 24.6855 56.2971C24.1865 56.2971 23.7223 56.2971 23.2567 56.2971C18.442 56.2971 13.6274 56.3105 8.8127 56.2903C6.1746 56.2796 4.73251 54.8247 4.7004 52.1661C4.67365 49.9012 4.67629 47.6361 4.69903 45.3725C4.72712 42.6575 6.15587 41.2161 8.84346 41.2067C13.6835 41.1905 18.5236 41.1999 23.3637 41.2026C23.765 41.2026 24.1664 41.2362 24.541 41.2537C24.5998 41.1771 24.6574 41.1381 24.6574 41.0991C24.6534 38.2753 24.6373 35.4529 24.6399 32.629C24.6426 29.9086 24.5797 27.1829 24.7042 24.4679C24.7978 22.4353 26.2747 21.104 28.3188 21.0905C33.5121 21.0556 38.7067 21.0865 43.9013 21.0905C44.1019 21.0905 44.3013 21.0905 44.613 21.0905C44.613 20.7641 44.613 20.4699 44.613 20.1757C44.613 15.2387 44.6116 10.3031 44.6143 5.36606C44.6156 2.40251 46.0377 0.985235 49.0102 0.977175C51.1132 0.971801 53.2162 0.971801 55.3206 0.977175C58.2048 0.985235 59.6723 2.44687 59.679 5.35668C59.691 10.3192 59.6817 15.2803 59.6817 20.2428C59.6817 20.4941 59.6817 20.7453 59.6817 21.065ZM42.8083 43.6395C44.0484 42.4184 45.3715 41.1341 46.6732 39.8297C47.7313 38.7697 47.7822 37.3081 46.8323 36.1904C45.9615 35.1654 44.4003 34.9693 43.2725 35.8183C42.8592 36.13 42.6291 36.0923 42.2438 35.7995C41.1843 34.9961 39.6792 35.1493 38.7923 36.091C37.8746 37.0649 37.7542 38.6434 38.6839 39.6268C39.9856 41.0051 41.3983 42.2787 42.8083 43.6395Z" fill="#577481"/>
</g>
</svg>
