<svg width="366" height="152" viewBox="0 0 366 152" fill="none" xmlns="http://www.w3.org/2000/svg">
<path d="M68.841 86.8886H56.9391L49.6497 75.1804L47.2813 77.5676V86.8886H37.332V57.432H47.2813V66.9392L55.8122 57.432H67.4811L56.5403 68.4187L68.841 86.8886ZM82.1625 75.9607C82.1625 74.6138 81.8362 73.3924 81.1829 72.3107C80.5299 71.229 79.5218 70.6846 78.1447 70.6846C76.9165 70.6846 75.9867 71.229 75.362 72.3178C74.7372 73.4133 74.425 74.6278 74.425 75.9607C74.425 77.3914 74.7585 78.7453 75.426 80.0086C76.0861 81.2786 77.1081 81.9136 78.4782 81.9136C79.7988 81.9136 80.7428 81.2995 81.3108 80.0643C81.8787 78.8292 82.1625 77.4612 82.1625 75.9607ZM89.063 82.5974C86.7121 85.9744 82.6826 87.5547 78.515 87.5547C74.2201 87.5547 70.0805 85.9877 67.68 82.4764C65.4782 79.2553 65.1965 74.003 67.0513 70.5661C68.4782 67.9211 71.0935 66.0092 74.0922 65.2324C77.3951 64.3443 80.97 64.5363 84.1411 65.8034C87.1064 66.9838 89.3125 69.4124 90.273 72.2993C91.3218 75.4514 90.9475 79.8898 89.063 82.5974ZM166.165 73.7999C165.854 72.397 165.342 71.4246 164.636 70.8826C163.923 70.3327 163.024 70.0617 161.924 70.0617C160.858 70.0617 160.014 70.3249 159.391 70.8587C158.769 71.3848 158.298 72.3653 157.973 73.7999H166.165ZM174.676 77.96H158.059C158.059 78.6232 158.176 79.2051 158.411 79.7121C159.127 81.2544 160.42 82.2954 162.273 82.2954C163.633 82.2954 165.202 81.7648 165.494 80.3336H174.005C173.682 82.3645 172.344 84.1563 170.622 85.3338C168.884 86.5181 166.75 87.1778 164.643 87.4107C161.941 87.7324 158.815 87.6449 156.312 86.6327C153.401 85.4606 151.227 83.2935 150.043 80.497C148.956 77.7712 148.941 74.7478 149.995 72.0002C151.088 69.1499 153.338 66.9455 156.257 65.7765C159.806 64.361 164.775 64.457 168.207 66.1146C171.252 67.58 173.329 70.0782 174.192 73.2313C174.618 74.8174 174.78 76.3371 174.676 77.96ZM198.514 82.6383C196.879 85.6576 193.86 87.5435 190.22 87.5435C187.606 87.5435 185.886 86.7204 184.119 84.9639V94.2004H175.254V65.4975H183.104V68.6979C184.807 65.411 189.021 64.2168 192.421 65.046C196.126 65.9411 198.621 68.9584 199.509 72.3497C200.339 75.5018 200.051 79.8224 198.514 82.6383ZM191.293 75.6594C191.293 74.7522 190.983 73.7618 190.354 72.6951C189.725 71.6287 188.814 71.0955 187.628 71.0955C186.449 71.0955 185.538 71.594 184.902 72.5982C184.266 73.5956 183.949 74.6135 183.949 75.6594C183.949 76.9408 184.196 78.1389 184.69 79.247C185.191 80.3552 186.166 80.9092 187.628 80.9092C189.054 80.9092 190.015 80.3343 190.53 79.1847C190.997 78.0751 191.293 76.8618 191.293 75.6594ZM219.037 86.6424C215.592 87.8111 210.91 87.9905 207.48 86.608C205.32 85.7376 203.406 84.2688 202.197 82.3158C201.015 80.44 200.401 78.279 200.401 76.0792C200.401 74.614 200.72 73.1743 201.254 71.8073C202.493 68.7335 204.636 66.9697 207.73 65.7479C211.27 64.3494 216.529 64.4003 219.89 66.1723C223.094 67.8612 224.771 70.187 225.211 73.6147H216.139C215.98 72.5604 215.673 71.9086 215.224 71.3526C213.954 69.7767 211.077 70.5467 210.16 72.1018C208.989 74.0861 208.795 77.0172 209.536 79.1923C210.024 80.6259 211.631 81.8414 213.193 81.8414C215.407 81.8414 215.866 80.3973 216.444 78.6023H225.211C225.119 82.1914 222.904 85.3302 219.037 86.6424ZM241.383 78.4772C241.383 78.079 241.346 77.7521 241.271 77.5031C240.663 77.8301 239.713 78.1147 238.423 78.3563C237.439 78.5303 236.394 78.7431 235.514 79.2097C234.268 79.8067 234.336 81.5186 235.425 82.2101C236.686 82.945 238.801 82.8844 239.862 81.8547C240.871 80.9231 241.383 79.7999 241.383 78.4772ZM251.246 86.8886H242.172L241.827 84.6229C241.165 85.4511 239.687 86.1334 238.194 86.6901C237.467 86.9616 236.719 87.1764 235.953 87.313C235.188 87.4432 234.374 87.5118 233.526 87.5118C231.996 87.5118 230.596 87.2517 229.327 86.7313C228.058 86.211 227.1 85.3963 226.438 84.301C225.845 83.0962 225.549 81.8775 225.549 80.6317C225.549 79.057 226.306 77.7586 227.346 76.5947C227.94 75.9308 228.521 75.5578 229.568 75.1678C230.065 74.9832 230.556 74.8227 231.037 74.6887C231.514 74.5558 231.966 74.4293 232.395 74.3668L236.112 73.8261C237.689 73.5965 239.215 73.3985 239.889 73.1825C240.304 73.0495 240.793 72.6151 241.035 72.3413C241.276 72.0676 241.241 71.7799 241.241 71.4857C241.241 71.0816 241.041 70.7462 240.634 70.4725C240.227 70.1987 239.648 70.0617 238.896 70.0617C237.993 70.0617 236.87 70.1919 236.326 70.4519C235.781 70.712 235.429 71.2324 235.264 72.0058H226.858C227.14 70.6025 227.089 69.7832 227.5 68.9262C227.91 68.0718 228.555 67.3381 229.438 66.7288C230.32 66.1197 231.532 65.6461 233.085 65.3322C233.835 65.1808 234.726 65.0751 235.74 64.9968C236.76 64.9178 237.891 64.8737 239.146 64.8737C242.2 64.8737 244.488 65.2256 246.013 65.9278C247.535 66.629 248.528 67.1939 248.992 68.2475C249.452 69.2956 249.764 70.6572 249.909 72.3277V83.6369C249.909 84.8008 250.357 85.6634 251.246 86.2248V86.8886ZM275.906 86.8886H267.152V78.8939H260.669V86.8886H251.999L251.991 65.8311L251.999 65.5092H260.669V72.6728H267.054V65.5092H275.906L275.898 86.5055L275.906 86.8886ZM300.231 71.8102H292.693V86.8886H283.912V71.8102H276.31V65.5092H300.231V71.8102ZM328.665 80.0471C328.665 81.925 327.742 83.5749 326.258 84.7516C324.306 86.3154 321.607 86.8886 319.129 86.8886H305.578V71.8102H300.517V65.5092H314.027V73.0129H318.649C321.222 73.0129 324.074 73.5003 326.114 75.1373C327.647 76.3678 328.665 78.089 328.665 80.0471ZM319.938 80.0689C319.938 78.7182 319.166 78.1515 317.84 77.9976C317.57 77.9976 317.038 77.9758 316.248 77.943C315.459 77.9089 314.402 77.8953 314.027 77.8953V82.0244L316.222 82.0654C316.821 82.0776 317.314 82.0532 317.695 82.0244C319.043 81.9274 319.938 81.5726 319.938 80.0689ZM107.838 86.8884H103.583L98.9342 72.6064L99.6523 78.2043V86.8884H91.8886V65.3858H101.846L105.711 77.2634L109.576 65.3858H119.534V86.8884H111.77V78.2043L112.488 72.6064L107.838 86.8884ZM136.913 86.8884H132.658L128.009 72.6064L128.727 78.2043V86.8884H120.963V65.3858H130.92L134.785 77.2634L138.651 65.3858H148.608V86.8884H140.844V78.2043L141.562 72.6064L136.913 86.8884Z" fill="#577481"/>
</svg>
