<svg width="112" height="109" viewBox="0 0 112 109" fill="none" xmlns="http://www.w3.org/2000/svg">
<path d="M95.0671 17.8809C95.9881 17.8809 96.7527 17.8809 97.5152 17.8809C105.142 17.8831 112.769 17.8788 120.396 17.8896C124.621 17.896 126.971 20.2449 126.979 24.4519C126.988 28.1636 126.994 31.8732 126.979 35.585C126.962 39.5831 124.748 41.9299 120.785 41.9708C112.801 42.0526 104.814 42.0569 96.8277 42.0806C96.2794 42.0827 95.7332 41.9751 95.0671 41.9041C95.0671 42.4574 95.0671 42.8987 95.0671 43.3401C95.0714 51.4956 95.0843 59.6533 95.0779 67.8089C95.0757 71.8737 92.8975 74.1969 88.811 74.2464C80.8222 74.3411 72.8335 74.3217 64.8425 74.3411C64.3306 74.3433 63.8187 74.2765 63.1719 74.2313C63.1719 74.7717 63.1719 75.2066 63.1719 75.6415C63.159 83.6335 63.1462 91.6275 63.1291 99.6194C63.1205 104.162 60.7367 106.533 56.1854 106.535C52.8185 106.537 49.4475 106.451 46.0849 106.556C41.6 106.696 38.9142 103.841 38.9977 99.5074C39.1498 91.5995 39.0385 83.6851 39.0385 75.7728C39.0385 75.3272 39.0385 74.8815 39.0385 74.3454C38.2396 74.3454 37.4964 74.3454 36.751 74.3454C29.0428 74.3454 21.3345 74.3669 13.6263 74.3346C9.40272 74.3174 7.09394 71.9857 7.04254 67.725C6.9997 64.095 7.00393 60.465 7.04034 56.8372C7.08532 52.486 9.37273 50.1759 13.6755 50.1608C21.4245 50.135 29.1734 50.15 36.9223 50.1543C37.5649 50.1543 38.2074 50.2082 38.8071 50.2362C38.9014 50.1135 38.9935 50.051 38.9935 49.9885C38.9871 45.4629 38.9613 40.9395 38.9656 36.4139C38.9699 32.0541 38.8692 27.6857 39.0684 23.3345C39.2183 20.077 41.5828 17.9434 44.8554 17.9218C53.1698 17.8658 61.4863 17.9154 69.8028 17.9218C70.124 17.9218 70.4432 17.9218 70.9423 17.9218C70.9423 17.3986 70.9423 16.9271 70.9423 16.4556C70.9423 8.54337 70.9401 0.633319 70.9444 -7.27894C70.9465 -12.0284 73.2232 -14.2998 77.9822 -14.3128C81.349 -14.3214 84.716 -14.3214 88.085 -14.3128C92.7027 -14.2998 95.0521 -11.9574 95.0628 -7.29397C95.0821 0.659192 95.0671 8.61011 95.0671 16.5633C95.0671 16.9659 95.0671 17.3685 95.0671 17.8809ZM68.053 54.0599C70.0384 52.1028 72.1566 50.0446 74.2406 47.954C75.9347 46.2553 76.0161 43.9129 74.4954 42.1216C73.1011 40.4788 70.6017 40.1645 68.7962 41.5252C68.1344 42.0247 67.766 41.9644 67.1492 41.495C65.4529 40.2075 63.0434 40.453 61.6234 41.9622C60.1541 43.5231 59.9613 46.0529 61.4499 47.6288C63.5338 49.8378 65.7955 51.8789 68.053 54.0599Z" fill="#224858"/>
</svg>
