<svg width="344" height="318" viewBox="0 0 344 318" fill="none" xmlns="http://www.w3.org/2000/svg">
<path d="M244.053 86.5778C246.417 86.5778 248.38 86.5778 250.337 86.5778C269.917 86.5833 289.496 86.5723 309.075 86.5999C319.923 86.6165 325.955 92.6403 325.977 103.429C325.999 112.948 326.015 122.461 325.977 131.98C325.933 142.233 320.248 148.252 310.076 148.357C289.578 148.567 269.075 148.577 248.572 148.638C247.165 148.644 245.763 148.368 244.053 148.186C244.053 149.605 244.053 150.736 244.053 151.868C244.064 172.783 244.097 193.704 244.08 214.619C244.075 225.043 238.483 231.001 227.992 231.128C207.484 231.371 186.975 231.321 166.461 231.371C165.147 231.376 163.833 231.205 162.172 231.089C162.172 232.475 162.172 233.59 162.172 234.706C162.139 255.201 162.107 275.702 162.063 296.197C162.041 307.847 155.921 313.927 144.237 313.932C135.594 313.938 126.94 313.717 118.307 313.987C106.794 314.346 99.8988 307.025 100.113 295.91C100.504 275.63 100.218 255.334 100.218 235.043C100.218 233.9 100.218 232.757 100.218 231.382C98.1671 231.382 96.2591 231.382 94.3457 231.382C74.5574 231.382 54.769 231.437 34.9807 231.354C24.1381 231.31 18.2111 225.33 18.0791 214.404C17.9692 205.095 17.98 195.785 18.0735 186.482C18.1889 175.323 24.0611 169.399 35.1071 169.36C54.9999 169.294 74.8927 169.332 94.7854 169.343C96.4349 169.343 98.0846 169.482 99.6241 169.553C99.866 169.239 100.102 169.078 100.102 168.918C100.086 157.312 100.02 145.712 100.031 134.106C100.042 122.925 99.7834 111.722 100.295 100.564C100.68 92.2097 106.75 86.7379 115.151 86.6827C136.495 86.5391 157.845 86.6661 179.195 86.6827C180.02 86.6827 180.839 86.6827 182.12 86.6827C182.12 85.341 182.12 84.1318 182.12 82.9226C182.12 62.6315 182.115 42.346 182.126 22.0549C182.131 9.87472 187.976 4.04969 200.193 4.01656C208.836 3.99448 217.48 3.99448 226.128 4.01656C237.983 4.04969 244.014 10.057 244.042 22.0163C244.091 42.4124 244.053 62.8026 244.053 83.1986C244.053 84.2311 244.053 85.2637 244.053 86.5778ZM174.703 179.359C179.8 174.34 185.238 169.062 190.588 163.701C194.937 159.344 195.146 153.337 191.242 148.743C187.662 144.531 181.246 143.724 176.611 147.214C174.912 148.495 173.966 148.34 172.383 147.137C168.028 143.835 161.842 144.464 158.197 148.335C154.425 152.338 153.93 158.825 157.752 162.867C163.102 168.532 168.908 173.766 174.703 179.359Z" fill="#ed3834"/>
</svg>
