<svg width="432" height="352" viewBox="0 0 432 352" fill="none" xmlns="http://www.w3.org/2000/svg">
<rect width="432" height="352" fill="#F2F5FA"/>
<circle cx="216" cy="176" r="108" fill="#F2F5FA"/>
<path d="M176.896 176.4C177.1 178.644 173.564 182.112 170.368 184.56C166.968 187.144 162.344 190.476 160.848 190.272C159.964 190.136 159.012 189.932 158.944 189.048C158.876 187.348 161.392 183.268 161.664 182.656C160.78 182.656 157.312 182.996 155.272 183.88C153.436 185.988 149.968 189.592 148.064 191.632C145.208 194.828 137.184 201.56 135.552 201.152C135.008 201.016 134.668 200.608 134.668 200.064C134.6 198.636 141.944 193.468 145.616 190.136C148.472 187.484 149.152 185.92 149.968 184.56C150.58 183.472 151.396 182.316 151.464 181.432C148.2 183.268 143.1 186.464 140.04 186.328C138.612 186.26 137.864 184.56 138 183.064C138.136 181.568 139.224 177.624 142.216 174.36C144.936 171.368 148.608 168.784 152.62 168.784C155.204 168.784 156.496 171.776 157.312 174.632C158.128 173.476 162.344 167.832 165.88 163.752C169.212 159.944 173.7 154.572 174.856 154.368C175.604 154.232 176.08 154.708 176.08 155.456C176.08 156.884 171.252 161.44 168.192 165.248C164.248 170.144 160.168 175.244 158.264 177.76C157.992 178.78 157.516 180.072 157.856 180.956C159.964 179.596 160.508 178.848 163.024 177.352C164.656 176.332 170.164 173.204 173.36 173.136C175.672 173.068 176.692 174.02 176.896 176.4ZM174.176 176.808C174.244 176.128 173.768 175.788 172.952 175.72C172.136 175.652 168.872 176.536 167.376 177.624C166.288 178.44 165.812 178.644 164.792 179.8C165.404 180.548 165.608 180.616 165.744 181.432C165.88 182.656 163.976 184.9 163.84 186.328C166.492 184.356 169.688 182.18 170.504 181.296C171.252 180.548 174.04 178.508 174.176 176.808ZM154.728 175.448C154.388 172.864 153.64 171.572 151.872 171.64C149.968 171.708 145.82 174.088 143.576 176.944C142.42 178.44 140.992 180.752 140.788 182.656C140.72 182.996 141.06 183.404 141.4 183.472C142.896 183.676 146.228 181.296 148.608 180.072C150.852 178.848 152.892 176.74 154.728 175.448ZM199.338 178.372C199.338 181.16 196.89 184.152 193.966 186.532C190.566 189.32 186.078 190.476 183.222 190.408C178.326 190.272 176.422 187.076 176.558 184.288C176.626 182.588 177.782 179.868 179.822 178.644C180.502 178.236 181.386 178.304 181.998 178.304C182.814 177.828 183.562 176.672 184.378 176.128C187.71 174.156 190.974 172.932 193.15 172.932C196.958 172.932 199.338 175.244 199.338 178.372ZM196.754 177.964C196.754 175.856 194.918 175.652 193.422 175.584C191.246 175.516 188.798 176.332 186.554 178.168C185.398 179.052 185.194 180.548 183.834 180.956C183.154 181.092 182.882 180.888 182.066 180.956C180.298 181.16 179.278 183.948 179.278 184.492C179.278 186.328 181.454 187.96 183.902 187.96C186.01 187.96 189.138 186.804 191.79 185.036C194.102 183.472 196.754 180.956 196.754 177.964ZM266.91 178.984C266.774 180.684 259.498 185.444 255.758 187.688C250.726 190.68 246.646 191.836 244.062 192.04C242.09 192.176 240.118 190.272 240.118 187.688C240.118 186.94 241.546 183.676 242.838 181.16C243.926 178.984 246.17 176.876 246.102 175.72C246.034 175.108 245.354 174.7 244.742 174.632C243.586 174.564 236.378 178.644 234.134 180.072C232.57 181.568 231.346 183.268 230.462 184.424C229.306 185.92 228.218 187.144 227.198 187.144C226.314 187.144 225.634 186.464 225.43 185.512C225.226 184.56 228.218 182.248 229.51 180.888C231.958 178.372 232.502 176.332 232.502 175.516C232.502 174.496 231.618 173.952 230.734 173.952C230.326 173.952 228.354 174.02 225.566 175.04C222.642 176.128 218.358 178.372 216.454 179.936C213.734 182.18 212.442 184.084 210.334 186.056C209.11 187.144 207.818 189.116 206.254 188.912C205.438 188.776 204.962 187.892 204.894 187.144C204.826 185.988 206.73 184.424 208.158 182.928C209.926 181.092 212.17 179.188 212.102 177.76C212.034 176.944 211.422 176.264 210.606 176.264C208.974 176.264 206.458 177.42 204.078 178.576C201.426 179.8 198.638 182.792 197.686 182.52C196.938 182.316 196.122 182.044 196.19 181.296C196.326 180.072 200.202 177.556 203.126 175.992C205.778 174.564 209.722 173.748 211.83 173.544C213.666 173.34 215.162 175.856 215.366 177.216C217.338 175.72 227.606 171.232 230.734 171.232C233.794 171.232 234.746 173 235.086 174.496C235.29 175.244 235.358 175.992 235.358 176.4C238.078 175.516 243.246 171.776 245.558 171.912C247.666 172.048 249.026 173.136 249.094 174.904C249.162 177.012 246.986 178.848 245.694 181.432C244.538 183.812 242.838 186.532 242.838 187.552C242.838 188.708 243.178 189.456 244.334 189.456C246.374 189.456 250.182 187.96 254.67 185.512C259.634 182.792 264.938 177.76 266.366 178.032C266.706 178.1 266.91 178.644 266.91 178.984ZM285.666 178.372C285.666 181.16 283.218 184.152 280.294 186.532C276.894 189.32 272.406 190.476 269.55 190.408C264.654 190.272 262.75 187.076 262.886 184.288C262.954 182.588 264.11 179.868 266.15 178.644C266.83 178.236 267.714 178.304 268.326 178.304C269.142 177.828 269.89 176.672 270.706 176.128C274.038 174.156 277.302 172.932 279.478 172.932C283.286 172.932 285.666 175.244 285.666 178.372ZM283.082 177.964C283.082 175.856 281.246 175.652 279.75 175.584C277.574 175.516 275.126 176.332 272.882 178.168C271.726 179.052 271.522 180.548 270.162 180.956C269.482 181.092 269.21 180.888 268.394 180.956C266.626 181.16 265.606 183.948 265.606 184.492C265.606 186.328 267.782 187.96 270.23 187.96C272.338 187.96 275.466 186.804 278.118 185.036C280.43 183.472 283.082 180.956 283.082 177.964Z" fill="#CADBE0"/>
<path d="M170.328 230.224C169.816 230.224 169.411 230.085 169.112 229.808C168.835 229.509 168.696 229.104 168.696 228.592V216.976H164.344C163.405 216.976 162.936 216.539 162.936 215.664C162.936 215.28 163.064 214.971 163.32 214.736C163.576 214.501 163.917 214.384 164.344 214.384H176.28C177.219 214.384 177.688 214.811 177.688 215.664C177.688 216.091 177.56 216.421 177.304 216.656C177.069 216.869 176.728 216.976 176.28 216.976H171.928V228.592C171.928 229.104 171.789 229.509 171.512 229.808C171.256 230.085 170.861 230.224 170.328 230.224ZM186.779 230.288C185.201 230.288 183.835 229.957 182.683 229.296C181.553 228.635 180.667 227.696 180.027 226.48C179.387 225.264 179.067 223.835 179.067 222.192C179.067 220.933 179.249 219.813 179.611 218.832C179.974 217.851 180.486 217.008 181.147 216.304C181.83 215.579 182.641 215.035 183.579 214.672C184.539 214.288 185.606 214.096 186.779 214.096C188.337 214.096 189.681 214.427 190.811 215.088C191.963 215.749 192.859 216.688 193.499 217.904C194.139 219.099 194.459 220.528 194.459 222.192C194.459 223.429 194.278 224.549 193.915 225.552C193.553 226.555 193.03 227.408 192.347 228.112C191.686 228.816 190.875 229.36 189.915 229.744C188.977 230.107 187.931 230.288 186.779 230.288ZM186.779 227.792C187.654 227.792 188.422 227.579 189.083 227.152C189.745 226.725 190.257 226.096 190.619 225.264C191.003 224.432 191.195 223.408 191.195 222.192C191.195 220.357 190.79 218.971 189.979 218.032C189.169 217.093 188.102 216.624 186.779 216.624C185.883 216.624 185.105 216.837 184.443 217.264C183.782 217.669 183.259 218.288 182.875 219.12C182.513 219.952 182.331 220.976 182.331 222.192C182.331 224.005 182.737 225.392 183.547 226.352C184.358 227.312 185.435 227.792 186.779 227.792ZM200.064 230C199.531 230 199.125 229.861 198.848 229.584C198.571 229.285 198.432 228.88 198.432 228.368V216.048C198.432 215.515 198.571 215.109 198.848 214.832C199.125 214.533 199.531 214.384 200.064 214.384H206.4C207.68 214.384 208.725 214.544 209.536 214.864C210.368 215.184 210.976 215.653 211.36 216.272C211.744 216.869 211.936 217.605 211.936 218.48C211.936 219.483 211.595 220.325 210.912 221.008C210.229 221.669 209.333 222.064 208.224 222.192V221.776C209.568 221.84 210.603 222.224 211.328 222.928C212.075 223.632 212.448 224.539 212.448 225.648C212.448 226.992 211.947 228.059 210.944 228.848C209.941 229.616 208.512 230 206.656 230H200.064ZM201.472 227.92H206.464C207.424 227.92 208.16 227.717 208.672 227.312C209.205 226.885 209.472 226.277 209.472 225.488C209.472 224.699 209.205 224.101 208.672 223.696C208.16 223.291 207.424 223.088 206.464 223.088H201.472V227.92ZM201.472 221.008H206.176C207.051 221.008 207.723 220.805 208.192 220.4C208.683 219.995 208.928 219.44 208.928 218.736C208.928 218.011 208.683 217.456 208.192 217.072C207.723 216.688 207.051 216.496 206.176 216.496H201.472V221.008ZM221.237 230.288C220.149 230.288 219.168 230.075 218.293 229.648C217.44 229.221 216.768 228.645 216.277 227.92C215.787 227.195 215.541 226.373 215.541 225.456C215.541 224.304 215.829 223.397 216.405 222.736C217.003 222.053 217.973 221.573 219.317 221.296C220.683 220.997 222.517 220.848 224.821 220.848H226.325V222.832H224.853C223.317 222.832 222.101 222.907 221.205 223.056C220.309 223.205 219.669 223.461 219.285 223.824C218.923 224.165 218.741 224.645 218.741 225.264C218.741 226.075 219.019 226.736 219.573 227.248C220.128 227.739 220.896 227.984 221.877 227.984C222.667 227.984 223.36 227.803 223.957 227.44C224.555 227.056 225.024 226.544 225.365 225.904C225.728 225.264 225.909 224.528 225.909 223.696V220.016C225.909 218.8 225.653 217.925 225.141 217.392C224.629 216.859 223.787 216.592 222.613 216.592C221.931 216.592 221.216 216.677 220.469 216.848C219.744 217.019 218.987 217.307 218.197 217.712C217.835 217.883 217.525 217.936 217.269 217.872C217.013 217.808 216.811 217.669 216.661 217.456C216.512 217.221 216.427 216.976 216.405 216.72C216.405 216.443 216.469 216.176 216.597 215.92C216.747 215.664 216.992 215.472 217.333 215.344C218.272 214.896 219.2 214.576 220.117 214.384C221.035 214.192 221.899 214.096 222.709 214.096C224.139 214.096 225.312 214.32 226.229 214.768C227.168 215.216 227.861 215.899 228.309 216.816C228.757 217.733 228.981 218.917 228.981 220.368V228.592C228.981 229.104 228.853 229.509 228.597 229.808C228.341 230.085 227.968 230.224 227.477 230.224C227.008 230.224 226.635 230.085 226.357 229.808C226.08 229.509 225.941 229.104 225.941 228.592V226.512H226.229C226.059 227.301 225.739 227.984 225.269 228.56C224.821 229.115 224.256 229.541 223.573 229.84C222.891 230.139 222.112 230.288 221.237 230.288ZM235.408 235.984C234.896 235.984 234.501 235.845 234.224 235.568C233.946 235.291 233.808 234.885 233.808 234.352V215.792C233.808 215.259 233.946 214.853 234.224 214.576C234.501 214.299 234.885 214.16 235.376 214.16C235.888 214.16 236.282 214.299 236.56 214.576C236.837 214.853 236.976 215.259 236.976 215.792V218.576L236.624 217.904C236.965 216.752 237.637 215.835 238.64 215.152C239.642 214.448 240.826 214.096 242.192 214.096C243.578 214.096 244.784 214.427 245.808 215.088C246.853 215.749 247.653 216.677 248.208 217.872C248.784 219.067 249.072 220.507 249.072 222.192C249.072 223.835 248.784 225.275 248.208 226.512C247.653 227.728 246.864 228.667 245.84 229.328C244.816 229.968 243.6 230.288 242.192 230.288C240.848 230.288 239.674 229.947 238.672 229.264C237.669 228.581 236.997 227.675 236.656 226.544H237.04V234.352C237.04 234.885 236.89 235.291 236.592 235.568C236.314 235.845 235.92 235.984 235.408 235.984ZM241.392 227.792C242.288 227.792 243.066 227.579 243.728 227.152C244.389 226.725 244.901 226.096 245.264 225.264C245.626 224.432 245.808 223.408 245.808 222.192C245.808 220.357 245.402 218.971 244.592 218.032C243.802 217.093 242.736 216.624 241.392 216.624C240.517 216.624 239.738 216.837 239.056 217.264C238.394 217.669 237.882 218.288 237.52 219.12C237.157 219.952 236.976 220.976 236.976 222.192C236.976 224.005 237.381 225.392 238.192 226.352C239.002 227.312 240.069 227.792 241.392 227.792ZM258.05 230.288C256.962 230.288 255.98 230.075 255.106 229.648C254.252 229.221 253.58 228.645 253.09 227.92C252.599 227.195 252.354 226.373 252.354 225.456C252.354 224.304 252.642 223.397 253.218 222.736C253.815 222.053 254.786 221.573 256.13 221.296C257.495 220.997 259.33 220.848 261.634 220.848H263.138V222.832H261.666C260.13 222.832 258.914 222.907 258.018 223.056C257.122 223.205 256.482 223.461 256.098 223.824C255.735 224.165 255.554 224.645 255.554 225.264C255.554 226.075 255.831 226.736 256.386 227.248C256.94 227.739 257.708 227.984 258.69 227.984C259.479 227.984 260.172 227.803 260.77 227.44C261.367 227.056 261.836 226.544 262.178 225.904C262.54 225.264 262.722 224.528 262.722 223.696V220.016C262.722 218.8 262.466 217.925 261.954 217.392C261.442 216.859 260.599 216.592 259.426 216.592C258.743 216.592 258.028 216.677 257.282 216.848C256.556 217.019 255.799 217.307 255.01 217.712C254.647 217.883 254.338 217.936 254.082 217.872C253.826 217.808 253.623 217.669 253.474 217.456C253.324 217.221 253.239 216.976 253.218 216.72C253.218 216.443 253.282 216.176 253.41 215.92C253.559 215.664 253.804 215.472 254.146 215.344C255.084 214.896 256.012 214.576 256.93 214.384C257.847 214.192 258.711 214.096 259.522 214.096C260.951 214.096 262.124 214.32 263.042 214.768C263.98 215.216 264.674 215.899 265.122 216.816C265.57 217.733 265.794 218.917 265.794 220.368V228.592C265.794 229.104 265.666 229.509 265.41 229.808C265.154 230.085 264.78 230.224 264.29 230.224C263.82 230.224 263.447 230.085 263.17 229.808C262.892 229.509 262.754 229.104 262.754 228.592V226.512H263.042C262.871 227.301 262.551 227.984 262.082 228.56C261.634 229.115 261.068 229.541 260.386 229.84C259.703 230.139 258.924 230.288 258.05 230.288Z" fill="#CADBE0"/>
<path d="M158.288 143.224C157.755 143.224 157.339 143.075 157.04 142.776C156.763 142.477 156.624 142.061 156.624 141.528V122.136C156.624 121.581 156.773 121.165 157.072 120.888C157.371 120.589 157.797 120.44 158.352 120.44H169.904C170.373 120.44 170.725 120.557 170.96 120.792C171.216 121.027 171.344 121.368 171.344 121.816C171.344 122.264 171.216 122.616 170.96 122.872C170.725 123.107 170.373 123.224 169.904 123.224H159.952V141.528C159.952 142.061 159.813 142.477 159.536 142.776C159.259 143.075 158.843 143.224 158.288 143.224ZM176.998 143.288C175.419 143.288 174.054 142.957 172.902 142.296C171.771 141.635 170.886 140.696 170.246 139.48C169.606 138.264 169.286 136.835 169.286 135.192C169.286 133.933 169.467 132.813 169.83 131.832C170.193 130.851 170.705 130.008 171.366 129.304C172.049 128.579 172.859 128.035 173.798 127.672C174.758 127.288 175.825 127.096 176.998 127.096C178.555 127.096 179.899 127.427 181.03 128.088C182.182 128.749 183.078 129.688 183.718 130.904C184.358 132.099 184.678 133.528 184.678 135.192C184.678 136.429 184.497 137.549 184.134 138.552C183.771 139.555 183.249 140.408 182.566 141.112C181.905 141.816 181.094 142.36 180.134 142.744C179.195 143.107 178.15 143.288 176.998 143.288ZM176.998 140.792C177.873 140.792 178.641 140.579 179.302 140.152C179.963 139.725 180.475 139.096 180.838 138.264C181.222 137.432 181.414 136.408 181.414 135.192C181.414 133.357 181.009 131.971 180.198 131.032C179.387 130.093 178.321 129.624 176.998 129.624C176.102 129.624 175.323 129.837 174.662 130.264C174.001 130.669 173.478 131.288 173.094 132.12C172.731 132.952 172.55 133.976 172.55 135.192C172.55 137.005 172.955 138.392 173.766 139.352C174.577 140.312 175.654 140.792 176.998 140.792ZM193.547 143.224C193.035 143.224 192.629 143.085 192.331 142.808C192.053 142.509 191.915 142.104 191.915 141.592V129.976H187.563C186.624 129.976 186.155 129.539 186.155 128.664C186.155 128.28 186.283 127.971 186.539 127.736C186.795 127.501 187.136 127.384 187.563 127.384H199.499C200.437 127.384 200.907 127.811 200.907 128.664C200.907 129.091 200.779 129.421 200.523 129.656C200.288 129.869 199.947 129.976 199.499 129.976H195.147V141.592C195.147 142.104 195.008 142.509 194.731 142.808C194.475 143.085 194.08 143.224 193.547 143.224ZM209.998 143.288C208.419 143.288 207.054 142.957 205.902 142.296C204.771 141.635 203.886 140.696 203.246 139.48C202.606 138.264 202.286 136.835 202.286 135.192C202.286 133.933 202.467 132.813 202.83 131.832C203.193 130.851 203.705 130.008 204.366 129.304C205.049 128.579 205.859 128.035 206.798 127.672C207.758 127.288 208.825 127.096 209.998 127.096C211.555 127.096 212.899 127.427 214.03 128.088C215.182 128.749 216.078 129.688 216.718 130.904C217.358 132.099 217.678 133.528 217.678 135.192C217.678 136.429 217.497 137.549 217.134 138.552C216.771 139.555 216.249 140.408 215.566 141.112C214.905 141.816 214.094 142.36 213.134 142.744C212.195 143.107 211.15 143.288 209.998 143.288ZM209.998 140.792C210.873 140.792 211.641 140.579 212.302 140.152C212.963 139.725 213.475 139.096 213.838 138.264C214.222 137.432 214.414 136.408 214.414 135.192C214.414 133.357 214.009 131.971 213.198 131.032C212.387 130.093 211.321 129.624 209.998 129.624C209.102 129.624 208.323 129.837 207.662 130.264C207.001 130.669 206.478 131.288 206.094 132.12C205.731 132.952 205.55 133.976 205.55 135.192C205.55 137.005 205.955 138.392 206.766 139.352C207.577 140.312 208.654 140.792 209.998 140.792ZM223.283 143C222.749 143 222.344 142.861 222.067 142.584C221.789 142.285 221.651 141.88 221.651 141.368V129.048C221.651 128.515 221.789 128.109 222.067 127.832C222.344 127.533 222.749 127.384 223.283 127.384H229.619C230.899 127.384 231.944 127.544 232.755 127.864C233.587 128.184 234.195 128.653 234.579 129.272C234.963 129.869 235.155 130.605 235.155 131.48C235.155 132.483 234.813 133.325 234.131 134.008C233.448 134.669 232.552 135.064 231.443 135.192V134.776C232.787 134.84 233.821 135.224 234.547 135.928C235.293 136.632 235.667 137.539 235.667 138.648C235.667 139.992 235.165 141.059 234.163 141.848C233.16 142.616 231.731 143 229.875 143H223.283ZM224.691 140.92H229.683C230.643 140.92 231.379 140.717 231.891 140.312C232.424 139.885 232.691 139.277 232.691 138.488C232.691 137.699 232.424 137.101 231.891 136.696C231.379 136.291 230.643 136.088 229.683 136.088H224.691V140.92ZM224.691 134.008H229.395C230.269 134.008 230.941 133.805 231.411 133.4C231.901 132.995 232.147 132.44 232.147 131.736C232.147 131.011 231.901 130.456 231.411 130.072C230.941 129.688 230.269 129.496 229.395 129.496H224.691V134.008ZM240.936 143.224C240.616 143.224 240.339 143.16 240.104 143.032C239.891 142.925 239.72 142.744 239.592 142.488C239.485 142.232 239.432 141.901 239.432 141.496V128.728C239.432 128.216 239.56 127.832 239.816 127.576C240.072 127.299 240.435 127.16 240.904 127.16C241.373 127.16 241.736 127.299 241.992 127.576C242.248 127.832 242.376 128.216 242.376 128.728V139.8H241.544L250.216 128.216C250.429 127.939 250.675 127.693 250.952 127.48C251.229 127.267 251.603 127.16 252.072 127.16C252.392 127.16 252.659 127.224 252.872 127.352C253.085 127.459 253.245 127.64 253.352 127.896C253.48 128.152 253.544 128.483 253.544 128.888V141.656C253.544 142.147 253.416 142.531 253.16 142.808C252.925 143.085 252.573 143.224 252.104 143.224C251.613 143.224 251.24 143.085 250.984 142.808C250.728 142.531 250.6 142.147 250.6 141.656V130.584H251.464L242.76 142.2C242.568 142.456 242.333 142.691 242.056 142.904C241.8 143.117 241.427 143.224 240.936 143.224ZM259.841 143.224C259.371 143.224 259.009 143.096 258.753 142.84C258.518 142.563 258.401 142.179 258.401 141.688V128.888C258.401 128.525 258.454 128.216 258.561 127.96C258.667 127.704 258.827 127.512 259.041 127.384C259.254 127.235 259.531 127.16 259.873 127.16C260.193 127.16 260.459 127.213 260.673 127.32C260.886 127.427 261.067 127.565 261.217 127.736C261.366 127.907 261.494 128.099 261.601 128.312L266.721 137.272L271.809 128.312C271.937 128.077 272.075 127.875 272.225 127.704C272.374 127.533 272.555 127.405 272.769 127.32C272.982 127.213 273.238 127.16 273.537 127.16C274.027 127.16 274.39 127.309 274.625 127.608C274.881 127.907 275.009 128.333 275.009 128.888V141.688C275.009 142.179 274.881 142.563 274.625 142.84C274.39 143.096 274.038 143.224 273.569 143.224C273.121 143.224 272.769 143.096 272.513 142.84C272.278 142.563 272.161 142.179 272.161 141.688V131.128H272.897L267.841 139.896C267.734 140.088 267.595 140.259 267.425 140.408C267.254 140.557 267.019 140.632 266.721 140.632C266.401 140.632 266.155 140.557 265.985 140.408C265.835 140.237 265.707 140.067 265.601 139.896L260.513 131.128H261.249V141.688C261.249 142.179 261.121 142.563 260.865 142.84C260.63 143.096 260.289 143.224 259.841 143.224Z" fill="#CADBE0"/>
</svg>
