<svg width="24" height="24" viewBox="0 0 24 24" fill="none" xmlns="http://www.w3.org/2000/svg">
<path fill-rule="evenodd" clip-rule="evenodd" d="M11.5 3C6.25329 3 2 7.25329 2 12.5C2 17.7467 6.25329 22 11.5 22C16.7467 22 21 17.7467 21 12.5C21 9.98044 19.9991 7.56408 18.2175 5.78249C16.4359 4.00089 14.0196 3 11.5 3ZM9.82 10.88C9.39124 10.88 8.96248 11.3075 8.53249 11.7363C8.1 12.1675 7.66625 12.6 7.23 12.6C7.00026 12.5945 6.77828 12.6833 6.61578 12.8458C6.45329 13.0083 6.36446 13.2303 6.37 13.46L7.23 15.19C7.23 15.19 7.23 17.78 8.1 18.64C8.97 19.5 8.1 19.5 8.1 19.5C5.57748 18.4857 3.8331 16.147 3.58 13.44C3.38077 11.4439 3.95328 9.44724 5.18 7.86C5.31844 7.67197 5.53471 7.55692 5.76801 7.5472C6.0013 7.53748 6.2264 7.63414 6.38 7.81C6.574 8.09269 6.88774 8.26986 7.23 8.29C8.1 8.29 10.69 10.88 9.82 10.88ZM17.0299 14.9379C17.5279 15.2112 17.9988 15.4696 18.33 15.32C19.78 14.67 19.28 10.8 19.28 10.8C19.28 10.8 18.55 7.42 16.6 6.69C16.3332 6.60105 16.1299 6.97233 15.8999 7.39243C15.6385 7.86971 15.3427 8.41 14.88 8.41C14.01 8.41 13.15 8.42 13.15 9.28C13.15 9.71 13.5825 10.1425 14.015 10.575C14.4475 11.0075 14.88 11.44 14.88 11.87C14.88 12.73 14.88 14.45 15.74 14.45C16.1407 14.45 16.5956 14.6996 17.0299 14.9379Z" fill="#191C1F"/>
</svg>
