<svg width="15" height="20" viewBox="0 0 15 20" fill="none" xmlns="http://www.w3.org/2000/svg">
<path fill-rule="evenodd" clip-rule="evenodd" d="M9.61 7.7595H14.4C14.6761 7.7595 14.9 7.98336 14.9 8.2595V15.1795C14.9 17.3886 13.1091 19.1795 10.9 19.1795H4C1.79086 19.1795 0 17.3886 0 15.1795V4.0195C0 1.81036 1.79086 0.0195014 4 0.0195014H6.67C6.94614 0.0195014 7.17 0.243359 7.17 0.519501V5.2995C7.16734 5.94928 7.42292 6.57351 7.88051 7.03485C8.3381 7.49619 8.96022 7.75685 9.61 7.7595ZM3.6 8.2595C3.04772 8.2595 2.6 8.70722 2.6 9.2595L2.61 10.6495C2.61 11.2018 3.05772 11.6495 3.61 11.6495H5C5.55228 11.6495 6 11.2018 6 10.6495V9.2595C6 8.70722 5.55228 8.2595 5 8.2595H3.6ZM3.35 12.6995H7.78C8.19421 12.6995 8.53 13.0353 8.53 13.4495C8.53 13.8637 8.19421 14.1995 7.78 14.1995H3.35C2.93579 14.1995 2.6 13.8637 2.6 13.4495C2.6 13.0353 2.93579 12.6995 3.35 12.6995ZM3.35 16.6995H9.25C9.66421 16.6995 10 16.3637 10 15.9495C10 15.5353 9.66421 15.1995 9.25 15.1995H3.35C2.93579 15.1995 2.6 15.5353 2.6 15.9495C2.6 16.3637 2.93579 16.6995 3.35 16.6995Z" fill="#577481"/>
<path d="M8.22 0.599501V5.1695C8.22 5.99241 8.8871 6.6595 9.71 6.6595H14.33C14.5845 6.6983 14.8318 6.55543 14.9253 6.31563C15.0188 6.07582 14.9335 5.80322 14.72 5.6595L9.17 0.159501C9.00369 -0.00301898 8.75425 -0.0458549 8.54325 0.0518709C8.33226 0.149597 8.2036 0.367549 8.22 0.599501Z" fill="#577481"/>
</svg>
