<svg width="16" height="14" viewBox="0 0 16 14" fill="none" xmlns="http://www.w3.org/2000/svg">
<path d="M6.65703e-05 13.2258C6.6589e-05 13.6534 0.325676 14 0.727336 14L15.2727 14C15.6744 14 16 13.6534 16 13.2258C16 12.7982 15.6744 12.4516 15.2727 12.4516L0.727336 12.4516C0.533656 12.4488 0.347137 12.5295 0.210172 12.6753C0.0732073 12.8211 -0.00256891 13.0196 6.65703e-05 13.2258Z" fill="#577481"/>
<path d="M6.62545e-05 7.00004C6.62732e-05 7.42761 0.325676 7.77423 0.727336 7.77423L15.2727 7.77423C15.6744 7.77423 16 7.42761 16 7.00004C16 6.57246 15.6744 6.22585 15.2727 6.22585L0.727336 6.22585C0.533656 6.22304 0.347137 6.30371 0.210172 6.44951C0.073207 6.59531 -0.00256922 6.79386 6.62545e-05 7.00004Z" fill="#577481"/>
<path d="M6.59386e-05 0.774261C6.59573e-05 1.20184 0.325676 1.54845 0.727336 1.54845L15.2727 1.54845C15.6744 1.54845 16 1.20183 16 0.774261C16 0.346687 15.6744 6.98868e-05 15.2727 6.99043e-05L0.727336 7.05401e-05C0.533656 -0.00273516 0.347137 0.0779304 0.210172 0.223732C0.0732067 0.369534 -0.00256954 0.568086 6.59386e-05 0.774261Z" fill="#577481"/>
</svg>
