<svg width="24" height="24" viewBox="0 0 24 24" fill="none" xmlns="http://www.w3.org/2000/svg">
<path d="M4.00007 18.2258C4.00007 18.6534 4.32568 19 4.72734 19L19.2727 19C19.6744 19 20 18.6534 20 18.2258C20 17.7982 19.6744 17.4516 19.2727 17.4516L4.72734 17.4516C4.53366 17.4488 4.34714 17.5295 4.21017 17.6753C4.07321 17.8211 3.99743 18.0196 4.00007 18.2258Z" fill="white"/>
<path d="M4.00007 12C4.00007 12.4276 4.32568 12.7742 4.72734 12.7742L19.2727 12.7742C19.6744 12.7742 20 12.4276 20 12C20 11.5725 19.6744 11.2258 19.2727 11.2258L4.72734 11.2258C4.53366 11.223 4.34714 11.3037 4.21017 11.4495C4.07321 11.5953 3.99743 11.7939 4.00007 12Z" fill="white"/>
<path d="M4.00007 5.77426C4.00007 6.20184 4.32568 6.54845 4.72734 6.54845L19.2727 6.54845C19.6744 6.54845 20 6.20183 20 5.77426C20 5.34669 19.6744 5.00007 19.2727 5.00007L4.72734 5.00007C4.53366 4.99726 4.34714 5.07793 4.21017 5.22373C4.07321 5.36953 3.99743 5.56809 4.00007 5.77426Z" fill="white"/>
</svg>
