<svg width="16" height="16" viewBox="0 0 16 16" fill="none" xmlns="http://www.w3.org/2000/svg">
<path d="M9.16646 8.00805L15.762 1.43822C16.0793 1.11791 16.0793 0.598995 15.762 0.278681C15.4503 -0.0473594 14.9355 -0.0571515 14.6118 0.256802L8.01628 6.82663L1.51839 0.256802C1.36467 0.0928811 1.15078 0 0.927025 0C0.703266 0 0.489378 0.0928811 0.335658 0.256802C0.0543006 0.566276 0.0543006 1.04123 0.335658 1.35071L6.83354 7.9096L0.238001 14.4685C-0.0793336 14.7888 -0.0793336 15.3077 0.238001 15.628C0.389074 15.784 0.596845 15.871 0.813092 15.8687C1.03351 15.8867 1.25202 15.8159 1.42074 15.6718L8.01628 9.10196L14.6118 15.7593C14.7629 15.9153 14.9707 16.0022 15.1869 16C15.4029 16.001 15.6102 15.9142 15.762 15.7593C16.0793 15.439 16.0793 14.9201 15.762 14.5998L9.16646 8.00805Z" fill="#0F384A"/>
</svg>
