<svg width="20" height="20" viewBox="0 0 20 20" fill="none" xmlns="http://www.w3.org/2000/svg">
<path d="M9.99856 4.76008e-06C7.95837 0.000298506 5.96708 0.624614 4.29192 1.78917C2.61675 2.95373 1.33786 4.6028 0.626878 6.5151C-0.084108 8.42739 -0.193174 10.5114 0.314315 12.4875C0.821805 14.4635 1.92157 16.2371 3.46602 17.5701C5.01047 18.9032 6.92572 19.732 8.95473 19.9452C10.9837 20.1585 13.0294 19.746 14.8173 18.7632C16.6052 17.7804 18.0496 16.2742 18.9569 14.4468C19.8641 12.6195 20.1907 10.5583 19.8928 8.54C19.8753 8.41943 19.8272 8.30536 19.7531 8.20862C19.6791 8.11188 19.5815 8.03569 19.4697 7.9873C19.3579 7.93891 19.2355 7.91992 19.1143 7.93215C18.9931 7.94437 18.877 7.9874 18.7771 8.05714C18.3855 8.3306 17.9315 8.50149 17.4567 8.55419C16.982 8.60689 16.5016 8.53972 16.0595 8.35882C15.6174 8.17791 15.2277 7.88905 14.926 7.51866C14.6244 7.14826 14.4205 6.70815 14.3328 6.23857C14.3063 6.09657 14.2374 5.96594 14.1351 5.86392C14.0329 5.7619 13.9021 5.69329 13.76 5.66714C13.2899 5.57974 12.8494 5.37579 12.4786 5.07397C12.1078 4.77215 11.8187 4.38212 11.6377 3.93959C11.4568 3.49707 11.3897 3.01622 11.4428 2.54108C11.4959 2.06594 11.6673 1.61171 11.9414 1.22C12.0108 1.12012 12.0536 1.00417 12.0656 0.883148C12.0776 0.762121 12.0586 0.640024 12.0102 0.528427C11.9619 0.416829 11.8858 0.319429 11.7893 0.245454C11.6927 0.17148 11.5789 0.123382 11.4586 0.105719C10.9751 0.0348607 10.4872 -0.000471969 9.99856 4.76008e-06ZM9.99856 11.0714C9.7144 11.0714 9.44187 10.9585 9.24094 10.7576C9.04001 10.5567 8.92713 10.2842 8.92713 10C8.92713 9.71584 9.04001 9.44332 9.24094 9.24238C9.44187 9.04145 9.7144 8.92857 9.99856 8.92857C10.2827 8.92857 10.5552 9.04145 10.7562 9.24238C10.9571 9.44332 11.07 9.71584 11.07 10C11.07 10.2842 10.9571 10.5567 10.7562 10.7576C10.5552 10.9585 10.2827 11.0714 9.99856 11.0714ZM7.14142 13.9286C7.14142 14.2127 7.02853 14.4852 6.8276 14.6862C6.62667 14.8871 6.35415 15 6.06999 15C5.78583 15 5.51331 14.8871 5.31237 14.6862C5.11144 14.4852 4.99856 14.2127 4.99856 13.9286C4.99856 13.6444 5.11144 13.3719 5.31237 13.171C5.51331 12.97 5.78583 12.8571 6.06999 12.8571C6.35415 12.8571 6.62667 12.97 6.8276 13.171C7.02853 13.3719 7.14142 13.6444 7.14142 13.9286ZM5.3557 8.57143C5.215 8.57143 5.07568 8.54371 4.94568 8.48987C4.81569 8.43603 4.69758 8.35711 4.59809 8.25761C4.4986 8.15812 4.41968 8.04001 4.36583 7.91002C4.31199 7.78003 4.28427 7.6407 4.28427 7.5C4.28427 7.3593 4.31199 7.21997 4.36583 7.08998C4.41968 6.95999 4.4986 6.84188 4.59809 6.74239C4.69758 6.64289 4.81569 6.56397 4.94568 6.51013C5.07568 6.45629 5.215 6.42857 5.3557 6.42857C5.63986 6.42857 5.91238 6.54145 6.11332 6.74239C6.31425 6.94332 6.42713 7.21584 6.42713 7.5C6.42713 7.78416 6.31425 8.05668 6.11332 8.25761C5.91238 8.45855 5.63986 8.57143 5.3557 8.57143ZM13.57 14.6429C13.57 14.927 13.4571 15.1995 13.2562 15.4005C13.0552 15.6014 12.7827 15.7143 12.4986 15.7143C12.2144 15.7143 11.9419 15.6014 11.7409 15.4005C11.54 15.1995 11.4271 14.927 11.4271 14.6429C11.4271 14.3587 11.54 14.0862 11.7409 13.8852C11.9419 13.6843 12.2144 13.5714 12.4986 13.5714C12.7827 13.5714 13.0552 13.6843 13.2562 13.8852C13.4571 14.0862 13.57 14.3587 13.57 14.6429Z" fill="#577481"/>
</svg>
