<svg width="24" height="24" viewBox="0 0 24 24" fill="none" xmlns="http://www.w3.org/2000/svg">
<g clip-path="url(#clip0_880_26724)">
<mask id="mask0_880_26724" style="mask-type:alpha" maskUnits="userSpaceOnUse" x="1" y="1" width="22" height="22">
<path d="M1 12C1 5.92487 5.92487 1 12 1C18.0751 1 23 5.92487 23 12C23 18.0751 18.0751 23 12 23C5.92487 23 1 18.0751 1 12Z" fill="black"/>
</mask>
<g mask="url(#mask0_880_26724)">
<path d="M1 12C1 5.92487 5.92487 1 12 1C18.0751 1 23 5.92487 23 12C23 18.0751 18.0751 23 12 23C5.92487 23 1 18.0751 1 12Z" fill="#577481"/>
<path fill-rule="evenodd" clip-rule="evenodd" d="M11.6704 1C11.615 5.45925 11.3106 7.96557 9.63808 9.63806C7.96557 11.3106 5.45925 11.615 1 11.6703V12.3296C5.45925 12.385 7.96558 12.6894 9.63808 14.3619C11.3106 16.0344 11.615 18.5407 11.6704 23H12.3296C12.385 18.5407 12.6894 16.0344 14.3619 14.3619C16.0344 12.6894 18.5407 12.385 23 12.3296V11.6703C18.5407 11.6149 16.0344 11.3106 14.3619 9.63806C12.6894 7.96557 12.385 5.45923 12.3296 1H11.6704Z" fill="white"/>
</g>
</g>
<defs>
<clipPath id="clip0_880_26724">
<rect width="22" height="22" fill="white" transform="translate(1 1)"/>
</clipPath>
</defs>
</svg>
