<svg width="16" height="17" viewBox="0 0 16 17" fill="none" xmlns="http://www.w3.org/2000/svg">
<path d="M13.848 8.85787L13.8479 8.85799C12.4522 10.2257 11.0426 11.5769 9.66732 12.8951C9.23362 13.3109 8.80334 13.7233 8.37799 14.1319C7.8867 13.6724 7.39855 13.2208 6.91463 12.7732C5.40146 11.3733 3.92968 10.0118 2.53268 8.56522L2.53237 8.56491C1.4163 7.41057 1.51341 5.48159 2.70118 4.24889L2.7013 4.24877C3.81815 3.08916 5.72827 2.9 7.06246 3.88909C7.38257 4.12699 7.77579 4.37272 8.25721 4.39383C8.75618 4.41572 9.17776 4.19225 9.54809 3.91928C10.9835 2.86255 12.9622 3.11527 14.0534 4.37108L14.0534 4.37113C14.676 5.08756 14.9455 5.88115 14.9137 6.63769C14.8818 7.39413 14.546 8.17416 13.848 8.85787Z" stroke="#0F384A" stroke-width="1.5"/>
</svg>
