<svg width="16" height="16" viewBox="0 0 16 16" fill="none" xmlns="http://www.w3.org/2000/svg">
<path d="M13.848 8.35787L13.8479 8.35799C12.4522 9.72573 11.0426 11.0769 9.66732 12.3951C9.23362 12.8109 8.80334 13.2233 8.37799 13.6319C7.8867 13.1724 7.39855 12.7208 6.91463 12.2732C5.40146 10.8733 3.92968 9.5118 2.53268 8.06522L2.53237 8.06491C1.4163 6.91057 1.51341 4.98159 2.70118 3.74889L2.7013 3.74877C3.81815 2.58916 5.72827 2.4 7.06246 3.38909C7.38257 3.62699 7.77579 3.87272 8.25721 3.89383C8.75618 3.91572 9.17776 3.69225 9.54809 3.41928C10.9835 2.36255 12.9622 2.61527 14.0534 3.87108L14.0534 3.87113C14.676 4.58756 14.9455 5.38115 14.9137 6.13769C14.8818 6.89413 14.546 7.67416 13.848 8.35787Z" stroke="white" stroke-width="1.5"/>
</svg>
