<svg width="24" height="24" viewBox="0 0 24 24" fill="none" xmlns="http://www.w3.org/2000/svg">
<path d="M9.04908 17.7806C9.18769 17.9219 9.37119 18.0004 9.56179 18C9.75168 18.0018 9.93377 17.9186 10.0648 17.7702C10.2031 17.6247 10.2811 17.4251 10.2811 17.2166C10.2811 17.0082 10.2031 16.8086 10.0648 16.6631L6.48546 12.7986H19.2745C19.6752 12.7986 20 12.4479 20 12.0152C20 11.5826 19.6752 11.2319 19.2745 11.2319H6.48334L10.0745 7.3362C10.2128 7.19072 10.2908 6.9911 10.2908 6.78264C10.2908 6.57419 10.2128 6.37457 10.0745 6.22909C9.79123 5.92364 9.33234 5.92364 9.04908 6.22909L4.21218 11.4513C3.92927 11.7571 3.92927 12.2526 4.21218 12.5584L9.04908 17.7806Z" fill="#577481"/>
</svg>
