<svg width="32" height="47" viewBox="0 0 32 47" fill="none" xmlns="http://www.w3.org/2000/svg">
<path d="M30.001 16.3999C30.001 14.5614 29.6389 12.7409 28.9353 11.0423C28.2317 9.34378 27.2005 7.80043 25.9005 6.50041C24.6005 5.20039 23.0571 4.16915 21.3585 3.46559C19.66 2.76202 17.8395 2.3999 16.001 2.3999C14.1625 2.3999 12.342 2.76202 10.6434 3.46559C8.94485 4.16915 7.4015 5.20039 6.10148 6.50041C4.80146 7.80043 3.77023 9.34378 3.06666 11.0423C2.3631 12.7409 2.00098 14.5614 2.00098 16.3999C2.00098 19.1709 2.81721 21.7483 4.20646 23.9228C4.20841 23.9259 4.20621 23.9299 4.20258 23.9299C4.19913 23.9299 4.19691 23.9336 4.19851 23.9366L15.1157 44.715C15.4904 45.4282 16.5115 45.4282 16.8862 44.715L27.8039 23.9358C27.8053 23.9331 27.8033 23.9299 27.8003 23.9299C27.7971 23.9299 27.7952 23.9264 27.7969 23.9237C29.2361 21.6783 30.0011 19.0671 30.001 16.3999ZM16.001 22.3999C14.4097 22.3999 12.8836 21.7678 11.7583 20.6425C10.6331 19.5173 10.001 17.9912 10.001 16.3999C10.001 14.8086 10.6331 13.2825 11.7583 12.1573C12.8836 11.032 14.4097 10.3999 16.001 10.3999C17.5923 10.3999 19.1184 11.032 20.2436 12.1573C21.3688 13.2825 22.001 14.8086 22.001 16.3999C22.001 17.9912 21.3688 19.5173 20.2436 20.6425C19.1184 21.7678 17.5923 22.3999 16.001 22.3999Z" fill="#0F384A" stroke="white" stroke-width="3"/>
</svg>
