<svg width="30" height="45" viewBox="0 0 30 45" fill="none" xmlns="http://www.w3.org/2000/svg">
<path d="M29.001 15.3999C29.001 13.5614 28.6389 11.7409 27.9353 10.0423C27.2317 8.34378 26.2005 6.80043 24.9005 5.50041C23.6005 4.20039 22.0571 3.16915 20.3585 2.46559C18.66 1.76202 16.8395 1.3999 15.001 1.3999C13.1625 1.3999 11.342 1.76202 9.64341 2.46559C7.94485 3.16915 6.4015 4.20039 5.10148 5.50041C3.80146 6.80043 2.77023 8.34378 2.06666 10.0423C1.3631 11.7409 1.00098 13.5614 1.00098 15.3999C1.00098 18.1709 1.81721 20.7483 3.20646 22.9228C3.20841 22.9259 3.20621 22.9299 3.20258 22.9299C3.19913 22.9299 3.19691 22.9336 3.19851 22.9366L14.1157 43.715C14.4904 44.4282 15.5115 44.4282 15.8862 43.715L26.8039 22.9358C26.8053 22.9331 26.8033 22.9299 26.8003 22.9299C26.7971 22.9299 26.7952 22.9264 26.7969 22.9237C28.2361 20.6783 29.0011 18.0671 29.001 15.3999Z" fill="#0F384A" stroke="#F2F5FA"/>
</svg>
