<svg width="18" height="13" viewBox="0 0 18 13" fill="none" xmlns="http://www.w3.org/2000/svg">
<path d="M0 2.79521C0 2.05387 0.294494 1.3429 0.818698 0.818698C1.3429 0.294494 2.05387 0 2.79521 0H9.28009C10.0214 0 10.7324 0.294494 11.2566 0.818698C11.7808 1.3429 12.0753 2.05387 12.0753 2.79521V9.72733C12.0753 10.4687 11.7808 11.1796 11.2566 11.7038C10.7324 12.228 10.0214 12.5225 9.28009 12.5225H2.79521C2.05387 12.5225 1.3429 12.228 0.818698 11.7038C0.294494 11.1796 0 10.4687 0 9.72733V2.79521ZM15.6116 11.3678L12.9698 9.54351V2.97813L15.6116 1.15431C16.5758 0.488826 17.8911 1.17891 17.8911 2.35066V10.1714C17.8911 11.3432 16.5758 12.0333 15.6116 11.3678Z" fill="#577481"/>
</svg>
