<svg width="193" height="52" viewBox="0 0 193 52" fill="none" xmlns="http://www.w3.org/2000/svg">
<g clip-path="url(#clip0_967_43883)">
<path d="M192.953 0H0.953125V52H192.953V0Z" fill="#424242"/>
<path d="M90.5091 30.1357H83.4778L92.4544 18.2574C92.6501 17.9966 92.5957 17.6162 92.3349 17.4206C92.2371 17.3445 92.1067 17.301 91.9763 17.301H78.9895C77.8484 17.301 76.9138 18.2356 76.9138 19.3767C76.9138 20.5178 77.8484 21.4525 78.9895 21.4525H84.8254L75.8161 33.3416C75.6097 33.6024 75.664 33.9719 75.9248 34.1784C76.0335 34.2654 76.1639 34.3088 76.2943 34.298H90.4983C91.6394 34.2436 92.5196 33.2655 92.4653 32.1136C92.411 31.0485 91.5633 30.2009 90.4983 30.1465V30.1357H90.5091ZM135.892 17.301C134.751 17.301 133.817 18.2356 133.817 19.3767V26.3429L122.601 17.4423C122.351 17.2358 121.971 17.2684 121.764 17.5292C121.677 17.6379 121.634 17.7683 121.634 17.9096V32.2222C121.634 33.3633 122.569 34.298 123.71 34.298C124.851 34.298 125.785 33.3742 125.785 32.2222V25.2561L137.001 34.1675C137.262 34.374 137.642 34.3306 137.848 34.0697C137.935 33.9611 137.979 33.8307 137.979 33.7002V19.3767C137.968 18.2248 137.044 17.301 135.892 17.301ZM106.213 30.5269C101.464 30.5269 97.9208 28.0274 97.9208 25.7886C97.9208 23.5499 101.475 21.0504 106.213 21.0504C110.962 21.0504 114.505 23.5499 114.505 25.7886C114.505 28.0274 110.973 30.5269 106.213 30.5269ZM106.213 16.8989C99.3445 16.8989 93.7694 20.8765 93.7694 25.7886C93.7694 30.7008 99.3445 34.6783 106.213 34.6783C113.081 34.6783 118.656 30.7008 118.656 25.7886C118.656 20.8765 113.081 16.8989 106.213 16.8989ZM65.3615 30.5378C62.7424 30.5378 60.6124 28.4186 60.6124 25.7995C60.6124 23.1804 62.7315 21.0504 65.3506 21.0504C67.9697 21.0504 70.0998 23.1695 70.0998 25.7886V25.7995C70.0998 28.4077 67.9806 30.5269 65.3615 30.5378ZM65.3615 16.8989C60.4493 16.8989 56.4718 20.8765 56.4609 25.7886C56.4609 30.7008 60.4385 34.6783 65.3506 34.6892C70.2628 34.6892 74.2403 30.7117 74.2512 25.7995V25.7886C74.2403 20.8765 70.2628 16.8989 65.3615 16.8989Z" fill="white"/>
</g>
<defs>
<clipPath id="clip0_967_43883">
<rect x="0.953125" width="192.024" height="51.5885" rx="5.09516" fill="white"/>
</clipPath>
</defs>
</svg>
