<svg width="24" height="24" viewBox="0 0 24 24" fill="none" xmlns="http://www.w3.org/2000/svg">
<path fill-rule="evenodd" clip-rule="evenodd" d="M12 2C10.9391 2 9.92172 2.42143 9.17157 3.17157C8.42143 3.92172 8 4.93913 8 6V11C8 12.0609 8.42143 13.0783 9.17157 13.8284C9.92172 14.5786 10.9391 15 12 15C13.0609 15 14.0783 14.5786 14.8284 13.8284C15.5786 13.0783 16 12.0609 16 11V6C16 4.93913 15.5786 3.92172 14.8284 3.17157C14.0783 2.42143 13.0609 2 12 2ZM5 10C5.26522 10 5.51957 10.1054 5.70711 10.2929C5.89464 10.4804 6 10.7348 6 11C6 12.5913 6.63214 14.1174 7.75736 15.2426C8.88258 16.3679 10.4087 17 12 17C13.5913 17 15.1174 16.3679 16.2426 15.2426C17.3679 14.1174 18 12.5913 18 11C18 10.7348 18.1054 10.4804 18.2929 10.2929C18.4804 10.1054 18.7348 10 19 10C19.2652 10 19.5196 10.1054 19.7071 10.2929C19.8946 10.4804 20 10.7348 20 11C20 12.9486 19.2888 14.8302 18 16.2917C16.7112 17.7533 14.9333 18.6942 13 18.938V21C13 21.2652 12.8946 21.5196 12.7071 21.7071C12.5196 21.8946 12.2652 22 12 22C11.7348 22 11.4804 21.8946 11.2929 21.7071C11.1054 21.5196 11 21.2652 11 21V18.938C9.0667 18.6942 7.28882 17.7533 6 16.2917C4.71119 14.8302 4.00003 12.9486 4 11C4 10.7348 4.10536 10.4804 4.29289 10.2929C4.48043 10.1054 4.73478 10 5 10Z" fill="#577481"/>
</svg>
