<svg width="64" height="64" viewBox="0 0 64 64" fill="none" xmlns="http://www.w3.org/2000/svg">
<path d="M17.3333 26.6666C17.2735 26.6666 17.214 26.6675 17.1547 26.6692C16.4247 26.6906 15.8134 26.0288 16.1125 25.3625C16.1636 25.2485 16.2183 25.1363 16.2773 25.0266C16.5813 24.2052 17.056 23.4932 17.528 22.7759C17.9227 21.9999 18.6187 21.4746 19.1307 20.8106C19.6667 20.1652 20.3973 19.7359 20.976 19.1999C21.544 18.6399 22.288 18.3599 22.88 17.9652C23.4987 17.6106 24.0373 17.2186 24.6133 17.0319L26.0507 16.4399L26.5193 16.2452C26.9764 16.0552 27.2257 15.5592 27.1056 15.079L26.262 11.7084C26.1288 11.1759 25.5911 10.8504 25.0575 10.9791L24.4293 11.1306C23.92 11.2586 23.2987 11.4079 22.592 11.5866C21.8693 11.7199 21.0987 12.0852 20.24 12.4186C19.392 12.7972 18.4107 13.0532 17.4987 13.6612C16.5813 14.2426 15.5227 14.7279 14.5893 15.5066C13.6853 16.3092 12.5947 17.0052 11.7893 18.0266C10.9093 18.9812 10.04 19.9839 9.36534 21.1252C8.58401 22.2132 8.05334 23.4079 7.49334 24.5892C6.98667 25.7706 6.57867 26.9786 6.24534 28.1519C5.61334 30.5039 5.33067 32.7386 5.22134 34.6506C5.13067 36.5653 5.18401 38.1573 5.29601 39.3092C5.33601 39.8533 5.41067 40.3813 5.46401 40.7466L5.52527 41.1583C5.52818 41.1778 5.54716 41.1908 5.56643 41.1863C5.58489 41.1821 5.60325 41.1938 5.60727 41.2123C6.08539 43.4148 7.17418 45.4384 8.74924 47.0511C10.3323 48.672 12.342 49.8116 14.5457 50.3381C16.7494 50.8646 19.0572 50.7564 21.202 50.0261C23.3468 49.2958 25.2411 47.9732 26.6656 46.2113C28.0902 44.4494 28.9868 42.3202 29.2518 40.07C29.5168 37.8198 29.1393 35.5406 28.163 33.496C27.1868 31.4513 25.6516 29.7249 23.7351 28.5163C21.8186 27.3077 19.5991 26.6664 17.3333 26.6666ZM46.6667 26.6666C46.6069 26.6666 46.5473 26.6675 46.488 26.6692C45.758 26.6906 45.1468 26.0288 45.4458 25.3625C45.497 25.2485 45.5517 25.1363 45.6107 25.0266C45.9147 24.2052 46.3893 23.4932 46.8613 22.7759C47.256 21.9999 47.952 21.4746 48.464 20.8106C49 20.1652 49.7307 19.7359 50.3093 19.1999C50.8773 18.6399 51.6213 18.3599 52.2133 17.9652C52.832 17.6106 53.3707 17.2186 53.9467 17.0319L55.384 16.4399L55.8526 16.2452C56.3098 16.0552 56.5591 15.5592 56.4389 15.079L55.5954 11.7084C55.4621 11.1759 54.9245 10.8504 54.3908 10.9791L53.7627 11.1306C53.2533 11.2586 52.632 11.4079 51.9253 11.5866C51.2027 11.7199 50.432 12.0852 49.5733 12.4186C48.728 12.7999 47.744 13.0532 46.832 13.6639C45.9147 14.2452 44.856 14.7306 43.9227 15.5092C43.0187 16.3119 41.928 17.0079 41.1227 18.0266C40.2427 18.9812 39.3733 19.9839 38.6987 21.1252C37.9173 22.2132 37.3867 23.4079 36.8267 24.5892C36.32 25.7706 35.912 26.9786 35.5787 28.1519C34.9467 30.5039 34.664 32.7386 34.5547 34.6506C34.464 36.5653 34.5173 38.1573 34.6293 39.3092C34.6693 39.8533 34.744 40.3813 34.7973 40.7466L34.8586 41.1583C34.8615 41.1778 34.8805 41.1908 34.8998 41.1863C34.9182 41.1821 34.9366 41.1938 34.9406 41.2123C35.4187 43.4148 36.5075 45.4384 38.0826 47.0511C39.6657 48.672 41.6753 49.8116 43.879 50.3381C46.0828 50.8646 48.3905 50.7564 50.5354 50.0261C52.6802 49.2958 54.5744 47.9732 55.999 46.2113C57.4235 44.4494 58.3201 42.3202 58.5851 40.07C58.8501 37.8198 58.4726 35.5406 57.4964 33.496C56.5201 31.4513 54.9849 29.7249 53.0684 28.5163C51.1519 27.3077 48.9324 26.6664 46.6667 26.6666Z" fill="#E1E5ED"/>
</svg>
