<svg width="16" height="12" viewBox="0 0 16 12" fill="none" xmlns="http://www.w3.org/2000/svg">
<path d="M15.7783 5.45246L10.9442 0.222945C10.7577 0.0267704 10.4886 -0.0468542 10.2383 0.0298046C9.98802 0.106463 9.79454 0.321759 9.73075 0.594592C9.66697 0.867425 9.74258 1.15635 9.9291 1.35252L13.5159 5.22236H0.725105C0.32464 5.22236 0 5.57356 0 6.00679C0 6.44001 0.32464 6.79121 0.725105 6.79121H13.5063L9.9291 10.6611C9.79089 10.8067 9.71295 11.0066 9.71295 11.2154C9.71295 11.4241 9.79089 11.624 9.9291 11.7697C10.0624 11.921 10.2484 12.0045 10.4415 11.9998C10.634 12.0008 10.8187 11.9178 10.9539 11.7697L15.7879 6.5402C16.0707 6.23394 16.0707 5.7378 15.7879 5.43154L15.7783 5.45246Z" fill="#0F384A"/>
</svg>
