<svg width="17" height="16" viewBox="0 0 17 16" fill="none" xmlns="http://www.w3.org/2000/svg">
<path d="M14.0184 7.63497L10.7957 4.14863C10.6713 4.01785 10.4919 3.96876 10.3251 4.01987C10.1582 4.07098 10.0292 4.21451 9.98668 4.39639C9.94416 4.57828 9.99456 4.7709 10.1189 4.90168L12.5101 7.48157H3.98291C3.71594 7.48157 3.49951 7.71571 3.49951 8.00452C3.49951 8.29334 3.71594 8.52748 3.98291 8.52748H12.5037L10.1189 11.1074C10.0268 11.2045 9.97481 11.3378 9.97481 11.4769C9.97481 11.6161 10.0268 11.7494 10.1189 11.8465C10.2078 11.9473 10.3318 12.003 10.4605 11.9999C10.5888 12.0005 10.712 11.9452 10.8021 11.8465L14.0248 8.36013C14.2133 8.15596 14.2133 7.8252 14.0248 7.62103L14.0184 7.63497Z" fill="#577481"/>
</svg>
