<svg width="24" height="24" viewBox="0 0 24 24" fill="none" xmlns="http://www.w3.org/2000/svg">
<path d="M19.7783 11.4525L14.9442 6.22294C14.7577 6.02677 14.4886 5.95315 14.2383 6.0298C13.988 6.10646 13.7945 6.32176 13.7308 6.59459C13.667 6.86743 13.7426 7.15635 13.9291 7.35252L17.5159 11.2224H4.7251C4.32464 11.2224 4 11.5736 4 12.0068C4 12.44 4.32464 12.7912 4.7251 12.7912H17.5063L13.9291 16.6611C13.7909 16.8067 13.7129 17.0066 13.7129 17.2154C13.7129 17.4241 13.7909 17.624 13.9291 17.7697C14.0624 17.921 14.2484 18.0045 14.4415 17.9998C14.634 18.0008 14.8187 17.9178 14.9539 17.7697L19.7879 12.5402C20.0707 12.2339 20.0707 11.7378 19.7879 11.4315L19.7783 11.4525Z" fill="#0F384A"/>
</svg>
