<svg width="24" height="24" viewBox="0 0 24 24" fill="none" xmlns="http://www.w3.org/2000/svg">
<path fill-rule="evenodd" clip-rule="evenodd" d="M15.9925 4.5129C16.7949 4.63804 17.5391 5.02068 18.1097 5.60856C19.5397 7.08198 19.5221 9.43046 18.0703 10.8823L17.7732 11.1794L14.3362 14.6164L10.4955 18.457C9.11767 19.8349 6.88151 19.8276 5.51262 18.4408C4.15249 17.063 4.16399 14.8442 5.53834 13.4805L11.17 7.89239C11.7077 7.35885 12.5756 7.36052 13.1113 7.89613C13.6484 8.43324 13.6484 9.30409 13.1113 9.84122L7.20423 15.7483L8.26489 16.8089L14.172 10.9019C15.2949 9.77895 15.2949 7.95832 14.1719 6.83544C13.0521 5.71568 11.2376 5.71219 10.1135 6.82762L4.4818 12.4157C2.52048 14.3619 2.50407 17.5282 4.44511 19.4946C6.39865 21.4736 9.58985 21.484 11.5562 19.5177L15.3968 15.677L18.8338 12.2401L19.1309 11.943C21.1624 9.91152 21.187 6.6255 19.1861 4.56388C18.3332 3.68512 17.203 3.13411 15.9925 3V4.5129Z" fill="#0F384A"/>
</svg>
