<svg width="24" height="24" viewBox="0 0 24 24" fill="none" xmlns="http://www.w3.org/2000/svg">
<path d="M18.3901 7.83283L11.589 5.72095C11.3294 5.64432 11.0595 5.71511 10.8811 5.90665C10.7026 6.09819 10.6427 6.38138 10.7239 6.64956C10.8051 6.91773 11.015 7.13014 11.2746 7.20677L16.3158 8.76472L5.23865 15.1601C4.89184 15.3604 4.78629 15.8268 5.00291 16.202C5.21952 16.5772 5.67627 16.719 6.02308 16.5188L17.0919 10.1282L15.9289 15.2682C15.882 15.4635 15.9145 15.6755 16.0189 15.8563C16.1232 16.0371 16.2907 16.1713 16.4832 16.2283C16.6743 16.2927 16.8771 16.272 17.042 16.1714C17.2092 16.076 17.3277 15.9118 17.3707 15.7159L18.9424 8.77001C19.0341 8.36341 18.786 7.93374 18.388 7.80988L18.3901 7.83283Z" fill="#191C1F"/>
</svg>
