<svg width="24" height="24" viewBox="0 0 24 24" fill="none" xmlns="http://www.w3.org/2000/svg">
<path d="M18.3906 7.83283L11.5895 5.72095C11.3298 5.64432 11.06 5.71511 10.8816 5.90665C10.7031 6.09819 10.6432 6.38138 10.7244 6.64956C10.8056 6.91773 11.0155 7.13014 11.2751 7.20677L16.3163 8.76472L5.23914 15.1601C4.89233 15.3604 4.78678 15.8268 5.00339 16.202C5.22001 16.5772 5.67675 16.719 6.02357 16.5188L17.0924 10.1282L15.9294 15.2682C15.8825 15.4635 15.915 15.6755 16.0194 15.8563C16.1237 16.0371 16.2912 16.1713 16.4837 16.2283C16.6748 16.2927 16.8776 16.272 17.0425 16.1714C17.2097 16.076 17.3282 15.9118 17.3712 15.7159L18.9429 8.77001C19.0346 8.36341 18.7865 7.93374 18.3885 7.80988L18.3906 7.83283Z" fill="#577481"/>
</svg>
