<svg width="24" height="24" viewBox="0 0 24 24" fill="none" xmlns="http://www.w3.org/2000/svg">
<path fill-rule="evenodd" clip-rule="evenodd" d="M19.8068 5.42045C20.6705 5.65909 21.3523 6.34091 21.5795 7.20455C22 8.77273 22 12.0455 22 12.0455C22 12.0455 22 15.3182 21.5909 16.8864C21.3523 17.7614 20.6818 18.4432 19.8182 18.6705C18.25 19.0909 12 19.0909 12 19.0909C12 19.0909 5.75 19.0909 4.19318 18.6705C3.32955 18.4318 2.64773 17.75 2.42045 16.8864C2 15.3182 2 12.0455 2 12.0455C2 12.0455 2 8.77273 2.40909 7.20455C2.64773 6.32955 3.31818 5.64773 4.18182 5.42045C5.75 5 12 5 12 5C12 5 18.25 5 19.8068 5.42045ZM15.1818 12.0454L9.95455 15.0227V9.06818L15.1818 12.0454Z" fill="#ed3834"/>
</svg>
